G04 #@! TF.GenerationSoftware,KiCad,Pcbnew,(5.1.5)-3*
G04 #@! TF.CreationDate,2020-04-27T13:04:48+02:00*
G04 #@! TF.ProjectId,RS232_click,52533233-325f-4636-9c69-636b2e6b6963,rev?*
G04 #@! TF.SameCoordinates,Original*
G04 #@! TF.FileFunction,Soldermask,Bot*
G04 #@! TF.FilePolarity,Negative*
%FSLAX46Y46*%
G04 Gerber Fmt 4.6, Leading zero omitted, Abs format (unit mm)*
G04 Created by KiCad (PCBNEW (5.1.5)-3) date 2020-04-27 13:04:48*
%MOMM*%
%LPD*%
G04 APERTURE LIST*
%ADD10C,0.100000*%
G04 APERTURE END LIST*
D10*
G36*
X75043512Y-147693927D02*
G01*
X75192812Y-147723624D01*
X75356784Y-147791544D01*
X75504354Y-147890147D01*
X75629853Y-148015646D01*
X75728456Y-148163216D01*
X75796376Y-148327188D01*
X75831000Y-148501259D01*
X75831000Y-148678741D01*
X75796376Y-148852812D01*
X75728456Y-149016784D01*
X75629853Y-149164354D01*
X75504354Y-149289853D01*
X75356784Y-149388456D01*
X75192812Y-149456376D01*
X75043512Y-149486073D01*
X75018742Y-149491000D01*
X74841258Y-149491000D01*
X74816488Y-149486073D01*
X74667188Y-149456376D01*
X74503216Y-149388456D01*
X74355646Y-149289853D01*
X74230147Y-149164354D01*
X74131544Y-149016784D01*
X74063624Y-148852812D01*
X74029000Y-148678741D01*
X74029000Y-148501259D01*
X74063624Y-148327188D01*
X74131544Y-148163216D01*
X74230147Y-148015646D01*
X74355646Y-147890147D01*
X74503216Y-147791544D01*
X74667188Y-147723624D01*
X74816488Y-147693927D01*
X74841258Y-147689000D01*
X75018742Y-147689000D01*
X75043512Y-147693927D01*
G37*
G36*
X52183512Y-147693927D02*
G01*
X52332812Y-147723624D01*
X52496784Y-147791544D01*
X52644354Y-147890147D01*
X52769853Y-148015646D01*
X52868456Y-148163216D01*
X52936376Y-148327188D01*
X52971000Y-148501259D01*
X52971000Y-148678741D01*
X52936376Y-148852812D01*
X52868456Y-149016784D01*
X52769853Y-149164354D01*
X52644354Y-149289853D01*
X52496784Y-149388456D01*
X52332812Y-149456376D01*
X52183512Y-149486073D01*
X52158742Y-149491000D01*
X51981258Y-149491000D01*
X51956488Y-149486073D01*
X51807188Y-149456376D01*
X51643216Y-149388456D01*
X51495646Y-149289853D01*
X51370147Y-149164354D01*
X51271544Y-149016784D01*
X51203624Y-148852812D01*
X51169000Y-148678741D01*
X51169000Y-148501259D01*
X51203624Y-148327188D01*
X51271544Y-148163216D01*
X51370147Y-148015646D01*
X51495646Y-147890147D01*
X51643216Y-147791544D01*
X51807188Y-147723624D01*
X51956488Y-147693927D01*
X51981258Y-147689000D01*
X52158742Y-147689000D01*
X52183512Y-147693927D01*
G37*
G36*
X75043512Y-145153927D02*
G01*
X75192812Y-145183624D01*
X75356784Y-145251544D01*
X75504354Y-145350147D01*
X75629853Y-145475646D01*
X75728456Y-145623216D01*
X75796376Y-145787188D01*
X75831000Y-145961259D01*
X75831000Y-146138741D01*
X75796376Y-146312812D01*
X75728456Y-146476784D01*
X75629853Y-146624354D01*
X75504354Y-146749853D01*
X75356784Y-146848456D01*
X75192812Y-146916376D01*
X75043512Y-146946073D01*
X75018742Y-146951000D01*
X74841258Y-146951000D01*
X74816488Y-146946073D01*
X74667188Y-146916376D01*
X74503216Y-146848456D01*
X74355646Y-146749853D01*
X74230147Y-146624354D01*
X74131544Y-146476784D01*
X74063624Y-146312812D01*
X74029000Y-146138741D01*
X74029000Y-145961259D01*
X74063624Y-145787188D01*
X74131544Y-145623216D01*
X74230147Y-145475646D01*
X74355646Y-145350147D01*
X74503216Y-145251544D01*
X74667188Y-145183624D01*
X74816488Y-145153927D01*
X74841258Y-145149000D01*
X75018742Y-145149000D01*
X75043512Y-145153927D01*
G37*
G36*
X52183512Y-145153927D02*
G01*
X52332812Y-145183624D01*
X52496784Y-145251544D01*
X52644354Y-145350147D01*
X52769853Y-145475646D01*
X52868456Y-145623216D01*
X52936376Y-145787188D01*
X52971000Y-145961259D01*
X52971000Y-146138741D01*
X52936376Y-146312812D01*
X52868456Y-146476784D01*
X52769853Y-146624354D01*
X52644354Y-146749853D01*
X52496784Y-146848456D01*
X52332812Y-146916376D01*
X52183512Y-146946073D01*
X52158742Y-146951000D01*
X51981258Y-146951000D01*
X51956488Y-146946073D01*
X51807188Y-146916376D01*
X51643216Y-146848456D01*
X51495646Y-146749853D01*
X51370147Y-146624354D01*
X51271544Y-146476784D01*
X51203624Y-146312812D01*
X51169000Y-146138741D01*
X51169000Y-145961259D01*
X51203624Y-145787188D01*
X51271544Y-145623216D01*
X51370147Y-145475646D01*
X51495646Y-145350147D01*
X51643216Y-145251544D01*
X51807188Y-145183624D01*
X51956488Y-145153927D01*
X51981258Y-145149000D01*
X52158742Y-145149000D01*
X52183512Y-145153927D01*
G37*
G36*
X75043512Y-142613927D02*
G01*
X75192812Y-142643624D01*
X75356784Y-142711544D01*
X75504354Y-142810147D01*
X75629853Y-142935646D01*
X75728456Y-143083216D01*
X75796376Y-143247188D01*
X75831000Y-143421259D01*
X75831000Y-143598741D01*
X75796376Y-143772812D01*
X75728456Y-143936784D01*
X75629853Y-144084354D01*
X75504354Y-144209853D01*
X75356784Y-144308456D01*
X75192812Y-144376376D01*
X75043512Y-144406073D01*
X75018742Y-144411000D01*
X74841258Y-144411000D01*
X74816488Y-144406073D01*
X74667188Y-144376376D01*
X74503216Y-144308456D01*
X74355646Y-144209853D01*
X74230147Y-144084354D01*
X74131544Y-143936784D01*
X74063624Y-143772812D01*
X74029000Y-143598741D01*
X74029000Y-143421259D01*
X74063624Y-143247188D01*
X74131544Y-143083216D01*
X74230147Y-142935646D01*
X74355646Y-142810147D01*
X74503216Y-142711544D01*
X74667188Y-142643624D01*
X74816488Y-142613927D01*
X74841258Y-142609000D01*
X75018742Y-142609000D01*
X75043512Y-142613927D01*
G37*
G36*
X52183512Y-142613927D02*
G01*
X52332812Y-142643624D01*
X52496784Y-142711544D01*
X52644354Y-142810147D01*
X52769853Y-142935646D01*
X52868456Y-143083216D01*
X52936376Y-143247188D01*
X52971000Y-143421259D01*
X52971000Y-143598741D01*
X52936376Y-143772812D01*
X52868456Y-143936784D01*
X52769853Y-144084354D01*
X52644354Y-144209853D01*
X52496784Y-144308456D01*
X52332812Y-144376376D01*
X52183512Y-144406073D01*
X52158742Y-144411000D01*
X51981258Y-144411000D01*
X51956488Y-144406073D01*
X51807188Y-144376376D01*
X51643216Y-144308456D01*
X51495646Y-144209853D01*
X51370147Y-144084354D01*
X51271544Y-143936784D01*
X51203624Y-143772812D01*
X51169000Y-143598741D01*
X51169000Y-143421259D01*
X51203624Y-143247188D01*
X51271544Y-143083216D01*
X51370147Y-142935646D01*
X51495646Y-142810147D01*
X51643216Y-142711544D01*
X51807188Y-142643624D01*
X51956488Y-142613927D01*
X51981258Y-142609000D01*
X52158742Y-142609000D01*
X52183512Y-142613927D01*
G37*
G36*
X52183512Y-140073927D02*
G01*
X52332812Y-140103624D01*
X52496784Y-140171544D01*
X52644354Y-140270147D01*
X52769853Y-140395646D01*
X52868456Y-140543216D01*
X52936376Y-140707188D01*
X52971000Y-140881259D01*
X52971000Y-141058741D01*
X52936376Y-141232812D01*
X52868456Y-141396784D01*
X52769853Y-141544354D01*
X52644354Y-141669853D01*
X52496784Y-141768456D01*
X52332812Y-141836376D01*
X52183512Y-141866073D01*
X52158742Y-141871000D01*
X51981258Y-141871000D01*
X51956488Y-141866073D01*
X51807188Y-141836376D01*
X51643216Y-141768456D01*
X51495646Y-141669853D01*
X51370147Y-141544354D01*
X51271544Y-141396784D01*
X51203624Y-141232812D01*
X51169000Y-141058741D01*
X51169000Y-140881259D01*
X51203624Y-140707188D01*
X51271544Y-140543216D01*
X51370147Y-140395646D01*
X51495646Y-140270147D01*
X51643216Y-140171544D01*
X51807188Y-140103624D01*
X51956488Y-140073927D01*
X51981258Y-140069000D01*
X52158742Y-140069000D01*
X52183512Y-140073927D01*
G37*
G36*
X75043512Y-140073927D02*
G01*
X75192812Y-140103624D01*
X75356784Y-140171544D01*
X75504354Y-140270147D01*
X75629853Y-140395646D01*
X75728456Y-140543216D01*
X75796376Y-140707188D01*
X75831000Y-140881259D01*
X75831000Y-141058741D01*
X75796376Y-141232812D01*
X75728456Y-141396784D01*
X75629853Y-141544354D01*
X75504354Y-141669853D01*
X75356784Y-141768456D01*
X75192812Y-141836376D01*
X75043512Y-141866073D01*
X75018742Y-141871000D01*
X74841258Y-141871000D01*
X74816488Y-141866073D01*
X74667188Y-141836376D01*
X74503216Y-141768456D01*
X74355646Y-141669853D01*
X74230147Y-141544354D01*
X74131544Y-141396784D01*
X74063624Y-141232812D01*
X74029000Y-141058741D01*
X74029000Y-140881259D01*
X74063624Y-140707188D01*
X74131544Y-140543216D01*
X74230147Y-140395646D01*
X74355646Y-140270147D01*
X74503216Y-140171544D01*
X74667188Y-140103624D01*
X74816488Y-140073927D01*
X74841258Y-140069000D01*
X75018742Y-140069000D01*
X75043512Y-140073927D01*
G37*
G36*
X52183512Y-137533927D02*
G01*
X52332812Y-137563624D01*
X52496784Y-137631544D01*
X52644354Y-137730147D01*
X52769853Y-137855646D01*
X52868456Y-138003216D01*
X52936376Y-138167188D01*
X52971000Y-138341259D01*
X52971000Y-138518741D01*
X52936376Y-138692812D01*
X52868456Y-138856784D01*
X52769853Y-139004354D01*
X52644354Y-139129853D01*
X52496784Y-139228456D01*
X52332812Y-139296376D01*
X52183512Y-139326073D01*
X52158742Y-139331000D01*
X51981258Y-139331000D01*
X51956488Y-139326073D01*
X51807188Y-139296376D01*
X51643216Y-139228456D01*
X51495646Y-139129853D01*
X51370147Y-139004354D01*
X51271544Y-138856784D01*
X51203624Y-138692812D01*
X51169000Y-138518741D01*
X51169000Y-138341259D01*
X51203624Y-138167188D01*
X51271544Y-138003216D01*
X51370147Y-137855646D01*
X51495646Y-137730147D01*
X51643216Y-137631544D01*
X51807188Y-137563624D01*
X51956488Y-137533927D01*
X51981258Y-137529000D01*
X52158742Y-137529000D01*
X52183512Y-137533927D01*
G37*
G36*
X75043512Y-137533927D02*
G01*
X75192812Y-137563624D01*
X75356784Y-137631544D01*
X75504354Y-137730147D01*
X75629853Y-137855646D01*
X75728456Y-138003216D01*
X75796376Y-138167188D01*
X75831000Y-138341259D01*
X75831000Y-138518741D01*
X75796376Y-138692812D01*
X75728456Y-138856784D01*
X75629853Y-139004354D01*
X75504354Y-139129853D01*
X75356784Y-139228456D01*
X75192812Y-139296376D01*
X75043512Y-139326073D01*
X75018742Y-139331000D01*
X74841258Y-139331000D01*
X74816488Y-139326073D01*
X74667188Y-139296376D01*
X74503216Y-139228456D01*
X74355646Y-139129853D01*
X74230147Y-139004354D01*
X74131544Y-138856784D01*
X74063624Y-138692812D01*
X74029000Y-138518741D01*
X74029000Y-138341259D01*
X74063624Y-138167188D01*
X74131544Y-138003216D01*
X74230147Y-137855646D01*
X74355646Y-137730147D01*
X74503216Y-137631544D01*
X74667188Y-137563624D01*
X74816488Y-137533927D01*
X74841258Y-137529000D01*
X75018742Y-137529000D01*
X75043512Y-137533927D01*
G37*
G36*
X52183512Y-134993927D02*
G01*
X52332812Y-135023624D01*
X52496784Y-135091544D01*
X52644354Y-135190147D01*
X52769853Y-135315646D01*
X52868456Y-135463216D01*
X52936376Y-135627188D01*
X52971000Y-135801259D01*
X52971000Y-135978741D01*
X52936376Y-136152812D01*
X52868456Y-136316784D01*
X52769853Y-136464354D01*
X52644354Y-136589853D01*
X52496784Y-136688456D01*
X52332812Y-136756376D01*
X52183512Y-136786073D01*
X52158742Y-136791000D01*
X51981258Y-136791000D01*
X51956488Y-136786073D01*
X51807188Y-136756376D01*
X51643216Y-136688456D01*
X51495646Y-136589853D01*
X51370147Y-136464354D01*
X51271544Y-136316784D01*
X51203624Y-136152812D01*
X51169000Y-135978741D01*
X51169000Y-135801259D01*
X51203624Y-135627188D01*
X51271544Y-135463216D01*
X51370147Y-135315646D01*
X51495646Y-135190147D01*
X51643216Y-135091544D01*
X51807188Y-135023624D01*
X51956488Y-134993927D01*
X51981258Y-134989000D01*
X52158742Y-134989000D01*
X52183512Y-134993927D01*
G37*
G36*
X75043512Y-134993927D02*
G01*
X75192812Y-135023624D01*
X75356784Y-135091544D01*
X75504354Y-135190147D01*
X75629853Y-135315646D01*
X75728456Y-135463216D01*
X75796376Y-135627188D01*
X75831000Y-135801259D01*
X75831000Y-135978741D01*
X75796376Y-136152812D01*
X75728456Y-136316784D01*
X75629853Y-136464354D01*
X75504354Y-136589853D01*
X75356784Y-136688456D01*
X75192812Y-136756376D01*
X75043512Y-136786073D01*
X75018742Y-136791000D01*
X74841258Y-136791000D01*
X74816488Y-136786073D01*
X74667188Y-136756376D01*
X74503216Y-136688456D01*
X74355646Y-136589853D01*
X74230147Y-136464354D01*
X74131544Y-136316784D01*
X74063624Y-136152812D01*
X74029000Y-135978741D01*
X74029000Y-135801259D01*
X74063624Y-135627188D01*
X74131544Y-135463216D01*
X74230147Y-135315646D01*
X74355646Y-135190147D01*
X74503216Y-135091544D01*
X74667188Y-135023624D01*
X74816488Y-134993927D01*
X74841258Y-134989000D01*
X75018742Y-134989000D01*
X75043512Y-134993927D01*
G37*
G36*
X75043512Y-132453927D02*
G01*
X75192812Y-132483624D01*
X75356784Y-132551544D01*
X75504354Y-132650147D01*
X75629853Y-132775646D01*
X75728456Y-132923216D01*
X75796376Y-133087188D01*
X75831000Y-133261259D01*
X75831000Y-133438741D01*
X75796376Y-133612812D01*
X75728456Y-133776784D01*
X75629853Y-133924354D01*
X75504354Y-134049853D01*
X75356784Y-134148456D01*
X75192812Y-134216376D01*
X75043512Y-134246073D01*
X75018742Y-134251000D01*
X74841258Y-134251000D01*
X74816488Y-134246073D01*
X74667188Y-134216376D01*
X74503216Y-134148456D01*
X74355646Y-134049853D01*
X74230147Y-133924354D01*
X74131544Y-133776784D01*
X74063624Y-133612812D01*
X74029000Y-133438741D01*
X74029000Y-133261259D01*
X74063624Y-133087188D01*
X74131544Y-132923216D01*
X74230147Y-132775646D01*
X74355646Y-132650147D01*
X74503216Y-132551544D01*
X74667188Y-132483624D01*
X74816488Y-132453927D01*
X74841258Y-132449000D01*
X75018742Y-132449000D01*
X75043512Y-132453927D01*
G37*
G36*
X52183512Y-132453927D02*
G01*
X52332812Y-132483624D01*
X52496784Y-132551544D01*
X52644354Y-132650147D01*
X52769853Y-132775646D01*
X52868456Y-132923216D01*
X52936376Y-133087188D01*
X52971000Y-133261259D01*
X52971000Y-133438741D01*
X52936376Y-133612812D01*
X52868456Y-133776784D01*
X52769853Y-133924354D01*
X52644354Y-134049853D01*
X52496784Y-134148456D01*
X52332812Y-134216376D01*
X52183512Y-134246073D01*
X52158742Y-134251000D01*
X51981258Y-134251000D01*
X51956488Y-134246073D01*
X51807188Y-134216376D01*
X51643216Y-134148456D01*
X51495646Y-134049853D01*
X51370147Y-133924354D01*
X51271544Y-133776784D01*
X51203624Y-133612812D01*
X51169000Y-133438741D01*
X51169000Y-133261259D01*
X51203624Y-133087188D01*
X51271544Y-132923216D01*
X51370147Y-132775646D01*
X51495646Y-132650147D01*
X51643216Y-132551544D01*
X51807188Y-132483624D01*
X51956488Y-132453927D01*
X51981258Y-132449000D01*
X52158742Y-132449000D01*
X52183512Y-132453927D01*
G37*
G36*
X75831000Y-131711000D02*
G01*
X74029000Y-131711000D01*
X74029000Y-129909000D01*
X75831000Y-129909000D01*
X75831000Y-131711000D01*
G37*
G36*
X52971000Y-131711000D02*
G01*
X51169000Y-131711000D01*
X51169000Y-129909000D01*
X52971000Y-129909000D01*
X52971000Y-131711000D01*
G37*
G36*
X76550254Y-101850318D02*
G01*
X76923511Y-102004926D01*
X76923513Y-102004927D01*
X77066989Y-102100795D01*
X77259436Y-102229384D01*
X77545116Y-102515064D01*
X77769574Y-102850989D01*
X77924182Y-103224246D01*
X78003000Y-103620493D01*
X78003000Y-104024507D01*
X77924182Y-104420754D01*
X77769574Y-104794011D01*
X77769573Y-104794013D01*
X77545116Y-105129936D01*
X77259436Y-105415616D01*
X76923513Y-105640073D01*
X76923512Y-105640074D01*
X76923511Y-105640074D01*
X76550254Y-105794682D01*
X76154007Y-105873500D01*
X75749993Y-105873500D01*
X75353746Y-105794682D01*
X74980489Y-105640074D01*
X74980488Y-105640074D01*
X74980487Y-105640073D01*
X74644564Y-105415616D01*
X74358884Y-105129936D01*
X74134427Y-104794013D01*
X74134426Y-104794011D01*
X73979818Y-104420754D01*
X73901000Y-104024507D01*
X73901000Y-103620493D01*
X73979818Y-103224246D01*
X74134426Y-102850989D01*
X74358884Y-102515064D01*
X74644564Y-102229384D01*
X74837011Y-102100795D01*
X74980487Y-102004927D01*
X74980489Y-102004926D01*
X75353746Y-101850318D01*
X75749993Y-101771500D01*
X76154007Y-101771500D01*
X76550254Y-101850318D01*
G37*
G36*
X51550254Y-101850318D02*
G01*
X51923511Y-102004926D01*
X51923513Y-102004927D01*
X52066989Y-102100795D01*
X52259436Y-102229384D01*
X52545116Y-102515064D01*
X52769574Y-102850989D01*
X52924182Y-103224246D01*
X53003000Y-103620493D01*
X53003000Y-104024507D01*
X52924182Y-104420754D01*
X52769574Y-104794011D01*
X52769573Y-104794013D01*
X52545116Y-105129936D01*
X52259436Y-105415616D01*
X51923513Y-105640073D01*
X51923512Y-105640074D01*
X51923511Y-105640074D01*
X51550254Y-105794682D01*
X51154007Y-105873500D01*
X50749993Y-105873500D01*
X50353746Y-105794682D01*
X49980489Y-105640074D01*
X49980488Y-105640074D01*
X49980487Y-105640073D01*
X49644564Y-105415616D01*
X49358884Y-105129936D01*
X49134427Y-104794013D01*
X49134426Y-104794011D01*
X48979818Y-104420754D01*
X48901000Y-104024507D01*
X48901000Y-103620493D01*
X48979818Y-103224246D01*
X49134426Y-102850989D01*
X49358884Y-102515064D01*
X49644564Y-102229384D01*
X49837011Y-102100795D01*
X49980487Y-102004927D01*
X49980489Y-102004926D01*
X50353746Y-101850318D01*
X50749993Y-101771500D01*
X51154007Y-101771500D01*
X51550254Y-101850318D01*
G37*
G36*
X69240228Y-103304203D02*
G01*
X69395100Y-103368353D01*
X69534481Y-103461485D01*
X69653015Y-103580019D01*
X69746147Y-103719400D01*
X69810297Y-103874272D01*
X69843000Y-104038684D01*
X69843000Y-104206316D01*
X69810297Y-104370728D01*
X69746147Y-104525600D01*
X69653015Y-104664981D01*
X69534481Y-104783515D01*
X69395100Y-104876647D01*
X69240228Y-104940797D01*
X69075816Y-104973500D01*
X68908184Y-104973500D01*
X68743772Y-104940797D01*
X68588900Y-104876647D01*
X68449519Y-104783515D01*
X68330985Y-104664981D01*
X68237853Y-104525600D01*
X68173703Y-104370728D01*
X68141000Y-104206316D01*
X68141000Y-104038684D01*
X68173703Y-103874272D01*
X68237853Y-103719400D01*
X68330985Y-103580019D01*
X68449519Y-103461485D01*
X68588900Y-103368353D01*
X68743772Y-103304203D01*
X68908184Y-103271500D01*
X69075816Y-103271500D01*
X69240228Y-103304203D01*
G37*
G36*
X66470228Y-103304203D02*
G01*
X66625100Y-103368353D01*
X66764481Y-103461485D01*
X66883015Y-103580019D01*
X66976147Y-103719400D01*
X67040297Y-103874272D01*
X67073000Y-104038684D01*
X67073000Y-104206316D01*
X67040297Y-104370728D01*
X66976147Y-104525600D01*
X66883015Y-104664981D01*
X66764481Y-104783515D01*
X66625100Y-104876647D01*
X66470228Y-104940797D01*
X66305816Y-104973500D01*
X66138184Y-104973500D01*
X65973772Y-104940797D01*
X65818900Y-104876647D01*
X65679519Y-104783515D01*
X65560985Y-104664981D01*
X65467853Y-104525600D01*
X65403703Y-104370728D01*
X65371000Y-104206316D01*
X65371000Y-104038684D01*
X65403703Y-103874272D01*
X65467853Y-103719400D01*
X65560985Y-103580019D01*
X65679519Y-103461485D01*
X65818900Y-103368353D01*
X65973772Y-103304203D01*
X66138184Y-103271500D01*
X66305816Y-103271500D01*
X66470228Y-103304203D01*
G37*
G36*
X63700228Y-103304203D02*
G01*
X63855100Y-103368353D01*
X63994481Y-103461485D01*
X64113015Y-103580019D01*
X64206147Y-103719400D01*
X64270297Y-103874272D01*
X64303000Y-104038684D01*
X64303000Y-104206316D01*
X64270297Y-104370728D01*
X64206147Y-104525600D01*
X64113015Y-104664981D01*
X63994481Y-104783515D01*
X63855100Y-104876647D01*
X63700228Y-104940797D01*
X63535816Y-104973500D01*
X63368184Y-104973500D01*
X63203772Y-104940797D01*
X63048900Y-104876647D01*
X62909519Y-104783515D01*
X62790985Y-104664981D01*
X62697853Y-104525600D01*
X62633703Y-104370728D01*
X62601000Y-104206316D01*
X62601000Y-104038684D01*
X62633703Y-103874272D01*
X62697853Y-103719400D01*
X62790985Y-103580019D01*
X62909519Y-103461485D01*
X63048900Y-103368353D01*
X63203772Y-103304203D01*
X63368184Y-103271500D01*
X63535816Y-103271500D01*
X63700228Y-103304203D01*
G37*
G36*
X60930228Y-103304203D02*
G01*
X61085100Y-103368353D01*
X61224481Y-103461485D01*
X61343015Y-103580019D01*
X61436147Y-103719400D01*
X61500297Y-103874272D01*
X61533000Y-104038684D01*
X61533000Y-104206316D01*
X61500297Y-104370728D01*
X61436147Y-104525600D01*
X61343015Y-104664981D01*
X61224481Y-104783515D01*
X61085100Y-104876647D01*
X60930228Y-104940797D01*
X60765816Y-104973500D01*
X60598184Y-104973500D01*
X60433772Y-104940797D01*
X60278900Y-104876647D01*
X60139519Y-104783515D01*
X60020985Y-104664981D01*
X59927853Y-104525600D01*
X59863703Y-104370728D01*
X59831000Y-104206316D01*
X59831000Y-104038684D01*
X59863703Y-103874272D01*
X59927853Y-103719400D01*
X60020985Y-103580019D01*
X60139519Y-103461485D01*
X60278900Y-103368353D01*
X60433772Y-103304203D01*
X60598184Y-103271500D01*
X60765816Y-103271500D01*
X60930228Y-103304203D01*
G37*
G36*
X58763000Y-104973500D02*
G01*
X57061000Y-104973500D01*
X57061000Y-103271500D01*
X58763000Y-103271500D01*
X58763000Y-104973500D01*
G37*
G36*
X62315228Y-100464203D02*
G01*
X62470100Y-100528353D01*
X62609481Y-100621485D01*
X62728015Y-100740019D01*
X62821147Y-100879400D01*
X62885297Y-101034272D01*
X62918000Y-101198684D01*
X62918000Y-101366316D01*
X62885297Y-101530728D01*
X62821147Y-101685600D01*
X62728015Y-101824981D01*
X62609481Y-101943515D01*
X62470100Y-102036647D01*
X62315228Y-102100797D01*
X62150816Y-102133500D01*
X61983184Y-102133500D01*
X61818772Y-102100797D01*
X61663900Y-102036647D01*
X61524519Y-101943515D01*
X61405985Y-101824981D01*
X61312853Y-101685600D01*
X61248703Y-101530728D01*
X61216000Y-101366316D01*
X61216000Y-101198684D01*
X61248703Y-101034272D01*
X61312853Y-100879400D01*
X61405985Y-100740019D01*
X61524519Y-100621485D01*
X61663900Y-100528353D01*
X61818772Y-100464203D01*
X61983184Y-100431500D01*
X62150816Y-100431500D01*
X62315228Y-100464203D01*
G37*
G36*
X65085228Y-100464203D02*
G01*
X65240100Y-100528353D01*
X65379481Y-100621485D01*
X65498015Y-100740019D01*
X65591147Y-100879400D01*
X65655297Y-101034272D01*
X65688000Y-101198684D01*
X65688000Y-101366316D01*
X65655297Y-101530728D01*
X65591147Y-101685600D01*
X65498015Y-101824981D01*
X65379481Y-101943515D01*
X65240100Y-102036647D01*
X65085228Y-102100797D01*
X64920816Y-102133500D01*
X64753184Y-102133500D01*
X64588772Y-102100797D01*
X64433900Y-102036647D01*
X64294519Y-101943515D01*
X64175985Y-101824981D01*
X64082853Y-101685600D01*
X64018703Y-101530728D01*
X63986000Y-101366316D01*
X63986000Y-101198684D01*
X64018703Y-101034272D01*
X64082853Y-100879400D01*
X64175985Y-100740019D01*
X64294519Y-100621485D01*
X64433900Y-100528353D01*
X64588772Y-100464203D01*
X64753184Y-100431500D01*
X64920816Y-100431500D01*
X65085228Y-100464203D01*
G37*
G36*
X67855228Y-100464203D02*
G01*
X68010100Y-100528353D01*
X68149481Y-100621485D01*
X68268015Y-100740019D01*
X68361147Y-100879400D01*
X68425297Y-101034272D01*
X68458000Y-101198684D01*
X68458000Y-101366316D01*
X68425297Y-101530728D01*
X68361147Y-101685600D01*
X68268015Y-101824981D01*
X68149481Y-101943515D01*
X68010100Y-102036647D01*
X67855228Y-102100797D01*
X67690816Y-102133500D01*
X67523184Y-102133500D01*
X67358772Y-102100797D01*
X67203900Y-102036647D01*
X67064519Y-101943515D01*
X66945985Y-101824981D01*
X66852853Y-101685600D01*
X66788703Y-101530728D01*
X66756000Y-101366316D01*
X66756000Y-101198684D01*
X66788703Y-101034272D01*
X66852853Y-100879400D01*
X66945985Y-100740019D01*
X67064519Y-100621485D01*
X67203900Y-100528353D01*
X67358772Y-100464203D01*
X67523184Y-100431500D01*
X67690816Y-100431500D01*
X67855228Y-100464203D01*
G37*
G36*
X59545228Y-100464203D02*
G01*
X59700100Y-100528353D01*
X59839481Y-100621485D01*
X59958015Y-100740019D01*
X60051147Y-100879400D01*
X60115297Y-101034272D01*
X60148000Y-101198684D01*
X60148000Y-101366316D01*
X60115297Y-101530728D01*
X60051147Y-101685600D01*
X59958015Y-101824981D01*
X59839481Y-101943515D01*
X59700100Y-102036647D01*
X59545228Y-102100797D01*
X59380816Y-102133500D01*
X59213184Y-102133500D01*
X59048772Y-102100797D01*
X58893900Y-102036647D01*
X58754519Y-101943515D01*
X58635985Y-101824981D01*
X58542853Y-101685600D01*
X58478703Y-101530728D01*
X58446000Y-101366316D01*
X58446000Y-101198684D01*
X58478703Y-101034272D01*
X58542853Y-100879400D01*
X58635985Y-100740019D01*
X58754519Y-100621485D01*
X58893900Y-100528353D01*
X59048772Y-100464203D01*
X59213184Y-100431500D01*
X59380816Y-100431500D01*
X59545228Y-100464203D01*
G37*
M02*
