G04 #@! TF.GenerationSoftware,KiCad,Pcbnew,(5.1.5)-3*
G04 #@! TF.CreationDate,2020-04-27T13:04:48+02:00*
G04 #@! TF.ProjectId,RS232_click,52533233-325f-4636-9c69-636b2e6b6963,rev?*
G04 #@! TF.SameCoordinates,Original*
G04 #@! TF.FileFunction,Paste,Top*
G04 #@! TF.FilePolarity,Positive*
%FSLAX46Y46*%
G04 Gerber Fmt 4.6, Leading zero omitted, Abs format (unit mm)*
G04 Created by KiCad (PCBNEW (5.1.5)-3) date 2020-04-27 13:04:48*
%MOMM*%
%LPD*%
G04 APERTURE LIST*
%ADD10C,0.100000*%
G04 APERTURE END LIST*
D10*
G36*
X62830142Y-119697174D02*
G01*
X62853803Y-119700684D01*
X62877007Y-119706496D01*
X62899529Y-119714554D01*
X62921153Y-119724782D01*
X62941670Y-119737079D01*
X62960883Y-119751329D01*
X62978607Y-119767393D01*
X62994671Y-119785117D01*
X63008921Y-119804330D01*
X63021218Y-119824847D01*
X63031446Y-119846471D01*
X63039504Y-119868993D01*
X63045316Y-119892197D01*
X63048826Y-119915858D01*
X63050000Y-119939750D01*
X63050000Y-120852250D01*
X63048826Y-120876142D01*
X63045316Y-120899803D01*
X63039504Y-120923007D01*
X63031446Y-120945529D01*
X63021218Y-120967153D01*
X63008921Y-120987670D01*
X62994671Y-121006883D01*
X62978607Y-121024607D01*
X62960883Y-121040671D01*
X62941670Y-121054921D01*
X62921153Y-121067218D01*
X62899529Y-121077446D01*
X62877007Y-121085504D01*
X62853803Y-121091316D01*
X62830142Y-121094826D01*
X62806250Y-121096000D01*
X62318750Y-121096000D01*
X62294858Y-121094826D01*
X62271197Y-121091316D01*
X62247993Y-121085504D01*
X62225471Y-121077446D01*
X62203847Y-121067218D01*
X62183330Y-121054921D01*
X62164117Y-121040671D01*
X62146393Y-121024607D01*
X62130329Y-121006883D01*
X62116079Y-120987670D01*
X62103782Y-120967153D01*
X62093554Y-120945529D01*
X62085496Y-120923007D01*
X62079684Y-120899803D01*
X62076174Y-120876142D01*
X62075000Y-120852250D01*
X62075000Y-119939750D01*
X62076174Y-119915858D01*
X62079684Y-119892197D01*
X62085496Y-119868993D01*
X62093554Y-119846471D01*
X62103782Y-119824847D01*
X62116079Y-119804330D01*
X62130329Y-119785117D01*
X62146393Y-119767393D01*
X62164117Y-119751329D01*
X62183330Y-119737079D01*
X62203847Y-119724782D01*
X62225471Y-119714554D01*
X62247993Y-119706496D01*
X62271197Y-119700684D01*
X62294858Y-119697174D01*
X62318750Y-119696000D01*
X62806250Y-119696000D01*
X62830142Y-119697174D01*
G37*
G36*
X64705142Y-119697174D02*
G01*
X64728803Y-119700684D01*
X64752007Y-119706496D01*
X64774529Y-119714554D01*
X64796153Y-119724782D01*
X64816670Y-119737079D01*
X64835883Y-119751329D01*
X64853607Y-119767393D01*
X64869671Y-119785117D01*
X64883921Y-119804330D01*
X64896218Y-119824847D01*
X64906446Y-119846471D01*
X64914504Y-119868993D01*
X64920316Y-119892197D01*
X64923826Y-119915858D01*
X64925000Y-119939750D01*
X64925000Y-120852250D01*
X64923826Y-120876142D01*
X64920316Y-120899803D01*
X64914504Y-120923007D01*
X64906446Y-120945529D01*
X64896218Y-120967153D01*
X64883921Y-120987670D01*
X64869671Y-121006883D01*
X64853607Y-121024607D01*
X64835883Y-121040671D01*
X64816670Y-121054921D01*
X64796153Y-121067218D01*
X64774529Y-121077446D01*
X64752007Y-121085504D01*
X64728803Y-121091316D01*
X64705142Y-121094826D01*
X64681250Y-121096000D01*
X64193750Y-121096000D01*
X64169858Y-121094826D01*
X64146197Y-121091316D01*
X64122993Y-121085504D01*
X64100471Y-121077446D01*
X64078847Y-121067218D01*
X64058330Y-121054921D01*
X64039117Y-121040671D01*
X64021393Y-121024607D01*
X64005329Y-121006883D01*
X63991079Y-120987670D01*
X63978782Y-120967153D01*
X63968554Y-120945529D01*
X63960496Y-120923007D01*
X63954684Y-120899803D01*
X63951174Y-120876142D01*
X63950000Y-120852250D01*
X63950000Y-119939750D01*
X63951174Y-119915858D01*
X63954684Y-119892197D01*
X63960496Y-119868993D01*
X63968554Y-119846471D01*
X63978782Y-119824847D01*
X63991079Y-119804330D01*
X64005329Y-119785117D01*
X64021393Y-119767393D01*
X64039117Y-119751329D01*
X64058330Y-119737079D01*
X64078847Y-119724782D01*
X64100471Y-119714554D01*
X64122993Y-119706496D01*
X64146197Y-119700684D01*
X64169858Y-119697174D01*
X64193750Y-119696000D01*
X64681250Y-119696000D01*
X64705142Y-119697174D01*
G37*
G36*
X61849504Y-114269204D02*
G01*
X61873773Y-114272804D01*
X61897571Y-114278765D01*
X61920671Y-114287030D01*
X61942849Y-114297520D01*
X61963893Y-114310133D01*
X61983598Y-114324747D01*
X62001777Y-114341223D01*
X62018253Y-114359402D01*
X62032867Y-114379107D01*
X62045480Y-114400151D01*
X62055970Y-114422329D01*
X62064235Y-114445429D01*
X62070196Y-114469227D01*
X62073796Y-114493496D01*
X62075000Y-114518000D01*
X62075000Y-116368000D01*
X62073796Y-116392504D01*
X62070196Y-116416773D01*
X62064235Y-116440571D01*
X62055970Y-116463671D01*
X62045480Y-116485849D01*
X62032867Y-116506893D01*
X62018253Y-116526598D01*
X62001777Y-116544777D01*
X61983598Y-116561253D01*
X61963893Y-116575867D01*
X61942849Y-116588480D01*
X61920671Y-116598970D01*
X61897571Y-116607235D01*
X61873773Y-116613196D01*
X61849504Y-116616796D01*
X61825000Y-116618000D01*
X60250000Y-116618000D01*
X60225496Y-116616796D01*
X60201227Y-116613196D01*
X60177429Y-116607235D01*
X60154329Y-116598970D01*
X60132151Y-116588480D01*
X60111107Y-116575867D01*
X60091402Y-116561253D01*
X60073223Y-116544777D01*
X60056747Y-116526598D01*
X60042133Y-116506893D01*
X60029520Y-116485849D01*
X60019030Y-116463671D01*
X60010765Y-116440571D01*
X60004804Y-116416773D01*
X60001204Y-116392504D01*
X60000000Y-116368000D01*
X60000000Y-114518000D01*
X60001204Y-114493496D01*
X60004804Y-114469227D01*
X60010765Y-114445429D01*
X60019030Y-114422329D01*
X60029520Y-114400151D01*
X60042133Y-114379107D01*
X60056747Y-114359402D01*
X60073223Y-114341223D01*
X60091402Y-114324747D01*
X60111107Y-114310133D01*
X60132151Y-114297520D01*
X60154329Y-114287030D01*
X60177429Y-114278765D01*
X60201227Y-114272804D01*
X60225496Y-114269204D01*
X60250000Y-114268000D01*
X61825000Y-114268000D01*
X61849504Y-114269204D01*
G37*
G36*
X66774504Y-114269204D02*
G01*
X66798773Y-114272804D01*
X66822571Y-114278765D01*
X66845671Y-114287030D01*
X66867849Y-114297520D01*
X66888893Y-114310133D01*
X66908598Y-114324747D01*
X66926777Y-114341223D01*
X66943253Y-114359402D01*
X66957867Y-114379107D01*
X66970480Y-114400151D01*
X66980970Y-114422329D01*
X66989235Y-114445429D01*
X66995196Y-114469227D01*
X66998796Y-114493496D01*
X67000000Y-114518000D01*
X67000000Y-116368000D01*
X66998796Y-116392504D01*
X66995196Y-116416773D01*
X66989235Y-116440571D01*
X66980970Y-116463671D01*
X66970480Y-116485849D01*
X66957867Y-116506893D01*
X66943253Y-116526598D01*
X66926777Y-116544777D01*
X66908598Y-116561253D01*
X66888893Y-116575867D01*
X66867849Y-116588480D01*
X66845671Y-116598970D01*
X66822571Y-116607235D01*
X66798773Y-116613196D01*
X66774504Y-116616796D01*
X66750000Y-116618000D01*
X65175000Y-116618000D01*
X65150496Y-116616796D01*
X65126227Y-116613196D01*
X65102429Y-116607235D01*
X65079329Y-116598970D01*
X65057151Y-116588480D01*
X65036107Y-116575867D01*
X65016402Y-116561253D01*
X64998223Y-116544777D01*
X64981747Y-116526598D01*
X64967133Y-116506893D01*
X64954520Y-116485849D01*
X64944030Y-116463671D01*
X64935765Y-116440571D01*
X64929804Y-116416773D01*
X64926204Y-116392504D01*
X64925000Y-116368000D01*
X64925000Y-114518000D01*
X64926204Y-114493496D01*
X64929804Y-114469227D01*
X64935765Y-114445429D01*
X64944030Y-114422329D01*
X64954520Y-114400151D01*
X64967133Y-114379107D01*
X64981747Y-114359402D01*
X64998223Y-114341223D01*
X65016402Y-114324747D01*
X65036107Y-114310133D01*
X65057151Y-114297520D01*
X65079329Y-114287030D01*
X65102429Y-114278765D01*
X65126227Y-114272804D01*
X65150496Y-114269204D01*
X65175000Y-114268000D01*
X66750000Y-114268000D01*
X66774504Y-114269204D01*
G37*
G36*
X56480142Y-127571174D02*
G01*
X56503803Y-127574684D01*
X56527007Y-127580496D01*
X56549529Y-127588554D01*
X56571153Y-127598782D01*
X56591670Y-127611079D01*
X56610883Y-127625329D01*
X56628607Y-127641393D01*
X56644671Y-127659117D01*
X56658921Y-127678330D01*
X56671218Y-127698847D01*
X56681446Y-127720471D01*
X56689504Y-127742993D01*
X56695316Y-127766197D01*
X56698826Y-127789858D01*
X56700000Y-127813750D01*
X56700000Y-128726250D01*
X56698826Y-128750142D01*
X56695316Y-128773803D01*
X56689504Y-128797007D01*
X56681446Y-128819529D01*
X56671218Y-128841153D01*
X56658921Y-128861670D01*
X56644671Y-128880883D01*
X56628607Y-128898607D01*
X56610883Y-128914671D01*
X56591670Y-128928921D01*
X56571153Y-128941218D01*
X56549529Y-128951446D01*
X56527007Y-128959504D01*
X56503803Y-128965316D01*
X56480142Y-128968826D01*
X56456250Y-128970000D01*
X55968750Y-128970000D01*
X55944858Y-128968826D01*
X55921197Y-128965316D01*
X55897993Y-128959504D01*
X55875471Y-128951446D01*
X55853847Y-128941218D01*
X55833330Y-128928921D01*
X55814117Y-128914671D01*
X55796393Y-128898607D01*
X55780329Y-128880883D01*
X55766079Y-128861670D01*
X55753782Y-128841153D01*
X55743554Y-128819529D01*
X55735496Y-128797007D01*
X55729684Y-128773803D01*
X55726174Y-128750142D01*
X55725000Y-128726250D01*
X55725000Y-127813750D01*
X55726174Y-127789858D01*
X55729684Y-127766197D01*
X55735496Y-127742993D01*
X55743554Y-127720471D01*
X55753782Y-127698847D01*
X55766079Y-127678330D01*
X55780329Y-127659117D01*
X55796393Y-127641393D01*
X55814117Y-127625329D01*
X55833330Y-127611079D01*
X55853847Y-127598782D01*
X55875471Y-127588554D01*
X55897993Y-127580496D01*
X55921197Y-127574684D01*
X55944858Y-127571174D01*
X55968750Y-127570000D01*
X56456250Y-127570000D01*
X56480142Y-127571174D01*
G37*
G36*
X58355142Y-127571174D02*
G01*
X58378803Y-127574684D01*
X58402007Y-127580496D01*
X58424529Y-127588554D01*
X58446153Y-127598782D01*
X58466670Y-127611079D01*
X58485883Y-127625329D01*
X58503607Y-127641393D01*
X58519671Y-127659117D01*
X58533921Y-127678330D01*
X58546218Y-127698847D01*
X58556446Y-127720471D01*
X58564504Y-127742993D01*
X58570316Y-127766197D01*
X58573826Y-127789858D01*
X58575000Y-127813750D01*
X58575000Y-128726250D01*
X58573826Y-128750142D01*
X58570316Y-128773803D01*
X58564504Y-128797007D01*
X58556446Y-128819529D01*
X58546218Y-128841153D01*
X58533921Y-128861670D01*
X58519671Y-128880883D01*
X58503607Y-128898607D01*
X58485883Y-128914671D01*
X58466670Y-128928921D01*
X58446153Y-128941218D01*
X58424529Y-128951446D01*
X58402007Y-128959504D01*
X58378803Y-128965316D01*
X58355142Y-128968826D01*
X58331250Y-128970000D01*
X57843750Y-128970000D01*
X57819858Y-128968826D01*
X57796197Y-128965316D01*
X57772993Y-128959504D01*
X57750471Y-128951446D01*
X57728847Y-128941218D01*
X57708330Y-128928921D01*
X57689117Y-128914671D01*
X57671393Y-128898607D01*
X57655329Y-128880883D01*
X57641079Y-128861670D01*
X57628782Y-128841153D01*
X57618554Y-128819529D01*
X57610496Y-128797007D01*
X57604684Y-128773803D01*
X57601174Y-128750142D01*
X57600000Y-128726250D01*
X57600000Y-127813750D01*
X57601174Y-127789858D01*
X57604684Y-127766197D01*
X57610496Y-127742993D01*
X57618554Y-127720471D01*
X57628782Y-127698847D01*
X57641079Y-127678330D01*
X57655329Y-127659117D01*
X57671393Y-127641393D01*
X57689117Y-127625329D01*
X57708330Y-127611079D01*
X57728847Y-127598782D01*
X57750471Y-127588554D01*
X57772993Y-127580496D01*
X57796197Y-127574684D01*
X57819858Y-127571174D01*
X57843750Y-127570000D01*
X58331250Y-127570000D01*
X58355142Y-127571174D01*
G37*
G36*
X58355142Y-131381174D02*
G01*
X58378803Y-131384684D01*
X58402007Y-131390496D01*
X58424529Y-131398554D01*
X58446153Y-131408782D01*
X58466670Y-131421079D01*
X58485883Y-131435329D01*
X58503607Y-131451393D01*
X58519671Y-131469117D01*
X58533921Y-131488330D01*
X58546218Y-131508847D01*
X58556446Y-131530471D01*
X58564504Y-131552993D01*
X58570316Y-131576197D01*
X58573826Y-131599858D01*
X58575000Y-131623750D01*
X58575000Y-132536250D01*
X58573826Y-132560142D01*
X58570316Y-132583803D01*
X58564504Y-132607007D01*
X58556446Y-132629529D01*
X58546218Y-132651153D01*
X58533921Y-132671670D01*
X58519671Y-132690883D01*
X58503607Y-132708607D01*
X58485883Y-132724671D01*
X58466670Y-132738921D01*
X58446153Y-132751218D01*
X58424529Y-132761446D01*
X58402007Y-132769504D01*
X58378803Y-132775316D01*
X58355142Y-132778826D01*
X58331250Y-132780000D01*
X57843750Y-132780000D01*
X57819858Y-132778826D01*
X57796197Y-132775316D01*
X57772993Y-132769504D01*
X57750471Y-132761446D01*
X57728847Y-132751218D01*
X57708330Y-132738921D01*
X57689117Y-132724671D01*
X57671393Y-132708607D01*
X57655329Y-132690883D01*
X57641079Y-132671670D01*
X57628782Y-132651153D01*
X57618554Y-132629529D01*
X57610496Y-132607007D01*
X57604684Y-132583803D01*
X57601174Y-132560142D01*
X57600000Y-132536250D01*
X57600000Y-131623750D01*
X57601174Y-131599858D01*
X57604684Y-131576197D01*
X57610496Y-131552993D01*
X57618554Y-131530471D01*
X57628782Y-131508847D01*
X57641079Y-131488330D01*
X57655329Y-131469117D01*
X57671393Y-131451393D01*
X57689117Y-131435329D01*
X57708330Y-131421079D01*
X57728847Y-131408782D01*
X57750471Y-131398554D01*
X57772993Y-131390496D01*
X57796197Y-131384684D01*
X57819858Y-131381174D01*
X57843750Y-131380000D01*
X58331250Y-131380000D01*
X58355142Y-131381174D01*
G37*
G36*
X56480142Y-131381174D02*
G01*
X56503803Y-131384684D01*
X56527007Y-131390496D01*
X56549529Y-131398554D01*
X56571153Y-131408782D01*
X56591670Y-131421079D01*
X56610883Y-131435329D01*
X56628607Y-131451393D01*
X56644671Y-131469117D01*
X56658921Y-131488330D01*
X56671218Y-131508847D01*
X56681446Y-131530471D01*
X56689504Y-131552993D01*
X56695316Y-131576197D01*
X56698826Y-131599858D01*
X56700000Y-131623750D01*
X56700000Y-132536250D01*
X56698826Y-132560142D01*
X56695316Y-132583803D01*
X56689504Y-132607007D01*
X56681446Y-132629529D01*
X56671218Y-132651153D01*
X56658921Y-132671670D01*
X56644671Y-132690883D01*
X56628607Y-132708607D01*
X56610883Y-132724671D01*
X56591670Y-132738921D01*
X56571153Y-132751218D01*
X56549529Y-132761446D01*
X56527007Y-132769504D01*
X56503803Y-132775316D01*
X56480142Y-132778826D01*
X56456250Y-132780000D01*
X55968750Y-132780000D01*
X55944858Y-132778826D01*
X55921197Y-132775316D01*
X55897993Y-132769504D01*
X55875471Y-132761446D01*
X55853847Y-132751218D01*
X55833330Y-132738921D01*
X55814117Y-132724671D01*
X55796393Y-132708607D01*
X55780329Y-132690883D01*
X55766079Y-132671670D01*
X55753782Y-132651153D01*
X55743554Y-132629529D01*
X55735496Y-132607007D01*
X55729684Y-132583803D01*
X55726174Y-132560142D01*
X55725000Y-132536250D01*
X55725000Y-131623750D01*
X55726174Y-131599858D01*
X55729684Y-131576197D01*
X55735496Y-131552993D01*
X55743554Y-131530471D01*
X55753782Y-131508847D01*
X55766079Y-131488330D01*
X55780329Y-131469117D01*
X55796393Y-131451393D01*
X55814117Y-131435329D01*
X55833330Y-131421079D01*
X55853847Y-131408782D01*
X55875471Y-131398554D01*
X55897993Y-131390496D01*
X55921197Y-131384684D01*
X55944858Y-131381174D01*
X55968750Y-131380000D01*
X56456250Y-131380000D01*
X56480142Y-131381174D01*
G37*
G36*
X57242142Y-140271174D02*
G01*
X57265803Y-140274684D01*
X57289007Y-140280496D01*
X57311529Y-140288554D01*
X57333153Y-140298782D01*
X57353670Y-140311079D01*
X57372883Y-140325329D01*
X57390607Y-140341393D01*
X57406671Y-140359117D01*
X57420921Y-140378330D01*
X57433218Y-140398847D01*
X57443446Y-140420471D01*
X57451504Y-140442993D01*
X57457316Y-140466197D01*
X57460826Y-140489858D01*
X57462000Y-140513750D01*
X57462000Y-141426250D01*
X57460826Y-141450142D01*
X57457316Y-141473803D01*
X57451504Y-141497007D01*
X57443446Y-141519529D01*
X57433218Y-141541153D01*
X57420921Y-141561670D01*
X57406671Y-141580883D01*
X57390607Y-141598607D01*
X57372883Y-141614671D01*
X57353670Y-141628921D01*
X57333153Y-141641218D01*
X57311529Y-141651446D01*
X57289007Y-141659504D01*
X57265803Y-141665316D01*
X57242142Y-141668826D01*
X57218250Y-141670000D01*
X56730750Y-141670000D01*
X56706858Y-141668826D01*
X56683197Y-141665316D01*
X56659993Y-141659504D01*
X56637471Y-141651446D01*
X56615847Y-141641218D01*
X56595330Y-141628921D01*
X56576117Y-141614671D01*
X56558393Y-141598607D01*
X56542329Y-141580883D01*
X56528079Y-141561670D01*
X56515782Y-141541153D01*
X56505554Y-141519529D01*
X56497496Y-141497007D01*
X56491684Y-141473803D01*
X56488174Y-141450142D01*
X56487000Y-141426250D01*
X56487000Y-140513750D01*
X56488174Y-140489858D01*
X56491684Y-140466197D01*
X56497496Y-140442993D01*
X56505554Y-140420471D01*
X56515782Y-140398847D01*
X56528079Y-140378330D01*
X56542329Y-140359117D01*
X56558393Y-140341393D01*
X56576117Y-140325329D01*
X56595330Y-140311079D01*
X56615847Y-140298782D01*
X56637471Y-140288554D01*
X56659993Y-140280496D01*
X56683197Y-140274684D01*
X56706858Y-140271174D01*
X56730750Y-140270000D01*
X57218250Y-140270000D01*
X57242142Y-140271174D01*
G37*
G36*
X59117142Y-140271174D02*
G01*
X59140803Y-140274684D01*
X59164007Y-140280496D01*
X59186529Y-140288554D01*
X59208153Y-140298782D01*
X59228670Y-140311079D01*
X59247883Y-140325329D01*
X59265607Y-140341393D01*
X59281671Y-140359117D01*
X59295921Y-140378330D01*
X59308218Y-140398847D01*
X59318446Y-140420471D01*
X59326504Y-140442993D01*
X59332316Y-140466197D01*
X59335826Y-140489858D01*
X59337000Y-140513750D01*
X59337000Y-141426250D01*
X59335826Y-141450142D01*
X59332316Y-141473803D01*
X59326504Y-141497007D01*
X59318446Y-141519529D01*
X59308218Y-141541153D01*
X59295921Y-141561670D01*
X59281671Y-141580883D01*
X59265607Y-141598607D01*
X59247883Y-141614671D01*
X59228670Y-141628921D01*
X59208153Y-141641218D01*
X59186529Y-141651446D01*
X59164007Y-141659504D01*
X59140803Y-141665316D01*
X59117142Y-141668826D01*
X59093250Y-141670000D01*
X58605750Y-141670000D01*
X58581858Y-141668826D01*
X58558197Y-141665316D01*
X58534993Y-141659504D01*
X58512471Y-141651446D01*
X58490847Y-141641218D01*
X58470330Y-141628921D01*
X58451117Y-141614671D01*
X58433393Y-141598607D01*
X58417329Y-141580883D01*
X58403079Y-141561670D01*
X58390782Y-141541153D01*
X58380554Y-141519529D01*
X58372496Y-141497007D01*
X58366684Y-141473803D01*
X58363174Y-141450142D01*
X58362000Y-141426250D01*
X58362000Y-140513750D01*
X58363174Y-140489858D01*
X58366684Y-140466197D01*
X58372496Y-140442993D01*
X58380554Y-140420471D01*
X58390782Y-140398847D01*
X58403079Y-140378330D01*
X58417329Y-140359117D01*
X58433393Y-140341393D01*
X58451117Y-140325329D01*
X58470330Y-140311079D01*
X58490847Y-140298782D01*
X58512471Y-140288554D01*
X58534993Y-140280496D01*
X58558197Y-140274684D01*
X58581858Y-140271174D01*
X58605750Y-140270000D01*
X59093250Y-140270000D01*
X59117142Y-140271174D01*
G37*
G36*
X70293142Y-140271174D02*
G01*
X70316803Y-140274684D01*
X70340007Y-140280496D01*
X70362529Y-140288554D01*
X70384153Y-140298782D01*
X70404670Y-140311079D01*
X70423883Y-140325329D01*
X70441607Y-140341393D01*
X70457671Y-140359117D01*
X70471921Y-140378330D01*
X70484218Y-140398847D01*
X70494446Y-140420471D01*
X70502504Y-140442993D01*
X70508316Y-140466197D01*
X70511826Y-140489858D01*
X70513000Y-140513750D01*
X70513000Y-141426250D01*
X70511826Y-141450142D01*
X70508316Y-141473803D01*
X70502504Y-141497007D01*
X70494446Y-141519529D01*
X70484218Y-141541153D01*
X70471921Y-141561670D01*
X70457671Y-141580883D01*
X70441607Y-141598607D01*
X70423883Y-141614671D01*
X70404670Y-141628921D01*
X70384153Y-141641218D01*
X70362529Y-141651446D01*
X70340007Y-141659504D01*
X70316803Y-141665316D01*
X70293142Y-141668826D01*
X70269250Y-141670000D01*
X69781750Y-141670000D01*
X69757858Y-141668826D01*
X69734197Y-141665316D01*
X69710993Y-141659504D01*
X69688471Y-141651446D01*
X69666847Y-141641218D01*
X69646330Y-141628921D01*
X69627117Y-141614671D01*
X69609393Y-141598607D01*
X69593329Y-141580883D01*
X69579079Y-141561670D01*
X69566782Y-141541153D01*
X69556554Y-141519529D01*
X69548496Y-141497007D01*
X69542684Y-141473803D01*
X69539174Y-141450142D01*
X69538000Y-141426250D01*
X69538000Y-140513750D01*
X69539174Y-140489858D01*
X69542684Y-140466197D01*
X69548496Y-140442993D01*
X69556554Y-140420471D01*
X69566782Y-140398847D01*
X69579079Y-140378330D01*
X69593329Y-140359117D01*
X69609393Y-140341393D01*
X69627117Y-140325329D01*
X69646330Y-140311079D01*
X69666847Y-140298782D01*
X69688471Y-140288554D01*
X69710993Y-140280496D01*
X69734197Y-140274684D01*
X69757858Y-140271174D01*
X69781750Y-140270000D01*
X70269250Y-140270000D01*
X70293142Y-140271174D01*
G37*
G36*
X68418142Y-140271174D02*
G01*
X68441803Y-140274684D01*
X68465007Y-140280496D01*
X68487529Y-140288554D01*
X68509153Y-140298782D01*
X68529670Y-140311079D01*
X68548883Y-140325329D01*
X68566607Y-140341393D01*
X68582671Y-140359117D01*
X68596921Y-140378330D01*
X68609218Y-140398847D01*
X68619446Y-140420471D01*
X68627504Y-140442993D01*
X68633316Y-140466197D01*
X68636826Y-140489858D01*
X68638000Y-140513750D01*
X68638000Y-141426250D01*
X68636826Y-141450142D01*
X68633316Y-141473803D01*
X68627504Y-141497007D01*
X68619446Y-141519529D01*
X68609218Y-141541153D01*
X68596921Y-141561670D01*
X68582671Y-141580883D01*
X68566607Y-141598607D01*
X68548883Y-141614671D01*
X68529670Y-141628921D01*
X68509153Y-141641218D01*
X68487529Y-141651446D01*
X68465007Y-141659504D01*
X68441803Y-141665316D01*
X68418142Y-141668826D01*
X68394250Y-141670000D01*
X67906750Y-141670000D01*
X67882858Y-141668826D01*
X67859197Y-141665316D01*
X67835993Y-141659504D01*
X67813471Y-141651446D01*
X67791847Y-141641218D01*
X67771330Y-141628921D01*
X67752117Y-141614671D01*
X67734393Y-141598607D01*
X67718329Y-141580883D01*
X67704079Y-141561670D01*
X67691782Y-141541153D01*
X67681554Y-141519529D01*
X67673496Y-141497007D01*
X67667684Y-141473803D01*
X67664174Y-141450142D01*
X67663000Y-141426250D01*
X67663000Y-140513750D01*
X67664174Y-140489858D01*
X67667684Y-140466197D01*
X67673496Y-140442993D01*
X67681554Y-140420471D01*
X67691782Y-140398847D01*
X67704079Y-140378330D01*
X67718329Y-140359117D01*
X67734393Y-140341393D01*
X67752117Y-140325329D01*
X67771330Y-140311079D01*
X67791847Y-140298782D01*
X67813471Y-140288554D01*
X67835993Y-140280496D01*
X67859197Y-140274684D01*
X67882858Y-140271174D01*
X67906750Y-140270000D01*
X68394250Y-140270000D01*
X68418142Y-140271174D01*
G37*
G36*
X56518242Y-145351174D02*
G01*
X56541903Y-145354684D01*
X56565107Y-145360496D01*
X56587629Y-145368554D01*
X56609253Y-145378782D01*
X56629770Y-145391079D01*
X56648983Y-145405329D01*
X56666707Y-145421393D01*
X56682771Y-145439117D01*
X56697021Y-145458330D01*
X56709318Y-145478847D01*
X56719546Y-145500471D01*
X56727604Y-145522993D01*
X56733416Y-145546197D01*
X56736926Y-145569858D01*
X56738100Y-145593750D01*
X56738100Y-146506250D01*
X56736926Y-146530142D01*
X56733416Y-146553803D01*
X56727604Y-146577007D01*
X56719546Y-146599529D01*
X56709318Y-146621153D01*
X56697021Y-146641670D01*
X56682771Y-146660883D01*
X56666707Y-146678607D01*
X56648983Y-146694671D01*
X56629770Y-146708921D01*
X56609253Y-146721218D01*
X56587629Y-146731446D01*
X56565107Y-146739504D01*
X56541903Y-146745316D01*
X56518242Y-146748826D01*
X56494350Y-146750000D01*
X56006850Y-146750000D01*
X55982958Y-146748826D01*
X55959297Y-146745316D01*
X55936093Y-146739504D01*
X55913571Y-146731446D01*
X55891947Y-146721218D01*
X55871430Y-146708921D01*
X55852217Y-146694671D01*
X55834493Y-146678607D01*
X55818429Y-146660883D01*
X55804179Y-146641670D01*
X55791882Y-146621153D01*
X55781654Y-146599529D01*
X55773596Y-146577007D01*
X55767784Y-146553803D01*
X55764274Y-146530142D01*
X55763100Y-146506250D01*
X55763100Y-145593750D01*
X55764274Y-145569858D01*
X55767784Y-145546197D01*
X55773596Y-145522993D01*
X55781654Y-145500471D01*
X55791882Y-145478847D01*
X55804179Y-145458330D01*
X55818429Y-145439117D01*
X55834493Y-145421393D01*
X55852217Y-145405329D01*
X55871430Y-145391079D01*
X55891947Y-145378782D01*
X55913571Y-145368554D01*
X55936093Y-145360496D01*
X55959297Y-145354684D01*
X55982958Y-145351174D01*
X56006850Y-145350000D01*
X56494350Y-145350000D01*
X56518242Y-145351174D01*
G37*
G36*
X60260142Y-145351174D02*
G01*
X60283803Y-145354684D01*
X60307007Y-145360496D01*
X60329529Y-145368554D01*
X60351153Y-145378782D01*
X60371670Y-145391079D01*
X60390883Y-145405329D01*
X60408607Y-145421393D01*
X60424671Y-145439117D01*
X60438921Y-145458330D01*
X60451218Y-145478847D01*
X60461446Y-145500471D01*
X60469504Y-145522993D01*
X60475316Y-145546197D01*
X60478826Y-145569858D01*
X60480000Y-145593750D01*
X60480000Y-146506250D01*
X60478826Y-146530142D01*
X60475316Y-146553803D01*
X60469504Y-146577007D01*
X60461446Y-146599529D01*
X60451218Y-146621153D01*
X60438921Y-146641670D01*
X60424671Y-146660883D01*
X60408607Y-146678607D01*
X60390883Y-146694671D01*
X60371670Y-146708921D01*
X60351153Y-146721218D01*
X60329529Y-146731446D01*
X60307007Y-146739504D01*
X60283803Y-146745316D01*
X60260142Y-146748826D01*
X60236250Y-146750000D01*
X59748750Y-146750000D01*
X59724858Y-146748826D01*
X59701197Y-146745316D01*
X59677993Y-146739504D01*
X59655471Y-146731446D01*
X59633847Y-146721218D01*
X59613330Y-146708921D01*
X59594117Y-146694671D01*
X59576393Y-146678607D01*
X59560329Y-146660883D01*
X59546079Y-146641670D01*
X59533782Y-146621153D01*
X59523554Y-146599529D01*
X59515496Y-146577007D01*
X59509684Y-146553803D01*
X59506174Y-146530142D01*
X59505000Y-146506250D01*
X59505000Y-145593750D01*
X59506174Y-145569858D01*
X59509684Y-145546197D01*
X59515496Y-145522993D01*
X59523554Y-145500471D01*
X59533782Y-145478847D01*
X59546079Y-145458330D01*
X59560329Y-145439117D01*
X59576393Y-145421393D01*
X59594117Y-145405329D01*
X59613330Y-145391079D01*
X59633847Y-145378782D01*
X59655471Y-145368554D01*
X59677993Y-145360496D01*
X59701197Y-145354684D01*
X59724858Y-145351174D01*
X59748750Y-145350000D01*
X60236250Y-145350000D01*
X60260142Y-145351174D01*
G37*
G36*
X58385142Y-145351174D02*
G01*
X58408803Y-145354684D01*
X58432007Y-145360496D01*
X58454529Y-145368554D01*
X58476153Y-145378782D01*
X58496670Y-145391079D01*
X58515883Y-145405329D01*
X58533607Y-145421393D01*
X58549671Y-145439117D01*
X58563921Y-145458330D01*
X58576218Y-145478847D01*
X58586446Y-145500471D01*
X58594504Y-145522993D01*
X58600316Y-145546197D01*
X58603826Y-145569858D01*
X58605000Y-145593750D01*
X58605000Y-146506250D01*
X58603826Y-146530142D01*
X58600316Y-146553803D01*
X58594504Y-146577007D01*
X58586446Y-146599529D01*
X58576218Y-146621153D01*
X58563921Y-146641670D01*
X58549671Y-146660883D01*
X58533607Y-146678607D01*
X58515883Y-146694671D01*
X58496670Y-146708921D01*
X58476153Y-146721218D01*
X58454529Y-146731446D01*
X58432007Y-146739504D01*
X58408803Y-146745316D01*
X58385142Y-146748826D01*
X58361250Y-146750000D01*
X57873750Y-146750000D01*
X57849858Y-146748826D01*
X57826197Y-146745316D01*
X57802993Y-146739504D01*
X57780471Y-146731446D01*
X57758847Y-146721218D01*
X57738330Y-146708921D01*
X57719117Y-146694671D01*
X57701393Y-146678607D01*
X57685329Y-146660883D01*
X57671079Y-146641670D01*
X57658782Y-146621153D01*
X57648554Y-146599529D01*
X57640496Y-146577007D01*
X57634684Y-146553803D01*
X57631174Y-146530142D01*
X57630000Y-146506250D01*
X57630000Y-145593750D01*
X57631174Y-145569858D01*
X57634684Y-145546197D01*
X57640496Y-145522993D01*
X57648554Y-145500471D01*
X57658782Y-145478847D01*
X57671079Y-145458330D01*
X57685329Y-145439117D01*
X57701393Y-145421393D01*
X57719117Y-145405329D01*
X57738330Y-145391079D01*
X57758847Y-145378782D01*
X57780471Y-145368554D01*
X57802993Y-145360496D01*
X57826197Y-145354684D01*
X57849858Y-145351174D01*
X57873750Y-145350000D01*
X58361250Y-145350000D01*
X58385142Y-145351174D01*
G37*
G36*
X69785142Y-145351174D02*
G01*
X69808803Y-145354684D01*
X69832007Y-145360496D01*
X69854529Y-145368554D01*
X69876153Y-145378782D01*
X69896670Y-145391079D01*
X69915883Y-145405329D01*
X69933607Y-145421393D01*
X69949671Y-145439117D01*
X69963921Y-145458330D01*
X69976218Y-145478847D01*
X69986446Y-145500471D01*
X69994504Y-145522993D01*
X70000316Y-145546197D01*
X70003826Y-145569858D01*
X70005000Y-145593750D01*
X70005000Y-146506250D01*
X70003826Y-146530142D01*
X70000316Y-146553803D01*
X69994504Y-146577007D01*
X69986446Y-146599529D01*
X69976218Y-146621153D01*
X69963921Y-146641670D01*
X69949671Y-146660883D01*
X69933607Y-146678607D01*
X69915883Y-146694671D01*
X69896670Y-146708921D01*
X69876153Y-146721218D01*
X69854529Y-146731446D01*
X69832007Y-146739504D01*
X69808803Y-146745316D01*
X69785142Y-146748826D01*
X69761250Y-146750000D01*
X69273750Y-146750000D01*
X69249858Y-146748826D01*
X69226197Y-146745316D01*
X69202993Y-146739504D01*
X69180471Y-146731446D01*
X69158847Y-146721218D01*
X69138330Y-146708921D01*
X69119117Y-146694671D01*
X69101393Y-146678607D01*
X69085329Y-146660883D01*
X69071079Y-146641670D01*
X69058782Y-146621153D01*
X69048554Y-146599529D01*
X69040496Y-146577007D01*
X69034684Y-146553803D01*
X69031174Y-146530142D01*
X69030000Y-146506250D01*
X69030000Y-145593750D01*
X69031174Y-145569858D01*
X69034684Y-145546197D01*
X69040496Y-145522993D01*
X69048554Y-145500471D01*
X69058782Y-145478847D01*
X69071079Y-145458330D01*
X69085329Y-145439117D01*
X69101393Y-145421393D01*
X69119117Y-145405329D01*
X69138330Y-145391079D01*
X69158847Y-145378782D01*
X69180471Y-145368554D01*
X69202993Y-145360496D01*
X69226197Y-145354684D01*
X69249858Y-145351174D01*
X69273750Y-145350000D01*
X69761250Y-145350000D01*
X69785142Y-145351174D01*
G37*
G36*
X67910142Y-145351174D02*
G01*
X67933803Y-145354684D01*
X67957007Y-145360496D01*
X67979529Y-145368554D01*
X68001153Y-145378782D01*
X68021670Y-145391079D01*
X68040883Y-145405329D01*
X68058607Y-145421393D01*
X68074671Y-145439117D01*
X68088921Y-145458330D01*
X68101218Y-145478847D01*
X68111446Y-145500471D01*
X68119504Y-145522993D01*
X68125316Y-145546197D01*
X68128826Y-145569858D01*
X68130000Y-145593750D01*
X68130000Y-146506250D01*
X68128826Y-146530142D01*
X68125316Y-146553803D01*
X68119504Y-146577007D01*
X68111446Y-146599529D01*
X68101218Y-146621153D01*
X68088921Y-146641670D01*
X68074671Y-146660883D01*
X68058607Y-146678607D01*
X68040883Y-146694671D01*
X68021670Y-146708921D01*
X68001153Y-146721218D01*
X67979529Y-146731446D01*
X67957007Y-146739504D01*
X67933803Y-146745316D01*
X67910142Y-146748826D01*
X67886250Y-146750000D01*
X67398750Y-146750000D01*
X67374858Y-146748826D01*
X67351197Y-146745316D01*
X67327993Y-146739504D01*
X67305471Y-146731446D01*
X67283847Y-146721218D01*
X67263330Y-146708921D01*
X67244117Y-146694671D01*
X67226393Y-146678607D01*
X67210329Y-146660883D01*
X67196079Y-146641670D01*
X67183782Y-146621153D01*
X67173554Y-146599529D01*
X67165496Y-146577007D01*
X67159684Y-146553803D01*
X67156174Y-146530142D01*
X67155000Y-146506250D01*
X67155000Y-145593750D01*
X67156174Y-145569858D01*
X67159684Y-145546197D01*
X67165496Y-145522993D01*
X67173554Y-145500471D01*
X67183782Y-145478847D01*
X67196079Y-145458330D01*
X67210329Y-145439117D01*
X67226393Y-145421393D01*
X67244117Y-145405329D01*
X67263330Y-145391079D01*
X67283847Y-145378782D01*
X67305471Y-145368554D01*
X67327993Y-145360496D01*
X67351197Y-145354684D01*
X67374858Y-145351174D01*
X67398750Y-145350000D01*
X67886250Y-145350000D01*
X67910142Y-145351174D01*
G37*
G36*
X62830142Y-145351174D02*
G01*
X62853803Y-145354684D01*
X62877007Y-145360496D01*
X62899529Y-145368554D01*
X62921153Y-145378782D01*
X62941670Y-145391079D01*
X62960883Y-145405329D01*
X62978607Y-145421393D01*
X62994671Y-145439117D01*
X63008921Y-145458330D01*
X63021218Y-145478847D01*
X63031446Y-145500471D01*
X63039504Y-145522993D01*
X63045316Y-145546197D01*
X63048826Y-145569858D01*
X63050000Y-145593750D01*
X63050000Y-146506250D01*
X63048826Y-146530142D01*
X63045316Y-146553803D01*
X63039504Y-146577007D01*
X63031446Y-146599529D01*
X63021218Y-146621153D01*
X63008921Y-146641670D01*
X62994671Y-146660883D01*
X62978607Y-146678607D01*
X62960883Y-146694671D01*
X62941670Y-146708921D01*
X62921153Y-146721218D01*
X62899529Y-146731446D01*
X62877007Y-146739504D01*
X62853803Y-146745316D01*
X62830142Y-146748826D01*
X62806250Y-146750000D01*
X62318750Y-146750000D01*
X62294858Y-146748826D01*
X62271197Y-146745316D01*
X62247993Y-146739504D01*
X62225471Y-146731446D01*
X62203847Y-146721218D01*
X62183330Y-146708921D01*
X62164117Y-146694671D01*
X62146393Y-146678607D01*
X62130329Y-146660883D01*
X62116079Y-146641670D01*
X62103782Y-146621153D01*
X62093554Y-146599529D01*
X62085496Y-146577007D01*
X62079684Y-146553803D01*
X62076174Y-146530142D01*
X62075000Y-146506250D01*
X62075000Y-145593750D01*
X62076174Y-145569858D01*
X62079684Y-145546197D01*
X62085496Y-145522993D01*
X62093554Y-145500471D01*
X62103782Y-145478847D01*
X62116079Y-145458330D01*
X62130329Y-145439117D01*
X62146393Y-145421393D01*
X62164117Y-145405329D01*
X62183330Y-145391079D01*
X62203847Y-145378782D01*
X62225471Y-145368554D01*
X62247993Y-145360496D01*
X62271197Y-145354684D01*
X62294858Y-145351174D01*
X62318750Y-145350000D01*
X62806250Y-145350000D01*
X62830142Y-145351174D01*
G37*
G36*
X64705142Y-145351174D02*
G01*
X64728803Y-145354684D01*
X64752007Y-145360496D01*
X64774529Y-145368554D01*
X64796153Y-145378782D01*
X64816670Y-145391079D01*
X64835883Y-145405329D01*
X64853607Y-145421393D01*
X64869671Y-145439117D01*
X64883921Y-145458330D01*
X64896218Y-145478847D01*
X64906446Y-145500471D01*
X64914504Y-145522993D01*
X64920316Y-145546197D01*
X64923826Y-145569858D01*
X64925000Y-145593750D01*
X64925000Y-146506250D01*
X64923826Y-146530142D01*
X64920316Y-146553803D01*
X64914504Y-146577007D01*
X64906446Y-146599529D01*
X64896218Y-146621153D01*
X64883921Y-146641670D01*
X64869671Y-146660883D01*
X64853607Y-146678607D01*
X64835883Y-146694671D01*
X64816670Y-146708921D01*
X64796153Y-146721218D01*
X64774529Y-146731446D01*
X64752007Y-146739504D01*
X64728803Y-146745316D01*
X64705142Y-146748826D01*
X64681250Y-146750000D01*
X64193750Y-146750000D01*
X64169858Y-146748826D01*
X64146197Y-146745316D01*
X64122993Y-146739504D01*
X64100471Y-146731446D01*
X64078847Y-146721218D01*
X64058330Y-146708921D01*
X64039117Y-146694671D01*
X64021393Y-146678607D01*
X64005329Y-146660883D01*
X63991079Y-146641670D01*
X63978782Y-146621153D01*
X63968554Y-146599529D01*
X63960496Y-146577007D01*
X63954684Y-146553803D01*
X63951174Y-146530142D01*
X63950000Y-146506250D01*
X63950000Y-145593750D01*
X63951174Y-145569858D01*
X63954684Y-145546197D01*
X63960496Y-145522993D01*
X63968554Y-145500471D01*
X63978782Y-145478847D01*
X63991079Y-145458330D01*
X64005329Y-145439117D01*
X64021393Y-145421393D01*
X64039117Y-145405329D01*
X64058330Y-145391079D01*
X64078847Y-145378782D01*
X64100471Y-145368554D01*
X64122993Y-145360496D01*
X64146197Y-145354684D01*
X64169858Y-145351174D01*
X64193750Y-145350000D01*
X64681250Y-145350000D01*
X64705142Y-145351174D01*
G37*
G36*
X64705142Y-140271174D02*
G01*
X64728803Y-140274684D01*
X64752007Y-140280496D01*
X64774529Y-140288554D01*
X64796153Y-140298782D01*
X64816670Y-140311079D01*
X64835883Y-140325329D01*
X64853607Y-140341393D01*
X64869671Y-140359117D01*
X64883921Y-140378330D01*
X64896218Y-140398847D01*
X64906446Y-140420471D01*
X64914504Y-140442993D01*
X64920316Y-140466197D01*
X64923826Y-140489858D01*
X64925000Y-140513750D01*
X64925000Y-141426250D01*
X64923826Y-141450142D01*
X64920316Y-141473803D01*
X64914504Y-141497007D01*
X64906446Y-141519529D01*
X64896218Y-141541153D01*
X64883921Y-141561670D01*
X64869671Y-141580883D01*
X64853607Y-141598607D01*
X64835883Y-141614671D01*
X64816670Y-141628921D01*
X64796153Y-141641218D01*
X64774529Y-141651446D01*
X64752007Y-141659504D01*
X64728803Y-141665316D01*
X64705142Y-141668826D01*
X64681250Y-141670000D01*
X64193750Y-141670000D01*
X64169858Y-141668826D01*
X64146197Y-141665316D01*
X64122993Y-141659504D01*
X64100471Y-141651446D01*
X64078847Y-141641218D01*
X64058330Y-141628921D01*
X64039117Y-141614671D01*
X64021393Y-141598607D01*
X64005329Y-141580883D01*
X63991079Y-141561670D01*
X63978782Y-141541153D01*
X63968554Y-141519529D01*
X63960496Y-141497007D01*
X63954684Y-141473803D01*
X63951174Y-141450142D01*
X63950000Y-141426250D01*
X63950000Y-140513750D01*
X63951174Y-140489858D01*
X63954684Y-140466197D01*
X63960496Y-140442993D01*
X63968554Y-140420471D01*
X63978782Y-140398847D01*
X63991079Y-140378330D01*
X64005329Y-140359117D01*
X64021393Y-140341393D01*
X64039117Y-140325329D01*
X64058330Y-140311079D01*
X64078847Y-140298782D01*
X64100471Y-140288554D01*
X64122993Y-140280496D01*
X64146197Y-140274684D01*
X64169858Y-140271174D01*
X64193750Y-140270000D01*
X64681250Y-140270000D01*
X64705142Y-140271174D01*
G37*
G36*
X62830142Y-140271174D02*
G01*
X62853803Y-140274684D01*
X62877007Y-140280496D01*
X62899529Y-140288554D01*
X62921153Y-140298782D01*
X62941670Y-140311079D01*
X62960883Y-140325329D01*
X62978607Y-140341393D01*
X62994671Y-140359117D01*
X63008921Y-140378330D01*
X63021218Y-140398847D01*
X63031446Y-140420471D01*
X63039504Y-140442993D01*
X63045316Y-140466197D01*
X63048826Y-140489858D01*
X63050000Y-140513750D01*
X63050000Y-141426250D01*
X63048826Y-141450142D01*
X63045316Y-141473803D01*
X63039504Y-141497007D01*
X63031446Y-141519529D01*
X63021218Y-141541153D01*
X63008921Y-141561670D01*
X62994671Y-141580883D01*
X62978607Y-141598607D01*
X62960883Y-141614671D01*
X62941670Y-141628921D01*
X62921153Y-141641218D01*
X62899529Y-141651446D01*
X62877007Y-141659504D01*
X62853803Y-141665316D01*
X62830142Y-141668826D01*
X62806250Y-141670000D01*
X62318750Y-141670000D01*
X62294858Y-141668826D01*
X62271197Y-141665316D01*
X62247993Y-141659504D01*
X62225471Y-141651446D01*
X62203847Y-141641218D01*
X62183330Y-141628921D01*
X62164117Y-141614671D01*
X62146393Y-141598607D01*
X62130329Y-141580883D01*
X62116079Y-141561670D01*
X62103782Y-141541153D01*
X62093554Y-141519529D01*
X62085496Y-141497007D01*
X62079684Y-141473803D01*
X62076174Y-141450142D01*
X62075000Y-141426250D01*
X62075000Y-140513750D01*
X62076174Y-140489858D01*
X62079684Y-140466197D01*
X62085496Y-140442993D01*
X62093554Y-140420471D01*
X62103782Y-140398847D01*
X62116079Y-140378330D01*
X62130329Y-140359117D01*
X62146393Y-140341393D01*
X62164117Y-140325329D01*
X62183330Y-140311079D01*
X62203847Y-140298782D01*
X62225471Y-140288554D01*
X62247993Y-140280496D01*
X62271197Y-140274684D01*
X62294858Y-140271174D01*
X62318750Y-140270000D01*
X62806250Y-140270000D01*
X62830142Y-140271174D01*
G37*
G36*
X61864703Y-127335722D02*
G01*
X61879264Y-127337882D01*
X61893543Y-127341459D01*
X61907403Y-127346418D01*
X61920710Y-127352712D01*
X61933336Y-127360280D01*
X61945159Y-127369048D01*
X61956066Y-127378934D01*
X61965952Y-127389841D01*
X61974720Y-127401664D01*
X61982288Y-127414290D01*
X61988582Y-127427597D01*
X61993541Y-127441457D01*
X61997118Y-127455736D01*
X61999278Y-127470297D01*
X62000000Y-127485000D01*
X62000000Y-127785000D01*
X61999278Y-127799703D01*
X61997118Y-127814264D01*
X61993541Y-127828543D01*
X61988582Y-127842403D01*
X61982288Y-127855710D01*
X61974720Y-127868336D01*
X61965952Y-127880159D01*
X61956066Y-127891066D01*
X61945159Y-127900952D01*
X61933336Y-127909720D01*
X61920710Y-127917288D01*
X61907403Y-127923582D01*
X61893543Y-127928541D01*
X61879264Y-127932118D01*
X61864703Y-127934278D01*
X61850000Y-127935000D01*
X60200000Y-127935000D01*
X60185297Y-127934278D01*
X60170736Y-127932118D01*
X60156457Y-127928541D01*
X60142597Y-127923582D01*
X60129290Y-127917288D01*
X60116664Y-127909720D01*
X60104841Y-127900952D01*
X60093934Y-127891066D01*
X60084048Y-127880159D01*
X60075280Y-127868336D01*
X60067712Y-127855710D01*
X60061418Y-127842403D01*
X60056459Y-127828543D01*
X60052882Y-127814264D01*
X60050722Y-127799703D01*
X60050000Y-127785000D01*
X60050000Y-127485000D01*
X60050722Y-127470297D01*
X60052882Y-127455736D01*
X60056459Y-127441457D01*
X60061418Y-127427597D01*
X60067712Y-127414290D01*
X60075280Y-127401664D01*
X60084048Y-127389841D01*
X60093934Y-127378934D01*
X60104841Y-127369048D01*
X60116664Y-127360280D01*
X60129290Y-127352712D01*
X60142597Y-127346418D01*
X60156457Y-127341459D01*
X60170736Y-127337882D01*
X60185297Y-127335722D01*
X60200000Y-127335000D01*
X61850000Y-127335000D01*
X61864703Y-127335722D01*
G37*
G36*
X61864703Y-128605722D02*
G01*
X61879264Y-128607882D01*
X61893543Y-128611459D01*
X61907403Y-128616418D01*
X61920710Y-128622712D01*
X61933336Y-128630280D01*
X61945159Y-128639048D01*
X61956066Y-128648934D01*
X61965952Y-128659841D01*
X61974720Y-128671664D01*
X61982288Y-128684290D01*
X61988582Y-128697597D01*
X61993541Y-128711457D01*
X61997118Y-128725736D01*
X61999278Y-128740297D01*
X62000000Y-128755000D01*
X62000000Y-129055000D01*
X61999278Y-129069703D01*
X61997118Y-129084264D01*
X61993541Y-129098543D01*
X61988582Y-129112403D01*
X61982288Y-129125710D01*
X61974720Y-129138336D01*
X61965952Y-129150159D01*
X61956066Y-129161066D01*
X61945159Y-129170952D01*
X61933336Y-129179720D01*
X61920710Y-129187288D01*
X61907403Y-129193582D01*
X61893543Y-129198541D01*
X61879264Y-129202118D01*
X61864703Y-129204278D01*
X61850000Y-129205000D01*
X60200000Y-129205000D01*
X60185297Y-129204278D01*
X60170736Y-129202118D01*
X60156457Y-129198541D01*
X60142597Y-129193582D01*
X60129290Y-129187288D01*
X60116664Y-129179720D01*
X60104841Y-129170952D01*
X60093934Y-129161066D01*
X60084048Y-129150159D01*
X60075280Y-129138336D01*
X60067712Y-129125710D01*
X60061418Y-129112403D01*
X60056459Y-129098543D01*
X60052882Y-129084264D01*
X60050722Y-129069703D01*
X60050000Y-129055000D01*
X60050000Y-128755000D01*
X60050722Y-128740297D01*
X60052882Y-128725736D01*
X60056459Y-128711457D01*
X60061418Y-128697597D01*
X60067712Y-128684290D01*
X60075280Y-128671664D01*
X60084048Y-128659841D01*
X60093934Y-128648934D01*
X60104841Y-128639048D01*
X60116664Y-128630280D01*
X60129290Y-128622712D01*
X60142597Y-128616418D01*
X60156457Y-128611459D01*
X60170736Y-128607882D01*
X60185297Y-128605722D01*
X60200000Y-128605000D01*
X61850000Y-128605000D01*
X61864703Y-128605722D01*
G37*
G36*
X61864703Y-129875722D02*
G01*
X61879264Y-129877882D01*
X61893543Y-129881459D01*
X61907403Y-129886418D01*
X61920710Y-129892712D01*
X61933336Y-129900280D01*
X61945159Y-129909048D01*
X61956066Y-129918934D01*
X61965952Y-129929841D01*
X61974720Y-129941664D01*
X61982288Y-129954290D01*
X61988582Y-129967597D01*
X61993541Y-129981457D01*
X61997118Y-129995736D01*
X61999278Y-130010297D01*
X62000000Y-130025000D01*
X62000000Y-130325000D01*
X61999278Y-130339703D01*
X61997118Y-130354264D01*
X61993541Y-130368543D01*
X61988582Y-130382403D01*
X61982288Y-130395710D01*
X61974720Y-130408336D01*
X61965952Y-130420159D01*
X61956066Y-130431066D01*
X61945159Y-130440952D01*
X61933336Y-130449720D01*
X61920710Y-130457288D01*
X61907403Y-130463582D01*
X61893543Y-130468541D01*
X61879264Y-130472118D01*
X61864703Y-130474278D01*
X61850000Y-130475000D01*
X60200000Y-130475000D01*
X60185297Y-130474278D01*
X60170736Y-130472118D01*
X60156457Y-130468541D01*
X60142597Y-130463582D01*
X60129290Y-130457288D01*
X60116664Y-130449720D01*
X60104841Y-130440952D01*
X60093934Y-130431066D01*
X60084048Y-130420159D01*
X60075280Y-130408336D01*
X60067712Y-130395710D01*
X60061418Y-130382403D01*
X60056459Y-130368543D01*
X60052882Y-130354264D01*
X60050722Y-130339703D01*
X60050000Y-130325000D01*
X60050000Y-130025000D01*
X60050722Y-130010297D01*
X60052882Y-129995736D01*
X60056459Y-129981457D01*
X60061418Y-129967597D01*
X60067712Y-129954290D01*
X60075280Y-129941664D01*
X60084048Y-129929841D01*
X60093934Y-129918934D01*
X60104841Y-129909048D01*
X60116664Y-129900280D01*
X60129290Y-129892712D01*
X60142597Y-129886418D01*
X60156457Y-129881459D01*
X60170736Y-129877882D01*
X60185297Y-129875722D01*
X60200000Y-129875000D01*
X61850000Y-129875000D01*
X61864703Y-129875722D01*
G37*
G36*
X61864703Y-131145722D02*
G01*
X61879264Y-131147882D01*
X61893543Y-131151459D01*
X61907403Y-131156418D01*
X61920710Y-131162712D01*
X61933336Y-131170280D01*
X61945159Y-131179048D01*
X61956066Y-131188934D01*
X61965952Y-131199841D01*
X61974720Y-131211664D01*
X61982288Y-131224290D01*
X61988582Y-131237597D01*
X61993541Y-131251457D01*
X61997118Y-131265736D01*
X61999278Y-131280297D01*
X62000000Y-131295000D01*
X62000000Y-131595000D01*
X61999278Y-131609703D01*
X61997118Y-131624264D01*
X61993541Y-131638543D01*
X61988582Y-131652403D01*
X61982288Y-131665710D01*
X61974720Y-131678336D01*
X61965952Y-131690159D01*
X61956066Y-131701066D01*
X61945159Y-131710952D01*
X61933336Y-131719720D01*
X61920710Y-131727288D01*
X61907403Y-131733582D01*
X61893543Y-131738541D01*
X61879264Y-131742118D01*
X61864703Y-131744278D01*
X61850000Y-131745000D01*
X60200000Y-131745000D01*
X60185297Y-131744278D01*
X60170736Y-131742118D01*
X60156457Y-131738541D01*
X60142597Y-131733582D01*
X60129290Y-131727288D01*
X60116664Y-131719720D01*
X60104841Y-131710952D01*
X60093934Y-131701066D01*
X60084048Y-131690159D01*
X60075280Y-131678336D01*
X60067712Y-131665710D01*
X60061418Y-131652403D01*
X60056459Y-131638543D01*
X60052882Y-131624264D01*
X60050722Y-131609703D01*
X60050000Y-131595000D01*
X60050000Y-131295000D01*
X60050722Y-131280297D01*
X60052882Y-131265736D01*
X60056459Y-131251457D01*
X60061418Y-131237597D01*
X60067712Y-131224290D01*
X60075280Y-131211664D01*
X60084048Y-131199841D01*
X60093934Y-131188934D01*
X60104841Y-131179048D01*
X60116664Y-131170280D01*
X60129290Y-131162712D01*
X60142597Y-131156418D01*
X60156457Y-131151459D01*
X60170736Y-131147882D01*
X60185297Y-131145722D01*
X60200000Y-131145000D01*
X61850000Y-131145000D01*
X61864703Y-131145722D01*
G37*
G36*
X61864703Y-132415722D02*
G01*
X61879264Y-132417882D01*
X61893543Y-132421459D01*
X61907403Y-132426418D01*
X61920710Y-132432712D01*
X61933336Y-132440280D01*
X61945159Y-132449048D01*
X61956066Y-132458934D01*
X61965952Y-132469841D01*
X61974720Y-132481664D01*
X61982288Y-132494290D01*
X61988582Y-132507597D01*
X61993541Y-132521457D01*
X61997118Y-132535736D01*
X61999278Y-132550297D01*
X62000000Y-132565000D01*
X62000000Y-132865000D01*
X61999278Y-132879703D01*
X61997118Y-132894264D01*
X61993541Y-132908543D01*
X61988582Y-132922403D01*
X61982288Y-132935710D01*
X61974720Y-132948336D01*
X61965952Y-132960159D01*
X61956066Y-132971066D01*
X61945159Y-132980952D01*
X61933336Y-132989720D01*
X61920710Y-132997288D01*
X61907403Y-133003582D01*
X61893543Y-133008541D01*
X61879264Y-133012118D01*
X61864703Y-133014278D01*
X61850000Y-133015000D01*
X60200000Y-133015000D01*
X60185297Y-133014278D01*
X60170736Y-133012118D01*
X60156457Y-133008541D01*
X60142597Y-133003582D01*
X60129290Y-132997288D01*
X60116664Y-132989720D01*
X60104841Y-132980952D01*
X60093934Y-132971066D01*
X60084048Y-132960159D01*
X60075280Y-132948336D01*
X60067712Y-132935710D01*
X60061418Y-132922403D01*
X60056459Y-132908543D01*
X60052882Y-132894264D01*
X60050722Y-132879703D01*
X60050000Y-132865000D01*
X60050000Y-132565000D01*
X60050722Y-132550297D01*
X60052882Y-132535736D01*
X60056459Y-132521457D01*
X60061418Y-132507597D01*
X60067712Y-132494290D01*
X60075280Y-132481664D01*
X60084048Y-132469841D01*
X60093934Y-132458934D01*
X60104841Y-132449048D01*
X60116664Y-132440280D01*
X60129290Y-132432712D01*
X60142597Y-132426418D01*
X60156457Y-132421459D01*
X60170736Y-132417882D01*
X60185297Y-132415722D01*
X60200000Y-132415000D01*
X61850000Y-132415000D01*
X61864703Y-132415722D01*
G37*
G36*
X61864703Y-133685722D02*
G01*
X61879264Y-133687882D01*
X61893543Y-133691459D01*
X61907403Y-133696418D01*
X61920710Y-133702712D01*
X61933336Y-133710280D01*
X61945159Y-133719048D01*
X61956066Y-133728934D01*
X61965952Y-133739841D01*
X61974720Y-133751664D01*
X61982288Y-133764290D01*
X61988582Y-133777597D01*
X61993541Y-133791457D01*
X61997118Y-133805736D01*
X61999278Y-133820297D01*
X62000000Y-133835000D01*
X62000000Y-134135000D01*
X61999278Y-134149703D01*
X61997118Y-134164264D01*
X61993541Y-134178543D01*
X61988582Y-134192403D01*
X61982288Y-134205710D01*
X61974720Y-134218336D01*
X61965952Y-134230159D01*
X61956066Y-134241066D01*
X61945159Y-134250952D01*
X61933336Y-134259720D01*
X61920710Y-134267288D01*
X61907403Y-134273582D01*
X61893543Y-134278541D01*
X61879264Y-134282118D01*
X61864703Y-134284278D01*
X61850000Y-134285000D01*
X60200000Y-134285000D01*
X60185297Y-134284278D01*
X60170736Y-134282118D01*
X60156457Y-134278541D01*
X60142597Y-134273582D01*
X60129290Y-134267288D01*
X60116664Y-134259720D01*
X60104841Y-134250952D01*
X60093934Y-134241066D01*
X60084048Y-134230159D01*
X60075280Y-134218336D01*
X60067712Y-134205710D01*
X60061418Y-134192403D01*
X60056459Y-134178543D01*
X60052882Y-134164264D01*
X60050722Y-134149703D01*
X60050000Y-134135000D01*
X60050000Y-133835000D01*
X60050722Y-133820297D01*
X60052882Y-133805736D01*
X60056459Y-133791457D01*
X60061418Y-133777597D01*
X60067712Y-133764290D01*
X60075280Y-133751664D01*
X60084048Y-133739841D01*
X60093934Y-133728934D01*
X60104841Y-133719048D01*
X60116664Y-133710280D01*
X60129290Y-133702712D01*
X60142597Y-133696418D01*
X60156457Y-133691459D01*
X60170736Y-133687882D01*
X60185297Y-133685722D01*
X60200000Y-133685000D01*
X61850000Y-133685000D01*
X61864703Y-133685722D01*
G37*
G36*
X61864703Y-134955722D02*
G01*
X61879264Y-134957882D01*
X61893543Y-134961459D01*
X61907403Y-134966418D01*
X61920710Y-134972712D01*
X61933336Y-134980280D01*
X61945159Y-134989048D01*
X61956066Y-134998934D01*
X61965952Y-135009841D01*
X61974720Y-135021664D01*
X61982288Y-135034290D01*
X61988582Y-135047597D01*
X61993541Y-135061457D01*
X61997118Y-135075736D01*
X61999278Y-135090297D01*
X62000000Y-135105000D01*
X62000000Y-135405000D01*
X61999278Y-135419703D01*
X61997118Y-135434264D01*
X61993541Y-135448543D01*
X61988582Y-135462403D01*
X61982288Y-135475710D01*
X61974720Y-135488336D01*
X61965952Y-135500159D01*
X61956066Y-135511066D01*
X61945159Y-135520952D01*
X61933336Y-135529720D01*
X61920710Y-135537288D01*
X61907403Y-135543582D01*
X61893543Y-135548541D01*
X61879264Y-135552118D01*
X61864703Y-135554278D01*
X61850000Y-135555000D01*
X60200000Y-135555000D01*
X60185297Y-135554278D01*
X60170736Y-135552118D01*
X60156457Y-135548541D01*
X60142597Y-135543582D01*
X60129290Y-135537288D01*
X60116664Y-135529720D01*
X60104841Y-135520952D01*
X60093934Y-135511066D01*
X60084048Y-135500159D01*
X60075280Y-135488336D01*
X60067712Y-135475710D01*
X60061418Y-135462403D01*
X60056459Y-135448543D01*
X60052882Y-135434264D01*
X60050722Y-135419703D01*
X60050000Y-135405000D01*
X60050000Y-135105000D01*
X60050722Y-135090297D01*
X60052882Y-135075736D01*
X60056459Y-135061457D01*
X60061418Y-135047597D01*
X60067712Y-135034290D01*
X60075280Y-135021664D01*
X60084048Y-135009841D01*
X60093934Y-134998934D01*
X60104841Y-134989048D01*
X60116664Y-134980280D01*
X60129290Y-134972712D01*
X60142597Y-134966418D01*
X60156457Y-134961459D01*
X60170736Y-134957882D01*
X60185297Y-134955722D01*
X60200000Y-134955000D01*
X61850000Y-134955000D01*
X61864703Y-134955722D01*
G37*
G36*
X61864703Y-136225722D02*
G01*
X61879264Y-136227882D01*
X61893543Y-136231459D01*
X61907403Y-136236418D01*
X61920710Y-136242712D01*
X61933336Y-136250280D01*
X61945159Y-136259048D01*
X61956066Y-136268934D01*
X61965952Y-136279841D01*
X61974720Y-136291664D01*
X61982288Y-136304290D01*
X61988582Y-136317597D01*
X61993541Y-136331457D01*
X61997118Y-136345736D01*
X61999278Y-136360297D01*
X62000000Y-136375000D01*
X62000000Y-136675000D01*
X61999278Y-136689703D01*
X61997118Y-136704264D01*
X61993541Y-136718543D01*
X61988582Y-136732403D01*
X61982288Y-136745710D01*
X61974720Y-136758336D01*
X61965952Y-136770159D01*
X61956066Y-136781066D01*
X61945159Y-136790952D01*
X61933336Y-136799720D01*
X61920710Y-136807288D01*
X61907403Y-136813582D01*
X61893543Y-136818541D01*
X61879264Y-136822118D01*
X61864703Y-136824278D01*
X61850000Y-136825000D01*
X60200000Y-136825000D01*
X60185297Y-136824278D01*
X60170736Y-136822118D01*
X60156457Y-136818541D01*
X60142597Y-136813582D01*
X60129290Y-136807288D01*
X60116664Y-136799720D01*
X60104841Y-136790952D01*
X60093934Y-136781066D01*
X60084048Y-136770159D01*
X60075280Y-136758336D01*
X60067712Y-136745710D01*
X60061418Y-136732403D01*
X60056459Y-136718543D01*
X60052882Y-136704264D01*
X60050722Y-136689703D01*
X60050000Y-136675000D01*
X60050000Y-136375000D01*
X60050722Y-136360297D01*
X60052882Y-136345736D01*
X60056459Y-136331457D01*
X60061418Y-136317597D01*
X60067712Y-136304290D01*
X60075280Y-136291664D01*
X60084048Y-136279841D01*
X60093934Y-136268934D01*
X60104841Y-136259048D01*
X60116664Y-136250280D01*
X60129290Y-136242712D01*
X60142597Y-136236418D01*
X60156457Y-136231459D01*
X60170736Y-136227882D01*
X60185297Y-136225722D01*
X60200000Y-136225000D01*
X61850000Y-136225000D01*
X61864703Y-136225722D01*
G37*
G36*
X66814703Y-136225722D02*
G01*
X66829264Y-136227882D01*
X66843543Y-136231459D01*
X66857403Y-136236418D01*
X66870710Y-136242712D01*
X66883336Y-136250280D01*
X66895159Y-136259048D01*
X66906066Y-136268934D01*
X66915952Y-136279841D01*
X66924720Y-136291664D01*
X66932288Y-136304290D01*
X66938582Y-136317597D01*
X66943541Y-136331457D01*
X66947118Y-136345736D01*
X66949278Y-136360297D01*
X66950000Y-136375000D01*
X66950000Y-136675000D01*
X66949278Y-136689703D01*
X66947118Y-136704264D01*
X66943541Y-136718543D01*
X66938582Y-136732403D01*
X66932288Y-136745710D01*
X66924720Y-136758336D01*
X66915952Y-136770159D01*
X66906066Y-136781066D01*
X66895159Y-136790952D01*
X66883336Y-136799720D01*
X66870710Y-136807288D01*
X66857403Y-136813582D01*
X66843543Y-136818541D01*
X66829264Y-136822118D01*
X66814703Y-136824278D01*
X66800000Y-136825000D01*
X65150000Y-136825000D01*
X65135297Y-136824278D01*
X65120736Y-136822118D01*
X65106457Y-136818541D01*
X65092597Y-136813582D01*
X65079290Y-136807288D01*
X65066664Y-136799720D01*
X65054841Y-136790952D01*
X65043934Y-136781066D01*
X65034048Y-136770159D01*
X65025280Y-136758336D01*
X65017712Y-136745710D01*
X65011418Y-136732403D01*
X65006459Y-136718543D01*
X65002882Y-136704264D01*
X65000722Y-136689703D01*
X65000000Y-136675000D01*
X65000000Y-136375000D01*
X65000722Y-136360297D01*
X65002882Y-136345736D01*
X65006459Y-136331457D01*
X65011418Y-136317597D01*
X65017712Y-136304290D01*
X65025280Y-136291664D01*
X65034048Y-136279841D01*
X65043934Y-136268934D01*
X65054841Y-136259048D01*
X65066664Y-136250280D01*
X65079290Y-136242712D01*
X65092597Y-136236418D01*
X65106457Y-136231459D01*
X65120736Y-136227882D01*
X65135297Y-136225722D01*
X65150000Y-136225000D01*
X66800000Y-136225000D01*
X66814703Y-136225722D01*
G37*
G36*
X66814703Y-134955722D02*
G01*
X66829264Y-134957882D01*
X66843543Y-134961459D01*
X66857403Y-134966418D01*
X66870710Y-134972712D01*
X66883336Y-134980280D01*
X66895159Y-134989048D01*
X66906066Y-134998934D01*
X66915952Y-135009841D01*
X66924720Y-135021664D01*
X66932288Y-135034290D01*
X66938582Y-135047597D01*
X66943541Y-135061457D01*
X66947118Y-135075736D01*
X66949278Y-135090297D01*
X66950000Y-135105000D01*
X66950000Y-135405000D01*
X66949278Y-135419703D01*
X66947118Y-135434264D01*
X66943541Y-135448543D01*
X66938582Y-135462403D01*
X66932288Y-135475710D01*
X66924720Y-135488336D01*
X66915952Y-135500159D01*
X66906066Y-135511066D01*
X66895159Y-135520952D01*
X66883336Y-135529720D01*
X66870710Y-135537288D01*
X66857403Y-135543582D01*
X66843543Y-135548541D01*
X66829264Y-135552118D01*
X66814703Y-135554278D01*
X66800000Y-135555000D01*
X65150000Y-135555000D01*
X65135297Y-135554278D01*
X65120736Y-135552118D01*
X65106457Y-135548541D01*
X65092597Y-135543582D01*
X65079290Y-135537288D01*
X65066664Y-135529720D01*
X65054841Y-135520952D01*
X65043934Y-135511066D01*
X65034048Y-135500159D01*
X65025280Y-135488336D01*
X65017712Y-135475710D01*
X65011418Y-135462403D01*
X65006459Y-135448543D01*
X65002882Y-135434264D01*
X65000722Y-135419703D01*
X65000000Y-135405000D01*
X65000000Y-135105000D01*
X65000722Y-135090297D01*
X65002882Y-135075736D01*
X65006459Y-135061457D01*
X65011418Y-135047597D01*
X65017712Y-135034290D01*
X65025280Y-135021664D01*
X65034048Y-135009841D01*
X65043934Y-134998934D01*
X65054841Y-134989048D01*
X65066664Y-134980280D01*
X65079290Y-134972712D01*
X65092597Y-134966418D01*
X65106457Y-134961459D01*
X65120736Y-134957882D01*
X65135297Y-134955722D01*
X65150000Y-134955000D01*
X66800000Y-134955000D01*
X66814703Y-134955722D01*
G37*
G36*
X66814703Y-133685722D02*
G01*
X66829264Y-133687882D01*
X66843543Y-133691459D01*
X66857403Y-133696418D01*
X66870710Y-133702712D01*
X66883336Y-133710280D01*
X66895159Y-133719048D01*
X66906066Y-133728934D01*
X66915952Y-133739841D01*
X66924720Y-133751664D01*
X66932288Y-133764290D01*
X66938582Y-133777597D01*
X66943541Y-133791457D01*
X66947118Y-133805736D01*
X66949278Y-133820297D01*
X66950000Y-133835000D01*
X66950000Y-134135000D01*
X66949278Y-134149703D01*
X66947118Y-134164264D01*
X66943541Y-134178543D01*
X66938582Y-134192403D01*
X66932288Y-134205710D01*
X66924720Y-134218336D01*
X66915952Y-134230159D01*
X66906066Y-134241066D01*
X66895159Y-134250952D01*
X66883336Y-134259720D01*
X66870710Y-134267288D01*
X66857403Y-134273582D01*
X66843543Y-134278541D01*
X66829264Y-134282118D01*
X66814703Y-134284278D01*
X66800000Y-134285000D01*
X65150000Y-134285000D01*
X65135297Y-134284278D01*
X65120736Y-134282118D01*
X65106457Y-134278541D01*
X65092597Y-134273582D01*
X65079290Y-134267288D01*
X65066664Y-134259720D01*
X65054841Y-134250952D01*
X65043934Y-134241066D01*
X65034048Y-134230159D01*
X65025280Y-134218336D01*
X65017712Y-134205710D01*
X65011418Y-134192403D01*
X65006459Y-134178543D01*
X65002882Y-134164264D01*
X65000722Y-134149703D01*
X65000000Y-134135000D01*
X65000000Y-133835000D01*
X65000722Y-133820297D01*
X65002882Y-133805736D01*
X65006459Y-133791457D01*
X65011418Y-133777597D01*
X65017712Y-133764290D01*
X65025280Y-133751664D01*
X65034048Y-133739841D01*
X65043934Y-133728934D01*
X65054841Y-133719048D01*
X65066664Y-133710280D01*
X65079290Y-133702712D01*
X65092597Y-133696418D01*
X65106457Y-133691459D01*
X65120736Y-133687882D01*
X65135297Y-133685722D01*
X65150000Y-133685000D01*
X66800000Y-133685000D01*
X66814703Y-133685722D01*
G37*
G36*
X66814703Y-132415722D02*
G01*
X66829264Y-132417882D01*
X66843543Y-132421459D01*
X66857403Y-132426418D01*
X66870710Y-132432712D01*
X66883336Y-132440280D01*
X66895159Y-132449048D01*
X66906066Y-132458934D01*
X66915952Y-132469841D01*
X66924720Y-132481664D01*
X66932288Y-132494290D01*
X66938582Y-132507597D01*
X66943541Y-132521457D01*
X66947118Y-132535736D01*
X66949278Y-132550297D01*
X66950000Y-132565000D01*
X66950000Y-132865000D01*
X66949278Y-132879703D01*
X66947118Y-132894264D01*
X66943541Y-132908543D01*
X66938582Y-132922403D01*
X66932288Y-132935710D01*
X66924720Y-132948336D01*
X66915952Y-132960159D01*
X66906066Y-132971066D01*
X66895159Y-132980952D01*
X66883336Y-132989720D01*
X66870710Y-132997288D01*
X66857403Y-133003582D01*
X66843543Y-133008541D01*
X66829264Y-133012118D01*
X66814703Y-133014278D01*
X66800000Y-133015000D01*
X65150000Y-133015000D01*
X65135297Y-133014278D01*
X65120736Y-133012118D01*
X65106457Y-133008541D01*
X65092597Y-133003582D01*
X65079290Y-132997288D01*
X65066664Y-132989720D01*
X65054841Y-132980952D01*
X65043934Y-132971066D01*
X65034048Y-132960159D01*
X65025280Y-132948336D01*
X65017712Y-132935710D01*
X65011418Y-132922403D01*
X65006459Y-132908543D01*
X65002882Y-132894264D01*
X65000722Y-132879703D01*
X65000000Y-132865000D01*
X65000000Y-132565000D01*
X65000722Y-132550297D01*
X65002882Y-132535736D01*
X65006459Y-132521457D01*
X65011418Y-132507597D01*
X65017712Y-132494290D01*
X65025280Y-132481664D01*
X65034048Y-132469841D01*
X65043934Y-132458934D01*
X65054841Y-132449048D01*
X65066664Y-132440280D01*
X65079290Y-132432712D01*
X65092597Y-132426418D01*
X65106457Y-132421459D01*
X65120736Y-132417882D01*
X65135297Y-132415722D01*
X65150000Y-132415000D01*
X66800000Y-132415000D01*
X66814703Y-132415722D01*
G37*
G36*
X66814703Y-131145722D02*
G01*
X66829264Y-131147882D01*
X66843543Y-131151459D01*
X66857403Y-131156418D01*
X66870710Y-131162712D01*
X66883336Y-131170280D01*
X66895159Y-131179048D01*
X66906066Y-131188934D01*
X66915952Y-131199841D01*
X66924720Y-131211664D01*
X66932288Y-131224290D01*
X66938582Y-131237597D01*
X66943541Y-131251457D01*
X66947118Y-131265736D01*
X66949278Y-131280297D01*
X66950000Y-131295000D01*
X66950000Y-131595000D01*
X66949278Y-131609703D01*
X66947118Y-131624264D01*
X66943541Y-131638543D01*
X66938582Y-131652403D01*
X66932288Y-131665710D01*
X66924720Y-131678336D01*
X66915952Y-131690159D01*
X66906066Y-131701066D01*
X66895159Y-131710952D01*
X66883336Y-131719720D01*
X66870710Y-131727288D01*
X66857403Y-131733582D01*
X66843543Y-131738541D01*
X66829264Y-131742118D01*
X66814703Y-131744278D01*
X66800000Y-131745000D01*
X65150000Y-131745000D01*
X65135297Y-131744278D01*
X65120736Y-131742118D01*
X65106457Y-131738541D01*
X65092597Y-131733582D01*
X65079290Y-131727288D01*
X65066664Y-131719720D01*
X65054841Y-131710952D01*
X65043934Y-131701066D01*
X65034048Y-131690159D01*
X65025280Y-131678336D01*
X65017712Y-131665710D01*
X65011418Y-131652403D01*
X65006459Y-131638543D01*
X65002882Y-131624264D01*
X65000722Y-131609703D01*
X65000000Y-131595000D01*
X65000000Y-131295000D01*
X65000722Y-131280297D01*
X65002882Y-131265736D01*
X65006459Y-131251457D01*
X65011418Y-131237597D01*
X65017712Y-131224290D01*
X65025280Y-131211664D01*
X65034048Y-131199841D01*
X65043934Y-131188934D01*
X65054841Y-131179048D01*
X65066664Y-131170280D01*
X65079290Y-131162712D01*
X65092597Y-131156418D01*
X65106457Y-131151459D01*
X65120736Y-131147882D01*
X65135297Y-131145722D01*
X65150000Y-131145000D01*
X66800000Y-131145000D01*
X66814703Y-131145722D01*
G37*
G36*
X66814703Y-129875722D02*
G01*
X66829264Y-129877882D01*
X66843543Y-129881459D01*
X66857403Y-129886418D01*
X66870710Y-129892712D01*
X66883336Y-129900280D01*
X66895159Y-129909048D01*
X66906066Y-129918934D01*
X66915952Y-129929841D01*
X66924720Y-129941664D01*
X66932288Y-129954290D01*
X66938582Y-129967597D01*
X66943541Y-129981457D01*
X66947118Y-129995736D01*
X66949278Y-130010297D01*
X66950000Y-130025000D01*
X66950000Y-130325000D01*
X66949278Y-130339703D01*
X66947118Y-130354264D01*
X66943541Y-130368543D01*
X66938582Y-130382403D01*
X66932288Y-130395710D01*
X66924720Y-130408336D01*
X66915952Y-130420159D01*
X66906066Y-130431066D01*
X66895159Y-130440952D01*
X66883336Y-130449720D01*
X66870710Y-130457288D01*
X66857403Y-130463582D01*
X66843543Y-130468541D01*
X66829264Y-130472118D01*
X66814703Y-130474278D01*
X66800000Y-130475000D01*
X65150000Y-130475000D01*
X65135297Y-130474278D01*
X65120736Y-130472118D01*
X65106457Y-130468541D01*
X65092597Y-130463582D01*
X65079290Y-130457288D01*
X65066664Y-130449720D01*
X65054841Y-130440952D01*
X65043934Y-130431066D01*
X65034048Y-130420159D01*
X65025280Y-130408336D01*
X65017712Y-130395710D01*
X65011418Y-130382403D01*
X65006459Y-130368543D01*
X65002882Y-130354264D01*
X65000722Y-130339703D01*
X65000000Y-130325000D01*
X65000000Y-130025000D01*
X65000722Y-130010297D01*
X65002882Y-129995736D01*
X65006459Y-129981457D01*
X65011418Y-129967597D01*
X65017712Y-129954290D01*
X65025280Y-129941664D01*
X65034048Y-129929841D01*
X65043934Y-129918934D01*
X65054841Y-129909048D01*
X65066664Y-129900280D01*
X65079290Y-129892712D01*
X65092597Y-129886418D01*
X65106457Y-129881459D01*
X65120736Y-129877882D01*
X65135297Y-129875722D01*
X65150000Y-129875000D01*
X66800000Y-129875000D01*
X66814703Y-129875722D01*
G37*
G36*
X66814703Y-128605722D02*
G01*
X66829264Y-128607882D01*
X66843543Y-128611459D01*
X66857403Y-128616418D01*
X66870710Y-128622712D01*
X66883336Y-128630280D01*
X66895159Y-128639048D01*
X66906066Y-128648934D01*
X66915952Y-128659841D01*
X66924720Y-128671664D01*
X66932288Y-128684290D01*
X66938582Y-128697597D01*
X66943541Y-128711457D01*
X66947118Y-128725736D01*
X66949278Y-128740297D01*
X66950000Y-128755000D01*
X66950000Y-129055000D01*
X66949278Y-129069703D01*
X66947118Y-129084264D01*
X66943541Y-129098543D01*
X66938582Y-129112403D01*
X66932288Y-129125710D01*
X66924720Y-129138336D01*
X66915952Y-129150159D01*
X66906066Y-129161066D01*
X66895159Y-129170952D01*
X66883336Y-129179720D01*
X66870710Y-129187288D01*
X66857403Y-129193582D01*
X66843543Y-129198541D01*
X66829264Y-129202118D01*
X66814703Y-129204278D01*
X66800000Y-129205000D01*
X65150000Y-129205000D01*
X65135297Y-129204278D01*
X65120736Y-129202118D01*
X65106457Y-129198541D01*
X65092597Y-129193582D01*
X65079290Y-129187288D01*
X65066664Y-129179720D01*
X65054841Y-129170952D01*
X65043934Y-129161066D01*
X65034048Y-129150159D01*
X65025280Y-129138336D01*
X65017712Y-129125710D01*
X65011418Y-129112403D01*
X65006459Y-129098543D01*
X65002882Y-129084264D01*
X65000722Y-129069703D01*
X65000000Y-129055000D01*
X65000000Y-128755000D01*
X65000722Y-128740297D01*
X65002882Y-128725736D01*
X65006459Y-128711457D01*
X65011418Y-128697597D01*
X65017712Y-128684290D01*
X65025280Y-128671664D01*
X65034048Y-128659841D01*
X65043934Y-128648934D01*
X65054841Y-128639048D01*
X65066664Y-128630280D01*
X65079290Y-128622712D01*
X65092597Y-128616418D01*
X65106457Y-128611459D01*
X65120736Y-128607882D01*
X65135297Y-128605722D01*
X65150000Y-128605000D01*
X66800000Y-128605000D01*
X66814703Y-128605722D01*
G37*
G36*
X66814703Y-127335722D02*
G01*
X66829264Y-127337882D01*
X66843543Y-127341459D01*
X66857403Y-127346418D01*
X66870710Y-127352712D01*
X66883336Y-127360280D01*
X66895159Y-127369048D01*
X66906066Y-127378934D01*
X66915952Y-127389841D01*
X66924720Y-127401664D01*
X66932288Y-127414290D01*
X66938582Y-127427597D01*
X66943541Y-127441457D01*
X66947118Y-127455736D01*
X66949278Y-127470297D01*
X66950000Y-127485000D01*
X66950000Y-127785000D01*
X66949278Y-127799703D01*
X66947118Y-127814264D01*
X66943541Y-127828543D01*
X66938582Y-127842403D01*
X66932288Y-127855710D01*
X66924720Y-127868336D01*
X66915952Y-127880159D01*
X66906066Y-127891066D01*
X66895159Y-127900952D01*
X66883336Y-127909720D01*
X66870710Y-127917288D01*
X66857403Y-127923582D01*
X66843543Y-127928541D01*
X66829264Y-127932118D01*
X66814703Y-127934278D01*
X66800000Y-127935000D01*
X65150000Y-127935000D01*
X65135297Y-127934278D01*
X65120736Y-127932118D01*
X65106457Y-127928541D01*
X65092597Y-127923582D01*
X65079290Y-127917288D01*
X65066664Y-127909720D01*
X65054841Y-127900952D01*
X65043934Y-127891066D01*
X65034048Y-127880159D01*
X65025280Y-127868336D01*
X65017712Y-127855710D01*
X65011418Y-127842403D01*
X65006459Y-127828543D01*
X65002882Y-127814264D01*
X65000722Y-127799703D01*
X65000000Y-127785000D01*
X65000000Y-127485000D01*
X65000722Y-127470297D01*
X65002882Y-127455736D01*
X65006459Y-127441457D01*
X65011418Y-127427597D01*
X65017712Y-127414290D01*
X65025280Y-127401664D01*
X65034048Y-127389841D01*
X65043934Y-127378934D01*
X65054841Y-127369048D01*
X65066664Y-127360280D01*
X65079290Y-127352712D01*
X65092597Y-127346418D01*
X65106457Y-127341459D01*
X65120736Y-127337882D01*
X65135297Y-127335722D01*
X65150000Y-127335000D01*
X66800000Y-127335000D01*
X66814703Y-127335722D01*
G37*
M02*
