G04 #@! TF.GenerationSoftware,KiCad,Pcbnew,(5.1.5)-3*
G04 #@! TF.CreationDate,2020-04-27T13:04:48+02:00*
G04 #@! TF.ProjectId,RS232_click,52533233-325f-4636-9c69-636b2e6b6963,rev?*
G04 #@! TF.SameCoordinates,Original*
G04 #@! TF.FileFunction,Legend,Top*
G04 #@! TF.FilePolarity,Positive*
%FSLAX46Y46*%
G04 Gerber Fmt 4.6, Leading zero omitted, Abs format (unit mm)*
G04 Created by KiCad (PCBNEW (5.1.5)-3) date 2020-04-27 13:04:48*
%MOMM*%
%LPD*%
G04 APERTURE LIST*
%ADD10C,0.150000*%
%ADD11C,0.120000*%
%ADD12C,0.304800*%
%ADD13C,0.010000*%
G04 APERTURE END LIST*
D10*
X59163857Y-143473714D02*
X58801000Y-143473714D01*
X58764714Y-143836571D01*
X58801000Y-143800285D01*
X58873571Y-143764000D01*
X59055000Y-143764000D01*
X59127571Y-143800285D01*
X59163857Y-143836571D01*
X59200142Y-143909142D01*
X59200142Y-144090571D01*
X59163857Y-144163142D01*
X59127571Y-144199428D01*
X59055000Y-144235714D01*
X58873571Y-144235714D01*
X58801000Y-144199428D01*
X58764714Y-144163142D01*
X59417857Y-143473714D02*
X59671857Y-144235714D01*
X59925857Y-143473714D01*
X55952571Y-143473714D02*
X56424285Y-143473714D01*
X56170285Y-143764000D01*
X56279142Y-143764000D01*
X56351714Y-143800285D01*
X56388000Y-143836571D01*
X56424285Y-143909142D01*
X56424285Y-144090571D01*
X56388000Y-144163142D01*
X56351714Y-144199428D01*
X56279142Y-144235714D01*
X56061428Y-144235714D01*
X55988857Y-144199428D01*
X55952571Y-144163142D01*
X56642000Y-143473714D02*
X56896000Y-144235714D01*
X57150000Y-143473714D01*
X57331428Y-143473714D02*
X57803142Y-143473714D01*
X57549142Y-143764000D01*
X57658000Y-143764000D01*
X57730571Y-143800285D01*
X57766857Y-143836571D01*
X57803142Y-143909142D01*
X57803142Y-144090571D01*
X57766857Y-144163142D01*
X57730571Y-144199428D01*
X57658000Y-144235714D01*
X57440285Y-144235714D01*
X57367714Y-144199428D01*
X57331428Y-144163142D01*
D11*
X60198000Y-144653000D02*
X60198000Y-144907000D01*
X58420000Y-144653000D02*
X60198000Y-144653000D01*
X58420000Y-144907000D02*
X58420000Y-144653000D01*
X57912000Y-144653000D02*
X57912000Y-144907000D01*
X56007000Y-144653000D02*
X57912000Y-144653000D01*
X56007000Y-144907000D02*
X56007000Y-144653000D01*
D10*
X73369714Y-144108714D02*
X72607714Y-144108714D01*
X73369714Y-143673285D01*
X72607714Y-143673285D01*
X73297142Y-142875000D02*
X73333428Y-142911285D01*
X73369714Y-143020142D01*
X73369714Y-143092714D01*
X73333428Y-143201571D01*
X73260857Y-143274142D01*
X73188285Y-143310428D01*
X73043142Y-143346714D01*
X72934285Y-143346714D01*
X72789142Y-143310428D01*
X72716571Y-143274142D01*
X72644000Y-143201571D01*
X72607714Y-143092714D01*
X72607714Y-143020142D01*
X72644000Y-142911285D01*
X72680285Y-142875000D01*
X73369714Y-141568714D02*
X72607714Y-141568714D01*
X73369714Y-141133285D01*
X72607714Y-141133285D01*
X73297142Y-140335000D02*
X73333428Y-140371285D01*
X73369714Y-140480142D01*
X73369714Y-140552714D01*
X73333428Y-140661571D01*
X73260857Y-140734142D01*
X73188285Y-140770428D01*
X73043142Y-140806714D01*
X72934285Y-140806714D01*
X72789142Y-140770428D01*
X72716571Y-140734142D01*
X72644000Y-140661571D01*
X72607714Y-140552714D01*
X72607714Y-140480142D01*
X72644000Y-140371285D01*
X72680285Y-140335000D01*
X73369714Y-133948714D02*
X72607714Y-133948714D01*
X73369714Y-133513285D01*
X72607714Y-133513285D01*
X73297142Y-132715000D02*
X73333428Y-132751285D01*
X73369714Y-132860142D01*
X73369714Y-132932714D01*
X73333428Y-133041571D01*
X73260857Y-133114142D01*
X73188285Y-133150428D01*
X73043142Y-133186714D01*
X72934285Y-133186714D01*
X72789142Y-133150428D01*
X72716571Y-133114142D01*
X72644000Y-133041571D01*
X72607714Y-132932714D01*
X72607714Y-132860142D01*
X72644000Y-132751285D01*
X72680285Y-132715000D01*
X73369714Y-131408714D02*
X72607714Y-131408714D01*
X73369714Y-130973285D01*
X72607714Y-130973285D01*
X73297142Y-130175000D02*
X73333428Y-130211285D01*
X73369714Y-130320142D01*
X73369714Y-130392714D01*
X73333428Y-130501571D01*
X73260857Y-130574142D01*
X73188285Y-130610428D01*
X73043142Y-130646714D01*
X72934285Y-130646714D01*
X72789142Y-130610428D01*
X72716571Y-130574142D01*
X72644000Y-130501571D01*
X72607714Y-130392714D01*
X72607714Y-130320142D01*
X72644000Y-130211285D01*
X72680285Y-130175000D01*
X54319714Y-144108714D02*
X53557714Y-144108714D01*
X54319714Y-143673285D01*
X53557714Y-143673285D01*
X54247142Y-142875000D02*
X54283428Y-142911285D01*
X54319714Y-143020142D01*
X54319714Y-143092714D01*
X54283428Y-143201571D01*
X54210857Y-143274142D01*
X54138285Y-143310428D01*
X53993142Y-143346714D01*
X53884285Y-143346714D01*
X53739142Y-143310428D01*
X53666571Y-143274142D01*
X53594000Y-143201571D01*
X53557714Y-143092714D01*
X53557714Y-143020142D01*
X53594000Y-142911285D01*
X53630285Y-142875000D01*
X54319714Y-141568714D02*
X53557714Y-141568714D01*
X54319714Y-141133285D01*
X53557714Y-141133285D01*
X54247142Y-140335000D02*
X54283428Y-140371285D01*
X54319714Y-140480142D01*
X54319714Y-140552714D01*
X54283428Y-140661571D01*
X54210857Y-140734142D01*
X54138285Y-140770428D01*
X53993142Y-140806714D01*
X53884285Y-140806714D01*
X53739142Y-140770428D01*
X53666571Y-140734142D01*
X53594000Y-140661571D01*
X53557714Y-140552714D01*
X53557714Y-140480142D01*
X53594000Y-140371285D01*
X53630285Y-140335000D01*
X54319714Y-139028714D02*
X53557714Y-139028714D01*
X54319714Y-138593285D01*
X53557714Y-138593285D01*
X54247142Y-137795000D02*
X54283428Y-137831285D01*
X54319714Y-137940142D01*
X54319714Y-138012714D01*
X54283428Y-138121571D01*
X54210857Y-138194142D01*
X54138285Y-138230428D01*
X53993142Y-138266714D01*
X53884285Y-138266714D01*
X53739142Y-138230428D01*
X53666571Y-138194142D01*
X53594000Y-138121571D01*
X53557714Y-138012714D01*
X53557714Y-137940142D01*
X53594000Y-137831285D01*
X53630285Y-137795000D01*
X54319714Y-136488714D02*
X53557714Y-136488714D01*
X54319714Y-136053285D01*
X53557714Y-136053285D01*
X54247142Y-135255000D02*
X54283428Y-135291285D01*
X54319714Y-135400142D01*
X54319714Y-135472714D01*
X54283428Y-135581571D01*
X54210857Y-135654142D01*
X54138285Y-135690428D01*
X53993142Y-135726714D01*
X53884285Y-135726714D01*
X53739142Y-135690428D01*
X53666571Y-135654142D01*
X53594000Y-135581571D01*
X53557714Y-135472714D01*
X53557714Y-135400142D01*
X53594000Y-135291285D01*
X53630285Y-135255000D01*
X54319714Y-133948714D02*
X53557714Y-133948714D01*
X54319714Y-133513285D01*
X53557714Y-133513285D01*
X54247142Y-132715000D02*
X54283428Y-132751285D01*
X54319714Y-132860142D01*
X54319714Y-132932714D01*
X54283428Y-133041571D01*
X54210857Y-133114142D01*
X54138285Y-133150428D01*
X53993142Y-133186714D01*
X53884285Y-133186714D01*
X53739142Y-133150428D01*
X53666571Y-133114142D01*
X53594000Y-133041571D01*
X53557714Y-132932714D01*
X53557714Y-132860142D01*
X53594000Y-132751285D01*
X53630285Y-132715000D01*
X73369714Y-136017000D02*
X73006857Y-136271000D01*
X73369714Y-136452428D02*
X72607714Y-136452428D01*
X72607714Y-136162142D01*
X72644000Y-136089571D01*
X72680285Y-136053285D01*
X72752857Y-136017000D01*
X72861714Y-136017000D01*
X72934285Y-136053285D01*
X72970571Y-136089571D01*
X73006857Y-136162142D01*
X73006857Y-136452428D01*
X72607714Y-135763000D02*
X73369714Y-135255000D01*
X72607714Y-135255000D02*
X73369714Y-135763000D01*
X72607714Y-139010571D02*
X72607714Y-138575142D01*
X73369714Y-138792857D02*
X72607714Y-138792857D01*
X72607714Y-138393714D02*
X73369714Y-137885714D01*
X72607714Y-137885714D02*
X73369714Y-138393714D01*
X72607714Y-146195142D02*
X72607714Y-146558000D01*
X72970571Y-146594285D01*
X72934285Y-146558000D01*
X72898000Y-146485428D01*
X72898000Y-146304000D01*
X72934285Y-146231428D01*
X72970571Y-146195142D01*
X73043142Y-146158857D01*
X73224571Y-146158857D01*
X73297142Y-146195142D01*
X73333428Y-146231428D01*
X73369714Y-146304000D01*
X73369714Y-146485428D01*
X73333428Y-146558000D01*
X73297142Y-146594285D01*
X72607714Y-145941142D02*
X73369714Y-145687142D01*
X72607714Y-145433142D01*
X72644000Y-149170571D02*
X72607714Y-149243142D01*
X72607714Y-149352000D01*
X72644000Y-149460857D01*
X72716571Y-149533428D01*
X72789142Y-149569714D01*
X72934285Y-149606000D01*
X73043142Y-149606000D01*
X73188285Y-149569714D01*
X73260857Y-149533428D01*
X73333428Y-149460857D01*
X73369714Y-149352000D01*
X73369714Y-149279428D01*
X73333428Y-149170571D01*
X73297142Y-149134285D01*
X73043142Y-149134285D01*
X73043142Y-149279428D01*
X73369714Y-148807714D02*
X72607714Y-148807714D01*
X73369714Y-148372285D01*
X72607714Y-148372285D01*
X73369714Y-148009428D02*
X72607714Y-148009428D01*
X72607714Y-147828000D01*
X72644000Y-147719142D01*
X72716571Y-147646571D01*
X72789142Y-147610285D01*
X72934285Y-147574000D01*
X73043142Y-147574000D01*
X73188285Y-147610285D01*
X73260857Y-147646571D01*
X73333428Y-147719142D01*
X73369714Y-147828000D01*
X73369714Y-148009428D01*
X53594000Y-149170571D02*
X53557714Y-149243142D01*
X53557714Y-149352000D01*
X53594000Y-149460857D01*
X53666571Y-149533428D01*
X53739142Y-149569714D01*
X53884285Y-149606000D01*
X53993142Y-149606000D01*
X54138285Y-149569714D01*
X54210857Y-149533428D01*
X54283428Y-149460857D01*
X54319714Y-149352000D01*
X54319714Y-149279428D01*
X54283428Y-149170571D01*
X54247142Y-149134285D01*
X53993142Y-149134285D01*
X53993142Y-149279428D01*
X54319714Y-148807714D02*
X53557714Y-148807714D01*
X54319714Y-148372285D01*
X53557714Y-148372285D01*
X54319714Y-148009428D02*
X53557714Y-148009428D01*
X53557714Y-147828000D01*
X53594000Y-147719142D01*
X53666571Y-147646571D01*
X53739142Y-147610285D01*
X53884285Y-147574000D01*
X53993142Y-147574000D01*
X54138285Y-147610285D01*
X54210857Y-147646571D01*
X54283428Y-147719142D01*
X54319714Y-147828000D01*
X54319714Y-148009428D01*
X53557714Y-146993428D02*
X53557714Y-146521714D01*
X53848000Y-146775714D01*
X53848000Y-146666857D01*
X53884285Y-146594285D01*
X53920571Y-146558000D01*
X53993142Y-146521714D01*
X54174571Y-146521714D01*
X54247142Y-146558000D01*
X54283428Y-146594285D01*
X54319714Y-146666857D01*
X54319714Y-146884571D01*
X54283428Y-146957142D01*
X54247142Y-146993428D01*
X53557714Y-146304000D02*
X54319714Y-146050000D01*
X53557714Y-145796000D01*
X53557714Y-145614571D02*
X53557714Y-145142857D01*
X53848000Y-145396857D01*
X53848000Y-145288000D01*
X53884285Y-145215428D01*
X53920571Y-145179142D01*
X53993142Y-145142857D01*
X54174571Y-145142857D01*
X54247142Y-145179142D01*
X54283428Y-145215428D01*
X54319714Y-145288000D01*
X54319714Y-145505714D01*
X54283428Y-145578285D01*
X54247142Y-145614571D01*
X54319714Y-131408714D02*
X53557714Y-131408714D01*
X54319714Y-130973285D01*
X53557714Y-130973285D01*
X54247142Y-130175000D02*
X54283428Y-130211285D01*
X54319714Y-130320142D01*
X54319714Y-130392714D01*
X54283428Y-130501571D01*
X54210857Y-130574142D01*
X54138285Y-130610428D01*
X53993142Y-130646714D01*
X53884285Y-130646714D01*
X53739142Y-130610428D01*
X53666571Y-130574142D01*
X53594000Y-130501571D01*
X53557714Y-130392714D01*
X53557714Y-130320142D01*
X53594000Y-130211285D01*
X53630285Y-130175000D01*
X67564000Y-144743714D02*
X67564000Y-143981714D01*
X67854285Y-143981714D01*
X67926857Y-144018000D01*
X67963142Y-144054285D01*
X67999428Y-144126857D01*
X67999428Y-144235714D01*
X67963142Y-144308285D01*
X67926857Y-144344571D01*
X67854285Y-144380857D01*
X67564000Y-144380857D01*
X68253428Y-143981714D02*
X68434857Y-144743714D01*
X68580000Y-144199428D01*
X68725142Y-144743714D01*
X68906571Y-143981714D01*
X69632285Y-144743714D02*
X69378285Y-144380857D01*
X69196857Y-144743714D02*
X69196857Y-143981714D01*
X69487142Y-143981714D01*
X69559714Y-144018000D01*
X69596000Y-144054285D01*
X69632285Y-144126857D01*
X69632285Y-144235714D01*
X69596000Y-144308285D01*
X69559714Y-144344571D01*
X69487142Y-144380857D01*
X69196857Y-144380857D01*
D11*
X76200000Y-132080000D02*
X73660000Y-132080000D01*
X76200000Y-134620000D02*
X73660000Y-134620000D01*
X76200000Y-137160000D02*
X73660000Y-137160000D01*
X76200000Y-139700000D02*
X73660000Y-139700000D01*
X76200000Y-142240000D02*
X73660000Y-142240000D01*
X76200000Y-144780000D02*
X73660000Y-144780000D01*
X76200000Y-147320000D02*
X73660000Y-147320000D01*
X50800000Y-147320000D02*
X53340000Y-147320000D01*
X50800000Y-144780000D02*
X53340000Y-144780000D01*
X50800000Y-142240000D02*
X53340000Y-142240000D01*
X50800000Y-139700000D02*
X53340000Y-139700000D01*
X50800000Y-137160000D02*
X53340000Y-137160000D01*
X50800000Y-134620000D02*
X53340000Y-134620000D01*
X50800000Y-132080000D02*
X53340000Y-132080000D01*
D12*
X55350833Y-150364976D02*
X55350833Y-151495880D01*
X55417357Y-151628928D01*
X55483880Y-151695452D01*
X55616928Y-151761976D01*
X55883023Y-151761976D01*
X56016071Y-151695452D01*
X56082595Y-151628928D01*
X56149119Y-151495880D01*
X56149119Y-150364976D01*
X56747833Y-151362833D02*
X57413071Y-151362833D01*
X56614785Y-151761976D02*
X57080452Y-150364976D01*
X57546119Y-151761976D01*
X58810071Y-151761976D02*
X58344404Y-151096738D01*
X58011785Y-151761976D02*
X58011785Y-150364976D01*
X58543976Y-150364976D01*
X58677023Y-150431500D01*
X58743547Y-150498023D01*
X58810071Y-150631071D01*
X58810071Y-150830642D01*
X58743547Y-150963690D01*
X58677023Y-151030214D01*
X58543976Y-151096738D01*
X58011785Y-151096738D01*
X59209214Y-150364976D02*
X60007500Y-150364976D01*
X59608357Y-151761976D02*
X59608357Y-150364976D01*
X61404500Y-150830642D02*
X61737119Y-151761976D01*
X62069738Y-150830642D01*
X62601928Y-151761976D02*
X62601928Y-150830642D01*
X62601928Y-150364976D02*
X62535404Y-150431500D01*
X62601928Y-150498023D01*
X62668452Y-150431500D01*
X62601928Y-150364976D01*
X62601928Y-150498023D01*
X63865880Y-151761976D02*
X63865880Y-151030214D01*
X63799357Y-150897166D01*
X63666309Y-150830642D01*
X63400214Y-150830642D01*
X63267166Y-150897166D01*
X63865880Y-151695452D02*
X63732833Y-151761976D01*
X63400214Y-151761976D01*
X63267166Y-151695452D01*
X63200642Y-151562404D01*
X63200642Y-151429357D01*
X63267166Y-151296309D01*
X63400214Y-151229785D01*
X63732833Y-151229785D01*
X63865880Y-151163261D01*
X66393785Y-151761976D02*
X65928119Y-151096738D01*
X65595500Y-151761976D02*
X65595500Y-150364976D01*
X66127690Y-150364976D01*
X66260738Y-150431500D01*
X66327261Y-150498023D01*
X66393785Y-150631071D01*
X66393785Y-150830642D01*
X66327261Y-150963690D01*
X66260738Y-151030214D01*
X66127690Y-151096738D01*
X65595500Y-151096738D01*
X66925976Y-151695452D02*
X67125547Y-151761976D01*
X67458166Y-151761976D01*
X67591214Y-151695452D01*
X67657738Y-151628928D01*
X67724261Y-151495880D01*
X67724261Y-151362833D01*
X67657738Y-151229785D01*
X67591214Y-151163261D01*
X67458166Y-151096738D01*
X67192071Y-151030214D01*
X67059023Y-150963690D01*
X66992500Y-150897166D01*
X66925976Y-150764119D01*
X66925976Y-150631071D01*
X66992500Y-150498023D01*
X67059023Y-150431500D01*
X67192071Y-150364976D01*
X67524690Y-150364976D01*
X67724261Y-150431500D01*
X68256452Y-150498023D02*
X68322976Y-150431500D01*
X68456023Y-150364976D01*
X68788642Y-150364976D01*
X68921690Y-150431500D01*
X68988214Y-150498023D01*
X69054738Y-150631071D01*
X69054738Y-150764119D01*
X68988214Y-150963690D01*
X68189928Y-151761976D01*
X69054738Y-151761976D01*
X69520404Y-150364976D02*
X70385214Y-150364976D01*
X69919547Y-150897166D01*
X70119119Y-150897166D01*
X70252166Y-150963690D01*
X70318690Y-151030214D01*
X70385214Y-151163261D01*
X70385214Y-151495880D01*
X70318690Y-151628928D01*
X70252166Y-151695452D01*
X70119119Y-151761976D01*
X69719976Y-151761976D01*
X69586928Y-151695452D01*
X69520404Y-151628928D01*
X70917404Y-150498023D02*
X70983928Y-150431500D01*
X71116976Y-150364976D01*
X71449595Y-150364976D01*
X71582642Y-150431500D01*
X71649166Y-150498023D01*
X71715690Y-150631071D01*
X71715690Y-150764119D01*
X71649166Y-150963690D01*
X70850880Y-151761976D01*
X71715690Y-151761976D01*
D13*
G36*
X55041800Y-114604800D02*
G01*
X55041800Y-115011200D01*
X54635400Y-115011200D01*
X54635400Y-114604800D01*
X55041800Y-114604800D01*
G37*
X55041800Y-114604800D02*
X55041800Y-115011200D01*
X54635400Y-115011200D01*
X54635400Y-114604800D01*
X55041800Y-114604800D01*
G36*
X55854600Y-114604800D02*
G01*
X55854600Y-115011200D01*
X55448200Y-115011200D01*
X55448200Y-114604800D01*
X55854600Y-114604800D01*
G37*
X55854600Y-114604800D02*
X55854600Y-115011200D01*
X55448200Y-115011200D01*
X55448200Y-114604800D01*
X55854600Y-114604800D01*
G36*
X56667400Y-116636800D02*
G01*
X56667400Y-117043200D01*
X53822600Y-117043200D01*
X53822600Y-116636800D01*
X56667400Y-116636800D01*
G37*
X56667400Y-116636800D02*
X56667400Y-117043200D01*
X53822600Y-117043200D01*
X53822600Y-116636800D01*
X56667400Y-116636800D01*
G36*
X56667400Y-117449600D02*
G01*
X56667400Y-117856000D01*
X53822600Y-117856000D01*
X53822600Y-117449600D01*
X56667400Y-117449600D01*
G37*
X56667400Y-117449600D02*
X56667400Y-117856000D01*
X53822600Y-117856000D01*
X53822600Y-117449600D01*
X56667400Y-117449600D01*
G36*
X56667400Y-118262400D02*
G01*
X56667400Y-118668800D01*
X53822600Y-118668800D01*
X53822600Y-118262400D01*
X56667400Y-118262400D01*
G37*
X56667400Y-118262400D02*
X56667400Y-118668800D01*
X53822600Y-118668800D01*
X53822600Y-118262400D01*
X56667400Y-118262400D01*
G36*
X51384749Y-113243961D02*
G01*
X51387491Y-113141838D01*
X51394070Y-113067950D01*
X51406128Y-113011016D01*
X51425308Y-112959755D01*
X51453252Y-112902886D01*
X51454983Y-112899551D01*
X51543906Y-112769972D01*
X51651833Y-112678514D01*
X51777900Y-112593727D01*
X51790600Y-112181089D01*
X51795644Y-112027053D01*
X51800891Y-111914258D01*
X51807934Y-111833165D01*
X51818362Y-111774235D01*
X51833769Y-111727928D01*
X51855745Y-111684705D01*
X51880171Y-111644248D01*
X51977990Y-111524636D01*
X52081379Y-111443172D01*
X52153332Y-111402496D01*
X52217332Y-111379262D01*
X52292892Y-111368765D01*
X52399527Y-111366301D01*
X52400199Y-111366300D01*
X52507049Y-111368736D01*
X52582720Y-111379178D01*
X52646729Y-111402333D01*
X52718590Y-111442906D01*
X52719020Y-111443172D01*
X52838753Y-111540971D01*
X52920228Y-111644253D01*
X52949151Y-111692505D01*
X52969905Y-111735377D01*
X52984057Y-111782570D01*
X52993173Y-111843786D01*
X52998818Y-111928725D01*
X53002558Y-112047090D01*
X53005197Y-112170631D01*
X53013295Y-112572800D01*
X53416200Y-112572800D01*
X53416200Y-110540800D01*
X57073800Y-110540800D01*
X57073800Y-112572800D01*
X57476704Y-112572800D01*
X57484802Y-112170631D01*
X57488145Y-112018996D01*
X57492156Y-111908451D01*
X57498399Y-111829295D01*
X57508442Y-111771827D01*
X57523850Y-111726345D01*
X57546189Y-111683148D01*
X57569771Y-111644253D01*
X57667609Y-111524617D01*
X57770979Y-111443172D01*
X57842932Y-111402496D01*
X57906932Y-111379262D01*
X57982492Y-111368765D01*
X58089127Y-111366301D01*
X58089800Y-111366300D01*
X58196649Y-111368736D01*
X58272320Y-111379178D01*
X58336329Y-111402333D01*
X58408190Y-111442906D01*
X58408620Y-111443172D01*
X58528333Y-111540950D01*
X58609828Y-111644248D01*
X58638481Y-111692172D01*
X58659240Y-111735246D01*
X58673697Y-111783010D01*
X58683444Y-111845003D01*
X58690073Y-111930765D01*
X58695175Y-112049834D01*
X58699400Y-112181089D01*
X58712100Y-112593727D01*
X58838166Y-112678514D01*
X58956041Y-112781142D01*
X59035016Y-112899551D01*
X59063464Y-112957023D01*
X59083060Y-113008298D01*
X59095449Y-113064657D01*
X59102274Y-113137381D01*
X59105176Y-113237751D01*
X59105799Y-113377048D01*
X59105800Y-113385600D01*
X59105250Y-113527240D01*
X59102508Y-113629363D01*
X59095929Y-113703251D01*
X59083871Y-113760185D01*
X59064691Y-113811446D01*
X59036747Y-113868315D01*
X59035016Y-113871650D01*
X58945863Y-114001482D01*
X58838166Y-114092764D01*
X58712100Y-114177627D01*
X58686700Y-117440933D01*
X58609828Y-117565245D01*
X58505612Y-117696063D01*
X58377788Y-117785678D01*
X58220798Y-117837142D01*
X58087501Y-117852246D01*
X57890716Y-117861192D01*
X57886600Y-118074410D01*
X57886600Y-117449600D01*
X58027454Y-117449600D01*
X58118335Y-117445077D01*
X58178328Y-117427533D01*
X58226850Y-117391011D01*
X58230654Y-117387255D01*
X58293000Y-117324910D01*
X58293000Y-114198400D01*
X57886600Y-114198400D01*
X57886600Y-117449600D01*
X57886600Y-118074410D01*
X57882308Y-118296746D01*
X57878773Y-118457458D01*
X57874435Y-118577084D01*
X57868010Y-118665339D01*
X57858214Y-118731936D01*
X57843764Y-118786586D01*
X57823376Y-118839005D01*
X57805424Y-118878418D01*
X57701369Y-119049084D01*
X57560569Y-119205886D01*
X57397075Y-119334540D01*
X57305342Y-119386766D01*
X57243650Y-119416518D01*
X57191169Y-119438206D01*
X57138127Y-119453292D01*
X57074750Y-119463240D01*
X56991265Y-119469509D01*
X56877899Y-119473564D01*
X56724878Y-119476865D01*
X56699820Y-119477349D01*
X56261000Y-119485797D01*
X56261000Y-121457000D01*
X56190474Y-121593250D01*
X56113852Y-121709297D01*
X56010784Y-121801124D01*
X55997189Y-121810420D01*
X55997189Y-119071943D01*
X56240134Y-119071614D01*
X56456925Y-119070852D01*
X56643092Y-119069678D01*
X56794168Y-119068109D01*
X56905686Y-119066163D01*
X56973177Y-119063861D01*
X56989312Y-119062539D01*
X57106105Y-119026342D01*
X57226269Y-118957133D01*
X57329986Y-118867096D01*
X57355080Y-118837655D01*
X57376138Y-118810668D01*
X57394642Y-118784741D01*
X57410759Y-118756580D01*
X57424656Y-118722893D01*
X57436500Y-118680389D01*
X57446457Y-118625776D01*
X57454694Y-118555761D01*
X57461377Y-118467052D01*
X57466674Y-118356357D01*
X57470751Y-118220385D01*
X57473775Y-118055843D01*
X57475913Y-117859439D01*
X57477331Y-117627881D01*
X57478195Y-117357877D01*
X57478674Y-117046134D01*
X57478933Y-116689362D01*
X57479085Y-116389150D01*
X57480200Y-114198400D01*
X56667400Y-114198400D01*
X56667400Y-115824000D01*
X54229000Y-115824000D01*
X54229000Y-115417600D01*
X56261000Y-115417600D01*
X56261000Y-114198400D01*
X54229000Y-114198400D01*
X54229000Y-115417600D01*
X54229000Y-115824000D01*
X53822600Y-115824000D01*
X53822600Y-114198400D01*
X53008722Y-114198400D01*
X53015611Y-116427250D01*
X53016748Y-116821167D01*
X53017723Y-117167546D01*
X53018767Y-117469647D01*
X53020109Y-117730731D01*
X53021979Y-117954058D01*
X53024606Y-118142889D01*
X53028221Y-118300483D01*
X53033052Y-118430102D01*
X53039331Y-118535005D01*
X53047286Y-118618454D01*
X53057148Y-118683708D01*
X53069146Y-118734028D01*
X53083511Y-118772675D01*
X53100471Y-118802908D01*
X53120256Y-118827989D01*
X53143097Y-118851177D01*
X53169223Y-118875733D01*
X53189553Y-118895447D01*
X53220722Y-118927433D01*
X53248178Y-118955058D01*
X53275684Y-118978658D01*
X53306997Y-118998565D01*
X53345877Y-119015114D01*
X53396086Y-119028639D01*
X53461382Y-119039474D01*
X53545525Y-119047953D01*
X53652275Y-119054410D01*
X53785392Y-119059178D01*
X53948635Y-119062593D01*
X54145765Y-119064988D01*
X54380540Y-119066696D01*
X54656722Y-119068053D01*
X54978069Y-119069391D01*
X55156100Y-119070155D01*
X55450703Y-119071232D01*
X55732556Y-119071822D01*
X55997189Y-119071943D01*
X55997189Y-121810420D01*
X55987274Y-121817200D01*
X55854600Y-121904899D01*
X55854600Y-123139200D01*
X55041800Y-123139200D01*
X55041800Y-122732800D01*
X55448200Y-122732800D01*
X55448200Y-121920000D01*
X55428501Y-121920000D01*
X55428501Y-121514404D01*
X55571125Y-121513054D01*
X55677992Y-121503905D01*
X55754221Y-121481315D01*
X55804932Y-121439641D01*
X55835244Y-121373238D01*
X55850277Y-121276465D01*
X55855152Y-121143676D01*
X55854987Y-120969230D01*
X55854600Y-120841655D01*
X55854600Y-120294400D01*
X55448200Y-120294400D01*
X55448200Y-119888000D01*
X55854600Y-119888000D01*
X55854600Y-119481600D01*
X54635400Y-119481600D01*
X54635400Y-120700800D01*
X55041800Y-120700800D01*
X55041800Y-121107200D01*
X54635400Y-121107200D01*
X54635400Y-121248055D01*
X54639923Y-121338936D01*
X54657467Y-121398929D01*
X54693989Y-121447451D01*
X54697745Y-121451255D01*
X54720678Y-121472858D01*
X54745080Y-121488788D01*
X54778536Y-121499907D01*
X54828634Y-121507082D01*
X54902961Y-121511175D01*
X55009103Y-121513051D01*
X55154648Y-121513575D01*
X55244999Y-121513600D01*
X55428501Y-121514404D01*
X55428501Y-121920000D01*
X55041800Y-121920000D01*
X55041800Y-122732800D01*
X55041800Y-123139200D01*
X54635400Y-123139200D01*
X54635400Y-121904899D01*
X54502725Y-121817200D01*
X54392544Y-121727369D01*
X54312590Y-121617484D01*
X54299525Y-121593250D01*
X54229000Y-121457000D01*
X54229000Y-119485797D01*
X53790179Y-119477349D01*
X53630848Y-119474036D01*
X53512535Y-119470175D01*
X53425467Y-119464302D01*
X53359872Y-119454955D01*
X53305974Y-119440674D01*
X53254002Y-119419995D01*
X53194181Y-119391456D01*
X53184657Y-119386766D01*
X53014800Y-119278994D01*
X52860134Y-119135445D01*
X52734710Y-118970404D01*
X52684575Y-118878418D01*
X52659405Y-118821956D01*
X52641048Y-118769881D01*
X52628220Y-118712479D01*
X52619638Y-118640037D01*
X52614017Y-118542841D01*
X52610074Y-118411180D01*
X52607691Y-118296746D01*
X52599283Y-117861192D01*
X52462545Y-117854976D01*
X52462545Y-117449600D01*
X52603400Y-117449600D01*
X52603400Y-114198400D01*
X52197000Y-114198400D01*
X52197000Y-117324910D01*
X52259345Y-117387255D01*
X52307789Y-117425479D01*
X52366214Y-117444267D01*
X52454038Y-117449579D01*
X52462545Y-117449600D01*
X52462545Y-117854976D01*
X52402498Y-117852246D01*
X52221234Y-117826203D01*
X52073109Y-117764193D01*
X51952569Y-117663164D01*
X51915290Y-117612744D01*
X51915290Y-113792000D01*
X58574709Y-113792000D01*
X58637054Y-113729655D01*
X58664407Y-113699104D01*
X58682330Y-113665622D01*
X58692805Y-113618282D01*
X58697810Y-113546160D01*
X58699326Y-113438329D01*
X58699400Y-113385600D01*
X58698692Y-113261300D01*
X58695248Y-113176868D01*
X58687090Y-113121379D01*
X58672236Y-113083908D01*
X58648707Y-113053529D01*
X58637054Y-113041546D01*
X58574709Y-112979200D01*
X57886600Y-112979200D01*
X57886600Y-112572800D01*
X58293000Y-112572800D01*
X58293000Y-112228746D01*
X58292573Y-112089946D01*
X58290323Y-111992452D01*
X58284793Y-111926770D01*
X58274527Y-111883408D01*
X58258068Y-111852871D01*
X58233960Y-111825667D01*
X58230654Y-111822346D01*
X58148816Y-111770408D01*
X58089800Y-111760000D01*
X58000652Y-111783745D01*
X57948945Y-111822346D01*
X57923871Y-111849773D01*
X57906612Y-111879449D01*
X57895712Y-111920866D01*
X57889714Y-111983518D01*
X57887163Y-112076898D01*
X57886602Y-112210498D01*
X57886600Y-112228746D01*
X57886600Y-112572800D01*
X57886600Y-112979200D01*
X53822600Y-112979200D01*
X53822600Y-112572800D01*
X54229000Y-112572800D01*
X54229000Y-111556800D01*
X54635400Y-111556800D01*
X54635400Y-112572800D01*
X55041800Y-112572800D01*
X55041800Y-111556800D01*
X55448200Y-111556800D01*
X55448200Y-112572800D01*
X55854600Y-112572800D01*
X55854600Y-111556800D01*
X56261000Y-111556800D01*
X56261000Y-112572800D01*
X56667400Y-112572800D01*
X56667400Y-110947200D01*
X53822600Y-110947200D01*
X53822600Y-112572800D01*
X53822600Y-112979200D01*
X52197000Y-112979200D01*
X52197000Y-112572800D01*
X52603400Y-112572800D01*
X52603400Y-112228746D01*
X52602973Y-112089946D01*
X52600723Y-111992452D01*
X52595193Y-111926770D01*
X52584927Y-111883408D01*
X52568468Y-111852871D01*
X52544360Y-111825667D01*
X52541054Y-111822346D01*
X52459216Y-111770408D01*
X52400200Y-111760000D01*
X52311052Y-111783745D01*
X52259345Y-111822346D01*
X52234271Y-111849773D01*
X52217012Y-111879449D01*
X52206112Y-111920866D01*
X52200114Y-111983518D01*
X52197563Y-112076898D01*
X52197002Y-112210498D01*
X52197000Y-112228746D01*
X52197000Y-112572800D01*
X52197000Y-112979200D01*
X51915290Y-112979200D01*
X51852945Y-113041546D01*
X51825592Y-113072097D01*
X51807669Y-113105579D01*
X51797194Y-113152919D01*
X51792189Y-113225041D01*
X51790673Y-113332872D01*
X51790600Y-113385600D01*
X51791307Y-113509901D01*
X51794751Y-113594333D01*
X51802909Y-113649822D01*
X51817763Y-113687293D01*
X51841292Y-113717672D01*
X51852945Y-113729655D01*
X51915290Y-113792000D01*
X51915290Y-117612744D01*
X51880171Y-117565245D01*
X51803300Y-117440933D01*
X51777900Y-114177627D01*
X51651833Y-114092764D01*
X51533753Y-113989820D01*
X51454983Y-113871650D01*
X51426535Y-113814178D01*
X51406939Y-113762903D01*
X51394550Y-113706544D01*
X51387725Y-113633820D01*
X51384823Y-113533450D01*
X51384200Y-113394153D01*
X51384199Y-113385601D01*
X51384749Y-113243961D01*
G37*
X51384749Y-113243961D02*
X51387491Y-113141838D01*
X51394070Y-113067950D01*
X51406128Y-113011016D01*
X51425308Y-112959755D01*
X51453252Y-112902886D01*
X51454983Y-112899551D01*
X51543906Y-112769972D01*
X51651833Y-112678514D01*
X51777900Y-112593727D01*
X51790600Y-112181089D01*
X51795644Y-112027053D01*
X51800891Y-111914258D01*
X51807934Y-111833165D01*
X51818362Y-111774235D01*
X51833769Y-111727928D01*
X51855745Y-111684705D01*
X51880171Y-111644248D01*
X51977990Y-111524636D01*
X52081379Y-111443172D01*
X52153332Y-111402496D01*
X52217332Y-111379262D01*
X52292892Y-111368765D01*
X52399527Y-111366301D01*
X52400199Y-111366300D01*
X52507049Y-111368736D01*
X52582720Y-111379178D01*
X52646729Y-111402333D01*
X52718590Y-111442906D01*
X52719020Y-111443172D01*
X52838753Y-111540971D01*
X52920228Y-111644253D01*
X52949151Y-111692505D01*
X52969905Y-111735377D01*
X52984057Y-111782570D01*
X52993173Y-111843786D01*
X52998818Y-111928725D01*
X53002558Y-112047090D01*
X53005197Y-112170631D01*
X53013295Y-112572800D01*
X53416200Y-112572800D01*
X53416200Y-110540800D01*
X57073800Y-110540800D01*
X57073800Y-112572800D01*
X57476704Y-112572800D01*
X57484802Y-112170631D01*
X57488145Y-112018996D01*
X57492156Y-111908451D01*
X57498399Y-111829295D01*
X57508442Y-111771827D01*
X57523850Y-111726345D01*
X57546189Y-111683148D01*
X57569771Y-111644253D01*
X57667609Y-111524617D01*
X57770979Y-111443172D01*
X57842932Y-111402496D01*
X57906932Y-111379262D01*
X57982492Y-111368765D01*
X58089127Y-111366301D01*
X58089800Y-111366300D01*
X58196649Y-111368736D01*
X58272320Y-111379178D01*
X58336329Y-111402333D01*
X58408190Y-111442906D01*
X58408620Y-111443172D01*
X58528333Y-111540950D01*
X58609828Y-111644248D01*
X58638481Y-111692172D01*
X58659240Y-111735246D01*
X58673697Y-111783010D01*
X58683444Y-111845003D01*
X58690073Y-111930765D01*
X58695175Y-112049834D01*
X58699400Y-112181089D01*
X58712100Y-112593727D01*
X58838166Y-112678514D01*
X58956041Y-112781142D01*
X59035016Y-112899551D01*
X59063464Y-112957023D01*
X59083060Y-113008298D01*
X59095449Y-113064657D01*
X59102274Y-113137381D01*
X59105176Y-113237751D01*
X59105799Y-113377048D01*
X59105800Y-113385600D01*
X59105250Y-113527240D01*
X59102508Y-113629363D01*
X59095929Y-113703251D01*
X59083871Y-113760185D01*
X59064691Y-113811446D01*
X59036747Y-113868315D01*
X59035016Y-113871650D01*
X58945863Y-114001482D01*
X58838166Y-114092764D01*
X58712100Y-114177627D01*
X58686700Y-117440933D01*
X58609828Y-117565245D01*
X58505612Y-117696063D01*
X58377788Y-117785678D01*
X58220798Y-117837142D01*
X58087501Y-117852246D01*
X57890716Y-117861192D01*
X57886600Y-118074410D01*
X57886600Y-117449600D01*
X58027454Y-117449600D01*
X58118335Y-117445077D01*
X58178328Y-117427533D01*
X58226850Y-117391011D01*
X58230654Y-117387255D01*
X58293000Y-117324910D01*
X58293000Y-114198400D01*
X57886600Y-114198400D01*
X57886600Y-117449600D01*
X57886600Y-118074410D01*
X57882308Y-118296746D01*
X57878773Y-118457458D01*
X57874435Y-118577084D01*
X57868010Y-118665339D01*
X57858214Y-118731936D01*
X57843764Y-118786586D01*
X57823376Y-118839005D01*
X57805424Y-118878418D01*
X57701369Y-119049084D01*
X57560569Y-119205886D01*
X57397075Y-119334540D01*
X57305342Y-119386766D01*
X57243650Y-119416518D01*
X57191169Y-119438206D01*
X57138127Y-119453292D01*
X57074750Y-119463240D01*
X56991265Y-119469509D01*
X56877899Y-119473564D01*
X56724878Y-119476865D01*
X56699820Y-119477349D01*
X56261000Y-119485797D01*
X56261000Y-121457000D01*
X56190474Y-121593250D01*
X56113852Y-121709297D01*
X56010784Y-121801124D01*
X55997189Y-121810420D01*
X55997189Y-119071943D01*
X56240134Y-119071614D01*
X56456925Y-119070852D01*
X56643092Y-119069678D01*
X56794168Y-119068109D01*
X56905686Y-119066163D01*
X56973177Y-119063861D01*
X56989312Y-119062539D01*
X57106105Y-119026342D01*
X57226269Y-118957133D01*
X57329986Y-118867096D01*
X57355080Y-118837655D01*
X57376138Y-118810668D01*
X57394642Y-118784741D01*
X57410759Y-118756580D01*
X57424656Y-118722893D01*
X57436500Y-118680389D01*
X57446457Y-118625776D01*
X57454694Y-118555761D01*
X57461377Y-118467052D01*
X57466674Y-118356357D01*
X57470751Y-118220385D01*
X57473775Y-118055843D01*
X57475913Y-117859439D01*
X57477331Y-117627881D01*
X57478195Y-117357877D01*
X57478674Y-117046134D01*
X57478933Y-116689362D01*
X57479085Y-116389150D01*
X57480200Y-114198400D01*
X56667400Y-114198400D01*
X56667400Y-115824000D01*
X54229000Y-115824000D01*
X54229000Y-115417600D01*
X56261000Y-115417600D01*
X56261000Y-114198400D01*
X54229000Y-114198400D01*
X54229000Y-115417600D01*
X54229000Y-115824000D01*
X53822600Y-115824000D01*
X53822600Y-114198400D01*
X53008722Y-114198400D01*
X53015611Y-116427250D01*
X53016748Y-116821167D01*
X53017723Y-117167546D01*
X53018767Y-117469647D01*
X53020109Y-117730731D01*
X53021979Y-117954058D01*
X53024606Y-118142889D01*
X53028221Y-118300483D01*
X53033052Y-118430102D01*
X53039331Y-118535005D01*
X53047286Y-118618454D01*
X53057148Y-118683708D01*
X53069146Y-118734028D01*
X53083511Y-118772675D01*
X53100471Y-118802908D01*
X53120256Y-118827989D01*
X53143097Y-118851177D01*
X53169223Y-118875733D01*
X53189553Y-118895447D01*
X53220722Y-118927433D01*
X53248178Y-118955058D01*
X53275684Y-118978658D01*
X53306997Y-118998565D01*
X53345877Y-119015114D01*
X53396086Y-119028639D01*
X53461382Y-119039474D01*
X53545525Y-119047953D01*
X53652275Y-119054410D01*
X53785392Y-119059178D01*
X53948635Y-119062593D01*
X54145765Y-119064988D01*
X54380540Y-119066696D01*
X54656722Y-119068053D01*
X54978069Y-119069391D01*
X55156100Y-119070155D01*
X55450703Y-119071232D01*
X55732556Y-119071822D01*
X55997189Y-119071943D01*
X55997189Y-121810420D01*
X55987274Y-121817200D01*
X55854600Y-121904899D01*
X55854600Y-123139200D01*
X55041800Y-123139200D01*
X55041800Y-122732800D01*
X55448200Y-122732800D01*
X55448200Y-121920000D01*
X55428501Y-121920000D01*
X55428501Y-121514404D01*
X55571125Y-121513054D01*
X55677992Y-121503905D01*
X55754221Y-121481315D01*
X55804932Y-121439641D01*
X55835244Y-121373238D01*
X55850277Y-121276465D01*
X55855152Y-121143676D01*
X55854987Y-120969230D01*
X55854600Y-120841655D01*
X55854600Y-120294400D01*
X55448200Y-120294400D01*
X55448200Y-119888000D01*
X55854600Y-119888000D01*
X55854600Y-119481600D01*
X54635400Y-119481600D01*
X54635400Y-120700800D01*
X55041800Y-120700800D01*
X55041800Y-121107200D01*
X54635400Y-121107200D01*
X54635400Y-121248055D01*
X54639923Y-121338936D01*
X54657467Y-121398929D01*
X54693989Y-121447451D01*
X54697745Y-121451255D01*
X54720678Y-121472858D01*
X54745080Y-121488788D01*
X54778536Y-121499907D01*
X54828634Y-121507082D01*
X54902961Y-121511175D01*
X55009103Y-121513051D01*
X55154648Y-121513575D01*
X55244999Y-121513600D01*
X55428501Y-121514404D01*
X55428501Y-121920000D01*
X55041800Y-121920000D01*
X55041800Y-122732800D01*
X55041800Y-123139200D01*
X54635400Y-123139200D01*
X54635400Y-121904899D01*
X54502725Y-121817200D01*
X54392544Y-121727369D01*
X54312590Y-121617484D01*
X54299525Y-121593250D01*
X54229000Y-121457000D01*
X54229000Y-119485797D01*
X53790179Y-119477349D01*
X53630848Y-119474036D01*
X53512535Y-119470175D01*
X53425467Y-119464302D01*
X53359872Y-119454955D01*
X53305974Y-119440674D01*
X53254002Y-119419995D01*
X53194181Y-119391456D01*
X53184657Y-119386766D01*
X53014800Y-119278994D01*
X52860134Y-119135445D01*
X52734710Y-118970404D01*
X52684575Y-118878418D01*
X52659405Y-118821956D01*
X52641048Y-118769881D01*
X52628220Y-118712479D01*
X52619638Y-118640037D01*
X52614017Y-118542841D01*
X52610074Y-118411180D01*
X52607691Y-118296746D01*
X52599283Y-117861192D01*
X52462545Y-117854976D01*
X52462545Y-117449600D01*
X52603400Y-117449600D01*
X52603400Y-114198400D01*
X52197000Y-114198400D01*
X52197000Y-117324910D01*
X52259345Y-117387255D01*
X52307789Y-117425479D01*
X52366214Y-117444267D01*
X52454038Y-117449579D01*
X52462545Y-117449600D01*
X52462545Y-117854976D01*
X52402498Y-117852246D01*
X52221234Y-117826203D01*
X52073109Y-117764193D01*
X51952569Y-117663164D01*
X51915290Y-117612744D01*
X51915290Y-113792000D01*
X58574709Y-113792000D01*
X58637054Y-113729655D01*
X58664407Y-113699104D01*
X58682330Y-113665622D01*
X58692805Y-113618282D01*
X58697810Y-113546160D01*
X58699326Y-113438329D01*
X58699400Y-113385600D01*
X58698692Y-113261300D01*
X58695248Y-113176868D01*
X58687090Y-113121379D01*
X58672236Y-113083908D01*
X58648707Y-113053529D01*
X58637054Y-113041546D01*
X58574709Y-112979200D01*
X57886600Y-112979200D01*
X57886600Y-112572800D01*
X58293000Y-112572800D01*
X58293000Y-112228746D01*
X58292573Y-112089946D01*
X58290323Y-111992452D01*
X58284793Y-111926770D01*
X58274527Y-111883408D01*
X58258068Y-111852871D01*
X58233960Y-111825667D01*
X58230654Y-111822346D01*
X58148816Y-111770408D01*
X58089800Y-111760000D01*
X58000652Y-111783745D01*
X57948945Y-111822346D01*
X57923871Y-111849773D01*
X57906612Y-111879449D01*
X57895712Y-111920866D01*
X57889714Y-111983518D01*
X57887163Y-112076898D01*
X57886602Y-112210498D01*
X57886600Y-112228746D01*
X57886600Y-112572800D01*
X57886600Y-112979200D01*
X53822600Y-112979200D01*
X53822600Y-112572800D01*
X54229000Y-112572800D01*
X54229000Y-111556800D01*
X54635400Y-111556800D01*
X54635400Y-112572800D01*
X55041800Y-112572800D01*
X55041800Y-111556800D01*
X55448200Y-111556800D01*
X55448200Y-112572800D01*
X55854600Y-112572800D01*
X55854600Y-111556800D01*
X56261000Y-111556800D01*
X56261000Y-112572800D01*
X56667400Y-112572800D01*
X56667400Y-110947200D01*
X53822600Y-110947200D01*
X53822600Y-112572800D01*
X53822600Y-112979200D01*
X52197000Y-112979200D01*
X52197000Y-112572800D01*
X52603400Y-112572800D01*
X52603400Y-112228746D01*
X52602973Y-112089946D01*
X52600723Y-111992452D01*
X52595193Y-111926770D01*
X52584927Y-111883408D01*
X52568468Y-111852871D01*
X52544360Y-111825667D01*
X52541054Y-111822346D01*
X52459216Y-111770408D01*
X52400200Y-111760000D01*
X52311052Y-111783745D01*
X52259345Y-111822346D01*
X52234271Y-111849773D01*
X52217012Y-111879449D01*
X52206112Y-111920866D01*
X52200114Y-111983518D01*
X52197563Y-112076898D01*
X52197002Y-112210498D01*
X52197000Y-112228746D01*
X52197000Y-112572800D01*
X52197000Y-112979200D01*
X51915290Y-112979200D01*
X51852945Y-113041546D01*
X51825592Y-113072097D01*
X51807669Y-113105579D01*
X51797194Y-113152919D01*
X51792189Y-113225041D01*
X51790673Y-113332872D01*
X51790600Y-113385600D01*
X51791307Y-113509901D01*
X51794751Y-113594333D01*
X51802909Y-113649822D01*
X51817763Y-113687293D01*
X51841292Y-113717672D01*
X51852945Y-113729655D01*
X51915290Y-113792000D01*
X51915290Y-117612744D01*
X51880171Y-117565245D01*
X51803300Y-117440933D01*
X51777900Y-114177627D01*
X51651833Y-114092764D01*
X51533753Y-113989820D01*
X51454983Y-113871650D01*
X51426535Y-113814178D01*
X51406939Y-113762903D01*
X51394550Y-113706544D01*
X51387725Y-113633820D01*
X51384823Y-113533450D01*
X51384200Y-113394153D01*
X51384199Y-113385601D01*
X51384749Y-113243961D01*
G36*
X71551800Y-114604800D02*
G01*
X71551800Y-115011200D01*
X71145400Y-115011200D01*
X71145400Y-114604800D01*
X71551800Y-114604800D01*
G37*
X71551800Y-114604800D02*
X71551800Y-115011200D01*
X71145400Y-115011200D01*
X71145400Y-114604800D01*
X71551800Y-114604800D01*
G36*
X72364600Y-114604800D02*
G01*
X72364600Y-115011200D01*
X71958200Y-115011200D01*
X71958200Y-114604800D01*
X72364600Y-114604800D01*
G37*
X72364600Y-114604800D02*
X72364600Y-115011200D01*
X71958200Y-115011200D01*
X71958200Y-114604800D01*
X72364600Y-114604800D01*
G36*
X73177400Y-116636800D02*
G01*
X73177400Y-117043200D01*
X70332600Y-117043200D01*
X70332600Y-116636800D01*
X73177400Y-116636800D01*
G37*
X73177400Y-116636800D02*
X73177400Y-117043200D01*
X70332600Y-117043200D01*
X70332600Y-116636800D01*
X73177400Y-116636800D01*
G36*
X73177400Y-117449600D02*
G01*
X73177400Y-117856000D01*
X70332600Y-117856000D01*
X70332600Y-117449600D01*
X73177400Y-117449600D01*
G37*
X73177400Y-117449600D02*
X73177400Y-117856000D01*
X70332600Y-117856000D01*
X70332600Y-117449600D01*
X73177400Y-117449600D01*
G36*
X73177400Y-118262400D02*
G01*
X73177400Y-118668800D01*
X70332600Y-118668800D01*
X70332600Y-118262400D01*
X73177400Y-118262400D01*
G37*
X73177400Y-118262400D02*
X73177400Y-118668800D01*
X70332600Y-118668800D01*
X70332600Y-118262400D01*
X73177400Y-118262400D01*
G36*
X67894749Y-113243961D02*
G01*
X67897491Y-113141838D01*
X67904070Y-113067950D01*
X67916128Y-113011016D01*
X67935308Y-112959755D01*
X67963252Y-112902886D01*
X67964983Y-112899551D01*
X68053906Y-112769972D01*
X68161833Y-112678514D01*
X68287900Y-112593727D01*
X68300600Y-112181089D01*
X68305644Y-112027053D01*
X68310891Y-111914258D01*
X68317934Y-111833165D01*
X68328362Y-111774235D01*
X68343769Y-111727928D01*
X68365745Y-111684705D01*
X68390171Y-111644248D01*
X68487990Y-111524636D01*
X68591379Y-111443172D01*
X68663332Y-111402496D01*
X68727332Y-111379262D01*
X68802892Y-111368765D01*
X68909527Y-111366301D01*
X68910199Y-111366300D01*
X69017049Y-111368736D01*
X69092720Y-111379178D01*
X69156729Y-111402333D01*
X69228590Y-111442906D01*
X69229020Y-111443172D01*
X69348753Y-111540971D01*
X69430228Y-111644253D01*
X69459151Y-111692505D01*
X69479905Y-111735377D01*
X69494057Y-111782570D01*
X69503173Y-111843786D01*
X69508818Y-111928725D01*
X69512558Y-112047090D01*
X69515197Y-112170631D01*
X69523295Y-112572800D01*
X69926200Y-112572800D01*
X69926200Y-110540800D01*
X73583800Y-110540800D01*
X73583800Y-112572800D01*
X73986704Y-112572800D01*
X73994802Y-112170631D01*
X73998145Y-112018996D01*
X74002156Y-111908451D01*
X74008399Y-111829295D01*
X74018442Y-111771827D01*
X74033850Y-111726345D01*
X74056189Y-111683148D01*
X74079771Y-111644253D01*
X74177609Y-111524617D01*
X74280979Y-111443172D01*
X74352932Y-111402496D01*
X74416932Y-111379262D01*
X74492492Y-111368765D01*
X74599127Y-111366301D01*
X74599800Y-111366300D01*
X74706649Y-111368736D01*
X74782320Y-111379178D01*
X74846329Y-111402333D01*
X74918190Y-111442906D01*
X74918620Y-111443172D01*
X75038333Y-111540950D01*
X75119828Y-111644248D01*
X75148481Y-111692172D01*
X75169240Y-111735246D01*
X75183697Y-111783010D01*
X75193444Y-111845003D01*
X75200073Y-111930765D01*
X75205175Y-112049834D01*
X75209400Y-112181089D01*
X75222100Y-112593727D01*
X75348166Y-112678514D01*
X75466041Y-112781142D01*
X75545016Y-112899551D01*
X75573464Y-112957023D01*
X75593060Y-113008298D01*
X75605449Y-113064657D01*
X75612274Y-113137381D01*
X75615176Y-113237751D01*
X75615799Y-113377048D01*
X75615800Y-113385600D01*
X75615250Y-113527240D01*
X75612508Y-113629363D01*
X75605929Y-113703251D01*
X75593871Y-113760185D01*
X75574691Y-113811446D01*
X75546747Y-113868315D01*
X75545016Y-113871650D01*
X75455863Y-114001482D01*
X75348166Y-114092764D01*
X75222100Y-114177627D01*
X75196700Y-117440933D01*
X75119828Y-117565245D01*
X75015612Y-117696063D01*
X74887788Y-117785678D01*
X74730798Y-117837142D01*
X74597501Y-117852246D01*
X74400716Y-117861192D01*
X74396600Y-118074410D01*
X74396600Y-117449600D01*
X74537454Y-117449600D01*
X74628335Y-117445077D01*
X74688328Y-117427533D01*
X74736850Y-117391011D01*
X74740654Y-117387255D01*
X74803000Y-117324910D01*
X74803000Y-114198400D01*
X74396600Y-114198400D01*
X74396600Y-117449600D01*
X74396600Y-118074410D01*
X74392308Y-118296746D01*
X74388773Y-118457458D01*
X74384435Y-118577084D01*
X74378010Y-118665339D01*
X74368214Y-118731936D01*
X74353764Y-118786586D01*
X74333376Y-118839005D01*
X74315424Y-118878418D01*
X74211369Y-119049084D01*
X74070569Y-119205886D01*
X73907075Y-119334540D01*
X73815342Y-119386766D01*
X73753650Y-119416518D01*
X73701169Y-119438206D01*
X73648127Y-119453292D01*
X73584750Y-119463240D01*
X73501265Y-119469509D01*
X73387899Y-119473564D01*
X73234878Y-119476865D01*
X73209820Y-119477349D01*
X72771000Y-119485797D01*
X72771000Y-121457000D01*
X72700474Y-121593250D01*
X72623852Y-121709297D01*
X72520784Y-121801124D01*
X72507189Y-121810420D01*
X72507189Y-119071943D01*
X72750134Y-119071614D01*
X72966925Y-119070852D01*
X73153092Y-119069678D01*
X73304168Y-119068109D01*
X73415686Y-119066163D01*
X73483177Y-119063861D01*
X73499312Y-119062539D01*
X73616105Y-119026342D01*
X73736269Y-118957133D01*
X73839986Y-118867096D01*
X73865080Y-118837655D01*
X73886138Y-118810668D01*
X73904642Y-118784741D01*
X73920759Y-118756580D01*
X73934656Y-118722893D01*
X73946500Y-118680389D01*
X73956457Y-118625776D01*
X73964694Y-118555761D01*
X73971377Y-118467052D01*
X73976674Y-118356357D01*
X73980751Y-118220385D01*
X73983775Y-118055843D01*
X73985913Y-117859439D01*
X73987331Y-117627881D01*
X73988195Y-117357877D01*
X73988674Y-117046134D01*
X73988933Y-116689362D01*
X73989085Y-116389150D01*
X73990200Y-114198400D01*
X73177400Y-114198400D01*
X73177400Y-115824000D01*
X70739000Y-115824000D01*
X70739000Y-115417600D01*
X72771000Y-115417600D01*
X72771000Y-114198400D01*
X70739000Y-114198400D01*
X70739000Y-115417600D01*
X70739000Y-115824000D01*
X70332600Y-115824000D01*
X70332600Y-114198400D01*
X69518722Y-114198400D01*
X69525611Y-116427250D01*
X69526748Y-116821167D01*
X69527723Y-117167546D01*
X69528767Y-117469647D01*
X69530109Y-117730731D01*
X69531979Y-117954058D01*
X69534606Y-118142889D01*
X69538221Y-118300483D01*
X69543052Y-118430102D01*
X69549331Y-118535005D01*
X69557286Y-118618454D01*
X69567148Y-118683708D01*
X69579146Y-118734028D01*
X69593511Y-118772675D01*
X69610471Y-118802908D01*
X69630256Y-118827989D01*
X69653097Y-118851177D01*
X69679223Y-118875733D01*
X69699553Y-118895447D01*
X69730722Y-118927433D01*
X69758178Y-118955058D01*
X69785684Y-118978658D01*
X69816997Y-118998565D01*
X69855877Y-119015114D01*
X69906086Y-119028639D01*
X69971382Y-119039474D01*
X70055525Y-119047953D01*
X70162275Y-119054410D01*
X70295392Y-119059178D01*
X70458635Y-119062593D01*
X70655765Y-119064988D01*
X70890540Y-119066696D01*
X71166722Y-119068053D01*
X71488069Y-119069391D01*
X71666100Y-119070155D01*
X71960703Y-119071232D01*
X72242556Y-119071822D01*
X72507189Y-119071943D01*
X72507189Y-121810420D01*
X72497274Y-121817200D01*
X72364600Y-121904899D01*
X72364600Y-123139200D01*
X71551800Y-123139200D01*
X71551800Y-122732800D01*
X71958200Y-122732800D01*
X71958200Y-121920000D01*
X71938501Y-121920000D01*
X71938501Y-121514404D01*
X72081125Y-121513054D01*
X72187992Y-121503905D01*
X72264221Y-121481315D01*
X72314932Y-121439641D01*
X72345244Y-121373238D01*
X72360277Y-121276465D01*
X72365152Y-121143676D01*
X72364987Y-120969230D01*
X72364600Y-120841655D01*
X72364600Y-120294400D01*
X71958200Y-120294400D01*
X71958200Y-119888000D01*
X72364600Y-119888000D01*
X72364600Y-119481600D01*
X71145400Y-119481600D01*
X71145400Y-120700800D01*
X71551800Y-120700800D01*
X71551800Y-121107200D01*
X71145400Y-121107200D01*
X71145400Y-121248055D01*
X71149923Y-121338936D01*
X71167467Y-121398929D01*
X71203989Y-121447451D01*
X71207745Y-121451255D01*
X71230678Y-121472858D01*
X71255080Y-121488788D01*
X71288536Y-121499907D01*
X71338634Y-121507082D01*
X71412961Y-121511175D01*
X71519103Y-121513051D01*
X71664648Y-121513575D01*
X71754999Y-121513600D01*
X71938501Y-121514404D01*
X71938501Y-121920000D01*
X71551800Y-121920000D01*
X71551800Y-122732800D01*
X71551800Y-123139200D01*
X71145400Y-123139200D01*
X71145400Y-121904899D01*
X71012725Y-121817200D01*
X70902544Y-121727369D01*
X70822590Y-121617484D01*
X70809525Y-121593250D01*
X70739000Y-121457000D01*
X70739000Y-119485797D01*
X70300179Y-119477349D01*
X70140848Y-119474036D01*
X70022535Y-119470175D01*
X69935467Y-119464302D01*
X69869872Y-119454955D01*
X69815974Y-119440674D01*
X69764002Y-119419995D01*
X69704181Y-119391456D01*
X69694657Y-119386766D01*
X69524800Y-119278994D01*
X69370134Y-119135445D01*
X69244710Y-118970404D01*
X69194575Y-118878418D01*
X69169405Y-118821956D01*
X69151048Y-118769881D01*
X69138220Y-118712479D01*
X69129638Y-118640037D01*
X69124017Y-118542841D01*
X69120074Y-118411180D01*
X69117691Y-118296746D01*
X69109283Y-117861192D01*
X68972545Y-117854976D01*
X68972545Y-117449600D01*
X69113400Y-117449600D01*
X69113400Y-114198400D01*
X68707000Y-114198400D01*
X68707000Y-117324910D01*
X68769345Y-117387255D01*
X68817789Y-117425479D01*
X68876214Y-117444267D01*
X68964038Y-117449579D01*
X68972545Y-117449600D01*
X68972545Y-117854976D01*
X68912498Y-117852246D01*
X68731234Y-117826203D01*
X68583109Y-117764193D01*
X68462569Y-117663164D01*
X68425290Y-117612744D01*
X68425290Y-113792000D01*
X75084709Y-113792000D01*
X75147054Y-113729655D01*
X75174407Y-113699104D01*
X75192330Y-113665622D01*
X75202805Y-113618282D01*
X75207810Y-113546160D01*
X75209326Y-113438329D01*
X75209400Y-113385600D01*
X75208692Y-113261300D01*
X75205248Y-113176868D01*
X75197090Y-113121379D01*
X75182236Y-113083908D01*
X75158707Y-113053529D01*
X75147054Y-113041546D01*
X75084709Y-112979200D01*
X74396600Y-112979200D01*
X74396600Y-112572800D01*
X74803000Y-112572800D01*
X74803000Y-112228746D01*
X74802573Y-112089946D01*
X74800323Y-111992452D01*
X74794793Y-111926770D01*
X74784527Y-111883408D01*
X74768068Y-111852871D01*
X74743960Y-111825667D01*
X74740654Y-111822346D01*
X74658816Y-111770408D01*
X74599800Y-111760000D01*
X74510652Y-111783745D01*
X74458945Y-111822346D01*
X74433871Y-111849773D01*
X74416612Y-111879449D01*
X74405712Y-111920866D01*
X74399714Y-111983518D01*
X74397163Y-112076898D01*
X74396602Y-112210498D01*
X74396600Y-112228746D01*
X74396600Y-112572800D01*
X74396600Y-112979200D01*
X70332600Y-112979200D01*
X70332600Y-112572800D01*
X70739000Y-112572800D01*
X70739000Y-111556800D01*
X71145400Y-111556800D01*
X71145400Y-112572800D01*
X71551800Y-112572800D01*
X71551800Y-111556800D01*
X71958200Y-111556800D01*
X71958200Y-112572800D01*
X72364600Y-112572800D01*
X72364600Y-111556800D01*
X72771000Y-111556800D01*
X72771000Y-112572800D01*
X73177400Y-112572800D01*
X73177400Y-110947200D01*
X70332600Y-110947200D01*
X70332600Y-112572800D01*
X70332600Y-112979200D01*
X68707000Y-112979200D01*
X68707000Y-112572800D01*
X69113400Y-112572800D01*
X69113400Y-112228746D01*
X69112973Y-112089946D01*
X69110723Y-111992452D01*
X69105193Y-111926770D01*
X69094927Y-111883408D01*
X69078468Y-111852871D01*
X69054360Y-111825667D01*
X69051054Y-111822346D01*
X68969216Y-111770408D01*
X68910200Y-111760000D01*
X68821052Y-111783745D01*
X68769345Y-111822346D01*
X68744271Y-111849773D01*
X68727012Y-111879449D01*
X68716112Y-111920866D01*
X68710114Y-111983518D01*
X68707563Y-112076898D01*
X68707002Y-112210498D01*
X68707000Y-112228746D01*
X68707000Y-112572800D01*
X68707000Y-112979200D01*
X68425290Y-112979200D01*
X68362945Y-113041546D01*
X68335592Y-113072097D01*
X68317669Y-113105579D01*
X68307194Y-113152919D01*
X68302189Y-113225041D01*
X68300673Y-113332872D01*
X68300600Y-113385600D01*
X68301307Y-113509901D01*
X68304751Y-113594333D01*
X68312909Y-113649822D01*
X68327763Y-113687293D01*
X68351292Y-113717672D01*
X68362945Y-113729655D01*
X68425290Y-113792000D01*
X68425290Y-117612744D01*
X68390171Y-117565245D01*
X68313300Y-117440933D01*
X68287900Y-114177627D01*
X68161833Y-114092764D01*
X68043753Y-113989820D01*
X67964983Y-113871650D01*
X67936535Y-113814178D01*
X67916939Y-113762903D01*
X67904550Y-113706544D01*
X67897725Y-113633820D01*
X67894823Y-113533450D01*
X67894200Y-113394153D01*
X67894199Y-113385601D01*
X67894749Y-113243961D01*
G37*
X67894749Y-113243961D02*
X67897491Y-113141838D01*
X67904070Y-113067950D01*
X67916128Y-113011016D01*
X67935308Y-112959755D01*
X67963252Y-112902886D01*
X67964983Y-112899551D01*
X68053906Y-112769972D01*
X68161833Y-112678514D01*
X68287900Y-112593727D01*
X68300600Y-112181089D01*
X68305644Y-112027053D01*
X68310891Y-111914258D01*
X68317934Y-111833165D01*
X68328362Y-111774235D01*
X68343769Y-111727928D01*
X68365745Y-111684705D01*
X68390171Y-111644248D01*
X68487990Y-111524636D01*
X68591379Y-111443172D01*
X68663332Y-111402496D01*
X68727332Y-111379262D01*
X68802892Y-111368765D01*
X68909527Y-111366301D01*
X68910199Y-111366300D01*
X69017049Y-111368736D01*
X69092720Y-111379178D01*
X69156729Y-111402333D01*
X69228590Y-111442906D01*
X69229020Y-111443172D01*
X69348753Y-111540971D01*
X69430228Y-111644253D01*
X69459151Y-111692505D01*
X69479905Y-111735377D01*
X69494057Y-111782570D01*
X69503173Y-111843786D01*
X69508818Y-111928725D01*
X69512558Y-112047090D01*
X69515197Y-112170631D01*
X69523295Y-112572800D01*
X69926200Y-112572800D01*
X69926200Y-110540800D01*
X73583800Y-110540800D01*
X73583800Y-112572800D01*
X73986704Y-112572800D01*
X73994802Y-112170631D01*
X73998145Y-112018996D01*
X74002156Y-111908451D01*
X74008399Y-111829295D01*
X74018442Y-111771827D01*
X74033850Y-111726345D01*
X74056189Y-111683148D01*
X74079771Y-111644253D01*
X74177609Y-111524617D01*
X74280979Y-111443172D01*
X74352932Y-111402496D01*
X74416932Y-111379262D01*
X74492492Y-111368765D01*
X74599127Y-111366301D01*
X74599800Y-111366300D01*
X74706649Y-111368736D01*
X74782320Y-111379178D01*
X74846329Y-111402333D01*
X74918190Y-111442906D01*
X74918620Y-111443172D01*
X75038333Y-111540950D01*
X75119828Y-111644248D01*
X75148481Y-111692172D01*
X75169240Y-111735246D01*
X75183697Y-111783010D01*
X75193444Y-111845003D01*
X75200073Y-111930765D01*
X75205175Y-112049834D01*
X75209400Y-112181089D01*
X75222100Y-112593727D01*
X75348166Y-112678514D01*
X75466041Y-112781142D01*
X75545016Y-112899551D01*
X75573464Y-112957023D01*
X75593060Y-113008298D01*
X75605449Y-113064657D01*
X75612274Y-113137381D01*
X75615176Y-113237751D01*
X75615799Y-113377048D01*
X75615800Y-113385600D01*
X75615250Y-113527240D01*
X75612508Y-113629363D01*
X75605929Y-113703251D01*
X75593871Y-113760185D01*
X75574691Y-113811446D01*
X75546747Y-113868315D01*
X75545016Y-113871650D01*
X75455863Y-114001482D01*
X75348166Y-114092764D01*
X75222100Y-114177627D01*
X75196700Y-117440933D01*
X75119828Y-117565245D01*
X75015612Y-117696063D01*
X74887788Y-117785678D01*
X74730798Y-117837142D01*
X74597501Y-117852246D01*
X74400716Y-117861192D01*
X74396600Y-118074410D01*
X74396600Y-117449600D01*
X74537454Y-117449600D01*
X74628335Y-117445077D01*
X74688328Y-117427533D01*
X74736850Y-117391011D01*
X74740654Y-117387255D01*
X74803000Y-117324910D01*
X74803000Y-114198400D01*
X74396600Y-114198400D01*
X74396600Y-117449600D01*
X74396600Y-118074410D01*
X74392308Y-118296746D01*
X74388773Y-118457458D01*
X74384435Y-118577084D01*
X74378010Y-118665339D01*
X74368214Y-118731936D01*
X74353764Y-118786586D01*
X74333376Y-118839005D01*
X74315424Y-118878418D01*
X74211369Y-119049084D01*
X74070569Y-119205886D01*
X73907075Y-119334540D01*
X73815342Y-119386766D01*
X73753650Y-119416518D01*
X73701169Y-119438206D01*
X73648127Y-119453292D01*
X73584750Y-119463240D01*
X73501265Y-119469509D01*
X73387899Y-119473564D01*
X73234878Y-119476865D01*
X73209820Y-119477349D01*
X72771000Y-119485797D01*
X72771000Y-121457000D01*
X72700474Y-121593250D01*
X72623852Y-121709297D01*
X72520784Y-121801124D01*
X72507189Y-121810420D01*
X72507189Y-119071943D01*
X72750134Y-119071614D01*
X72966925Y-119070852D01*
X73153092Y-119069678D01*
X73304168Y-119068109D01*
X73415686Y-119066163D01*
X73483177Y-119063861D01*
X73499312Y-119062539D01*
X73616105Y-119026342D01*
X73736269Y-118957133D01*
X73839986Y-118867096D01*
X73865080Y-118837655D01*
X73886138Y-118810668D01*
X73904642Y-118784741D01*
X73920759Y-118756580D01*
X73934656Y-118722893D01*
X73946500Y-118680389D01*
X73956457Y-118625776D01*
X73964694Y-118555761D01*
X73971377Y-118467052D01*
X73976674Y-118356357D01*
X73980751Y-118220385D01*
X73983775Y-118055843D01*
X73985913Y-117859439D01*
X73987331Y-117627881D01*
X73988195Y-117357877D01*
X73988674Y-117046134D01*
X73988933Y-116689362D01*
X73989085Y-116389150D01*
X73990200Y-114198400D01*
X73177400Y-114198400D01*
X73177400Y-115824000D01*
X70739000Y-115824000D01*
X70739000Y-115417600D01*
X72771000Y-115417600D01*
X72771000Y-114198400D01*
X70739000Y-114198400D01*
X70739000Y-115417600D01*
X70739000Y-115824000D01*
X70332600Y-115824000D01*
X70332600Y-114198400D01*
X69518722Y-114198400D01*
X69525611Y-116427250D01*
X69526748Y-116821167D01*
X69527723Y-117167546D01*
X69528767Y-117469647D01*
X69530109Y-117730731D01*
X69531979Y-117954058D01*
X69534606Y-118142889D01*
X69538221Y-118300483D01*
X69543052Y-118430102D01*
X69549331Y-118535005D01*
X69557286Y-118618454D01*
X69567148Y-118683708D01*
X69579146Y-118734028D01*
X69593511Y-118772675D01*
X69610471Y-118802908D01*
X69630256Y-118827989D01*
X69653097Y-118851177D01*
X69679223Y-118875733D01*
X69699553Y-118895447D01*
X69730722Y-118927433D01*
X69758178Y-118955058D01*
X69785684Y-118978658D01*
X69816997Y-118998565D01*
X69855877Y-119015114D01*
X69906086Y-119028639D01*
X69971382Y-119039474D01*
X70055525Y-119047953D01*
X70162275Y-119054410D01*
X70295392Y-119059178D01*
X70458635Y-119062593D01*
X70655765Y-119064988D01*
X70890540Y-119066696D01*
X71166722Y-119068053D01*
X71488069Y-119069391D01*
X71666100Y-119070155D01*
X71960703Y-119071232D01*
X72242556Y-119071822D01*
X72507189Y-119071943D01*
X72507189Y-121810420D01*
X72497274Y-121817200D01*
X72364600Y-121904899D01*
X72364600Y-123139200D01*
X71551800Y-123139200D01*
X71551800Y-122732800D01*
X71958200Y-122732800D01*
X71958200Y-121920000D01*
X71938501Y-121920000D01*
X71938501Y-121514404D01*
X72081125Y-121513054D01*
X72187992Y-121503905D01*
X72264221Y-121481315D01*
X72314932Y-121439641D01*
X72345244Y-121373238D01*
X72360277Y-121276465D01*
X72365152Y-121143676D01*
X72364987Y-120969230D01*
X72364600Y-120841655D01*
X72364600Y-120294400D01*
X71958200Y-120294400D01*
X71958200Y-119888000D01*
X72364600Y-119888000D01*
X72364600Y-119481600D01*
X71145400Y-119481600D01*
X71145400Y-120700800D01*
X71551800Y-120700800D01*
X71551800Y-121107200D01*
X71145400Y-121107200D01*
X71145400Y-121248055D01*
X71149923Y-121338936D01*
X71167467Y-121398929D01*
X71203989Y-121447451D01*
X71207745Y-121451255D01*
X71230678Y-121472858D01*
X71255080Y-121488788D01*
X71288536Y-121499907D01*
X71338634Y-121507082D01*
X71412961Y-121511175D01*
X71519103Y-121513051D01*
X71664648Y-121513575D01*
X71754999Y-121513600D01*
X71938501Y-121514404D01*
X71938501Y-121920000D01*
X71551800Y-121920000D01*
X71551800Y-122732800D01*
X71551800Y-123139200D01*
X71145400Y-123139200D01*
X71145400Y-121904899D01*
X71012725Y-121817200D01*
X70902544Y-121727369D01*
X70822590Y-121617484D01*
X70809525Y-121593250D01*
X70739000Y-121457000D01*
X70739000Y-119485797D01*
X70300179Y-119477349D01*
X70140848Y-119474036D01*
X70022535Y-119470175D01*
X69935467Y-119464302D01*
X69869872Y-119454955D01*
X69815974Y-119440674D01*
X69764002Y-119419995D01*
X69704181Y-119391456D01*
X69694657Y-119386766D01*
X69524800Y-119278994D01*
X69370134Y-119135445D01*
X69244710Y-118970404D01*
X69194575Y-118878418D01*
X69169405Y-118821956D01*
X69151048Y-118769881D01*
X69138220Y-118712479D01*
X69129638Y-118640037D01*
X69124017Y-118542841D01*
X69120074Y-118411180D01*
X69117691Y-118296746D01*
X69109283Y-117861192D01*
X68972545Y-117854976D01*
X68972545Y-117449600D01*
X69113400Y-117449600D01*
X69113400Y-114198400D01*
X68707000Y-114198400D01*
X68707000Y-117324910D01*
X68769345Y-117387255D01*
X68817789Y-117425479D01*
X68876214Y-117444267D01*
X68964038Y-117449579D01*
X68972545Y-117449600D01*
X68972545Y-117854976D01*
X68912498Y-117852246D01*
X68731234Y-117826203D01*
X68583109Y-117764193D01*
X68462569Y-117663164D01*
X68425290Y-117612744D01*
X68425290Y-113792000D01*
X75084709Y-113792000D01*
X75147054Y-113729655D01*
X75174407Y-113699104D01*
X75192330Y-113665622D01*
X75202805Y-113618282D01*
X75207810Y-113546160D01*
X75209326Y-113438329D01*
X75209400Y-113385600D01*
X75208692Y-113261300D01*
X75205248Y-113176868D01*
X75197090Y-113121379D01*
X75182236Y-113083908D01*
X75158707Y-113053529D01*
X75147054Y-113041546D01*
X75084709Y-112979200D01*
X74396600Y-112979200D01*
X74396600Y-112572800D01*
X74803000Y-112572800D01*
X74803000Y-112228746D01*
X74802573Y-112089946D01*
X74800323Y-111992452D01*
X74794793Y-111926770D01*
X74784527Y-111883408D01*
X74768068Y-111852871D01*
X74743960Y-111825667D01*
X74740654Y-111822346D01*
X74658816Y-111770408D01*
X74599800Y-111760000D01*
X74510652Y-111783745D01*
X74458945Y-111822346D01*
X74433871Y-111849773D01*
X74416612Y-111879449D01*
X74405712Y-111920866D01*
X74399714Y-111983518D01*
X74397163Y-112076898D01*
X74396602Y-112210498D01*
X74396600Y-112228746D01*
X74396600Y-112572800D01*
X74396600Y-112979200D01*
X70332600Y-112979200D01*
X70332600Y-112572800D01*
X70739000Y-112572800D01*
X70739000Y-111556800D01*
X71145400Y-111556800D01*
X71145400Y-112572800D01*
X71551800Y-112572800D01*
X71551800Y-111556800D01*
X71958200Y-111556800D01*
X71958200Y-112572800D01*
X72364600Y-112572800D01*
X72364600Y-111556800D01*
X72771000Y-111556800D01*
X72771000Y-112572800D01*
X73177400Y-112572800D01*
X73177400Y-110947200D01*
X70332600Y-110947200D01*
X70332600Y-112572800D01*
X70332600Y-112979200D01*
X68707000Y-112979200D01*
X68707000Y-112572800D01*
X69113400Y-112572800D01*
X69113400Y-112228746D01*
X69112973Y-112089946D01*
X69110723Y-111992452D01*
X69105193Y-111926770D01*
X69094927Y-111883408D01*
X69078468Y-111852871D01*
X69054360Y-111825667D01*
X69051054Y-111822346D01*
X68969216Y-111770408D01*
X68910200Y-111760000D01*
X68821052Y-111783745D01*
X68769345Y-111822346D01*
X68744271Y-111849773D01*
X68727012Y-111879449D01*
X68716112Y-111920866D01*
X68710114Y-111983518D01*
X68707563Y-112076898D01*
X68707002Y-112210498D01*
X68707000Y-112228746D01*
X68707000Y-112572800D01*
X68707000Y-112979200D01*
X68425290Y-112979200D01*
X68362945Y-113041546D01*
X68335592Y-113072097D01*
X68317669Y-113105579D01*
X68307194Y-113152919D01*
X68302189Y-113225041D01*
X68300673Y-113332872D01*
X68300600Y-113385600D01*
X68301307Y-113509901D01*
X68304751Y-113594333D01*
X68312909Y-113649822D01*
X68327763Y-113687293D01*
X68351292Y-113717672D01*
X68362945Y-113729655D01*
X68425290Y-113792000D01*
X68425290Y-117612744D01*
X68390171Y-117565245D01*
X68313300Y-117440933D01*
X68287900Y-114177627D01*
X68161833Y-114092764D01*
X68043753Y-113989820D01*
X67964983Y-113871650D01*
X67936535Y-113814178D01*
X67916939Y-113762903D01*
X67904550Y-113706544D01*
X67897725Y-113633820D01*
X67894823Y-113533450D01*
X67894200Y-113394153D01*
X67894199Y-113385601D01*
X67894749Y-113243961D01*
D11*
X78937000Y-96402500D02*
X78937000Y-106882500D01*
X78937000Y-106882500D02*
X47967000Y-106882500D01*
X47967000Y-106882500D02*
X47967000Y-96402500D01*
X58162000Y-107776838D02*
X57662000Y-107776838D01*
X57662000Y-107776838D02*
X57912000Y-107343825D01*
X57912000Y-107343825D02*
X58162000Y-107776838D01*
X63241422Y-119686000D02*
X63758578Y-119686000D01*
X63241422Y-121106000D02*
X63758578Y-121106000D01*
X66500000Y-113733000D02*
X59740000Y-113733000D01*
X59740000Y-113733000D02*
X59740000Y-117153000D01*
X59740000Y-117153000D02*
X66500000Y-117153000D01*
X57408578Y-127560000D02*
X56891422Y-127560000D01*
X57408578Y-128980000D02*
X56891422Y-128980000D01*
X57408578Y-132790000D02*
X56891422Y-132790000D01*
X57408578Y-131370000D02*
X56891422Y-131370000D01*
X58170578Y-140260000D02*
X57653422Y-140260000D01*
X58170578Y-141680000D02*
X57653422Y-141680000D01*
X69346578Y-141680000D02*
X68829422Y-141680000D01*
X69346578Y-140260000D02*
X68829422Y-140260000D01*
X57446678Y-146760000D02*
X56929522Y-146760000D01*
X57446678Y-145340000D02*
X56929522Y-145340000D01*
X59313578Y-146760000D02*
X58796422Y-146760000D01*
X59313578Y-145340000D02*
X58796422Y-145340000D01*
X67580000Y-147010000D02*
X70265000Y-147010000D01*
X70265000Y-147010000D02*
X70265000Y-145090000D01*
X70265000Y-145090000D02*
X67580000Y-145090000D01*
X63241422Y-145340000D02*
X63758578Y-145340000D01*
X63241422Y-146760000D02*
X63758578Y-146760000D01*
X63241422Y-141680000D02*
X63758578Y-141680000D01*
X63241422Y-140260000D02*
X63758578Y-140260000D01*
X63500000Y-137140000D02*
X65450000Y-137140000D01*
X63500000Y-137140000D02*
X61550000Y-137140000D01*
X63500000Y-127020000D02*
X65450000Y-127020000D01*
X63500000Y-127020000D02*
X60050000Y-127020000D01*
D10*
X63373000Y-119017142D02*
X63336714Y-119053428D01*
X63227857Y-119089714D01*
X63155285Y-119089714D01*
X63046428Y-119053428D01*
X62973857Y-118980857D01*
X62937571Y-118908285D01*
X62901285Y-118763142D01*
X62901285Y-118654285D01*
X62937571Y-118509142D01*
X62973857Y-118436571D01*
X63046428Y-118364000D01*
X63155285Y-118327714D01*
X63227857Y-118327714D01*
X63336714Y-118364000D01*
X63373000Y-118400285D01*
X64098714Y-119089714D02*
X63663285Y-119089714D01*
X63881000Y-119089714D02*
X63881000Y-118327714D01*
X63808428Y-118436571D01*
X63735857Y-118509142D01*
X63663285Y-118545428D01*
X63373000Y-113175142D02*
X63336714Y-113211428D01*
X63227857Y-113247714D01*
X63155285Y-113247714D01*
X63046428Y-113211428D01*
X62973857Y-113138857D01*
X62937571Y-113066285D01*
X62901285Y-112921142D01*
X62901285Y-112812285D01*
X62937571Y-112667142D01*
X62973857Y-112594571D01*
X63046428Y-112522000D01*
X63155285Y-112485714D01*
X63227857Y-112485714D01*
X63336714Y-112522000D01*
X63373000Y-112558285D01*
X63663285Y-112558285D02*
X63699571Y-112522000D01*
X63772142Y-112485714D01*
X63953571Y-112485714D01*
X64026142Y-112522000D01*
X64062428Y-112558285D01*
X64098714Y-112630857D01*
X64098714Y-112703428D01*
X64062428Y-112812285D01*
X63627000Y-113247714D01*
X64098714Y-113247714D01*
X57023000Y-126891142D02*
X56986714Y-126927428D01*
X56877857Y-126963714D01*
X56805285Y-126963714D01*
X56696428Y-126927428D01*
X56623857Y-126854857D01*
X56587571Y-126782285D01*
X56551285Y-126637142D01*
X56551285Y-126528285D01*
X56587571Y-126383142D01*
X56623857Y-126310571D01*
X56696428Y-126238000D01*
X56805285Y-126201714D01*
X56877857Y-126201714D01*
X56986714Y-126238000D01*
X57023000Y-126274285D01*
X57277000Y-126201714D02*
X57748714Y-126201714D01*
X57494714Y-126492000D01*
X57603571Y-126492000D01*
X57676142Y-126528285D01*
X57712428Y-126564571D01*
X57748714Y-126637142D01*
X57748714Y-126818571D01*
X57712428Y-126891142D01*
X57676142Y-126927428D01*
X57603571Y-126963714D01*
X57385857Y-126963714D01*
X57313285Y-126927428D01*
X57277000Y-126891142D01*
X57023000Y-130701142D02*
X56986714Y-130737428D01*
X56877857Y-130773714D01*
X56805285Y-130773714D01*
X56696428Y-130737428D01*
X56623857Y-130664857D01*
X56587571Y-130592285D01*
X56551285Y-130447142D01*
X56551285Y-130338285D01*
X56587571Y-130193142D01*
X56623857Y-130120571D01*
X56696428Y-130048000D01*
X56805285Y-130011714D01*
X56877857Y-130011714D01*
X56986714Y-130048000D01*
X57023000Y-130084285D01*
X57676142Y-130265714D02*
X57676142Y-130773714D01*
X57494714Y-129975428D02*
X57313285Y-130519714D01*
X57785000Y-130519714D01*
X57785000Y-139591142D02*
X57748714Y-139627428D01*
X57639857Y-139663714D01*
X57567285Y-139663714D01*
X57458428Y-139627428D01*
X57385857Y-139554857D01*
X57349571Y-139482285D01*
X57313285Y-139337142D01*
X57313285Y-139228285D01*
X57349571Y-139083142D01*
X57385857Y-139010571D01*
X57458428Y-138938000D01*
X57567285Y-138901714D01*
X57639857Y-138901714D01*
X57748714Y-138938000D01*
X57785000Y-138974285D01*
X58474428Y-138901714D02*
X58111571Y-138901714D01*
X58075285Y-139264571D01*
X58111571Y-139228285D01*
X58184142Y-139192000D01*
X58365571Y-139192000D01*
X58438142Y-139228285D01*
X58474428Y-139264571D01*
X58510714Y-139337142D01*
X58510714Y-139518571D01*
X58474428Y-139591142D01*
X58438142Y-139627428D01*
X58365571Y-139663714D01*
X58184142Y-139663714D01*
X58111571Y-139627428D01*
X58075285Y-139591142D01*
X68961000Y-139591142D02*
X68924714Y-139627428D01*
X68815857Y-139663714D01*
X68743285Y-139663714D01*
X68634428Y-139627428D01*
X68561857Y-139554857D01*
X68525571Y-139482285D01*
X68489285Y-139337142D01*
X68489285Y-139228285D01*
X68525571Y-139083142D01*
X68561857Y-139010571D01*
X68634428Y-138938000D01*
X68743285Y-138901714D01*
X68815857Y-138901714D01*
X68924714Y-138938000D01*
X68961000Y-138974285D01*
X69614142Y-138901714D02*
X69469000Y-138901714D01*
X69396428Y-138938000D01*
X69360142Y-138974285D01*
X69287571Y-139083142D01*
X69251285Y-139228285D01*
X69251285Y-139518571D01*
X69287571Y-139591142D01*
X69323857Y-139627428D01*
X69396428Y-139663714D01*
X69541571Y-139663714D01*
X69614142Y-139627428D01*
X69650428Y-139591142D01*
X69686714Y-139518571D01*
X69686714Y-139337142D01*
X69650428Y-139264571D01*
X69614142Y-139228285D01*
X69541571Y-139192000D01*
X69396428Y-139192000D01*
X69323857Y-139228285D01*
X69287571Y-139264571D01*
X69251285Y-139337142D01*
X63373000Y-144744714D02*
X63119000Y-144381857D01*
X62937571Y-144744714D02*
X62937571Y-143982714D01*
X63227857Y-143982714D01*
X63300428Y-144019000D01*
X63336714Y-144055285D01*
X63373000Y-144127857D01*
X63373000Y-144236714D01*
X63336714Y-144309285D01*
X63300428Y-144345571D01*
X63227857Y-144381857D01*
X62937571Y-144381857D01*
X64098714Y-144744714D02*
X63663285Y-144744714D01*
X63881000Y-144744714D02*
X63881000Y-143982714D01*
X63808428Y-144091571D01*
X63735857Y-144164142D01*
X63663285Y-144200428D01*
X63373000Y-139664714D02*
X63119000Y-139301857D01*
X62937571Y-139664714D02*
X62937571Y-138902714D01*
X63227857Y-138902714D01*
X63300428Y-138939000D01*
X63336714Y-138975285D01*
X63373000Y-139047857D01*
X63373000Y-139156714D01*
X63336714Y-139229285D01*
X63300428Y-139265571D01*
X63227857Y-139301857D01*
X62937571Y-139301857D01*
X63663285Y-138975285D02*
X63699571Y-138939000D01*
X63772142Y-138902714D01*
X63953571Y-138902714D01*
X64026142Y-138939000D01*
X64062428Y-138975285D01*
X64098714Y-139047857D01*
X64098714Y-139120428D01*
X64062428Y-139229285D01*
X63627000Y-139664714D01*
X64098714Y-139664714D01*
X62919428Y-125762714D02*
X62919428Y-126379571D01*
X62955714Y-126452142D01*
X62992000Y-126488428D01*
X63064571Y-126524714D01*
X63209714Y-126524714D01*
X63282285Y-126488428D01*
X63318571Y-126452142D01*
X63354857Y-126379571D01*
X63354857Y-125762714D01*
X64116857Y-126524714D02*
X63681428Y-126524714D01*
X63899142Y-126524714D02*
X63899142Y-125762714D01*
X63826571Y-125871571D01*
X63754000Y-125944142D01*
X63681428Y-125980428D01*
M02*
