M48
; DRILL file {KiCad (5.1.5)-3} date 27.4.2020. 13:04:45
; FORMAT={-:-/ absolute / inch / decimal}
; #@! TF.CreationDate,2020-04-27T13:04:45+02:00
; #@! TF.GenerationSoftware,Kicad,Pcbnew,(5.1.5)-3
; #@! TF.FileFunction,Plated,1,2,PTH
FMAT,2
INCH
T1C0.0157
T2C0.0394
T3C0.1260
%
G90
G05
T1
X2.24Y-5.55
X2.46Y-5.55
X2.465Y-5.75
X2.5Y-5.05
X2.54Y-4.74
X2.6Y-4.52
X2.6Y-4.57
X2.68Y-5.55
X2.74Y-5.75
T2
X2.95Y-5.15
X2.95Y-5.25
X2.95Y-5.35
X2.95Y-5.45
X2.95Y-5.55
X2.95Y-5.65
X2.95Y-5.75
X2.95Y-5.85
X2.28Y-4.0993
X2.3345Y-3.9875
X2.3891Y-4.0993
X2.4436Y-3.9875
X2.4981Y-4.0993
X2.5526Y-3.9875
X2.6072Y-4.0993
X2.6617Y-3.9875
X2.7162Y-4.0993
X2.05Y-5.15
X2.05Y-5.25
X2.05Y-5.35
X2.05Y-5.45
X2.05Y-5.55
X2.05Y-5.65
X2.05Y-5.75
X2.05Y-5.85
T3
X2.006Y-4.0875
X2.9902Y-4.0875
T0
M30
